<?xml version="1.0" encoding="utf-8"?>
<!-- Generator: Adobe Illustrator 19.0.0, SVG Export Plug-In . SVG Version: 6.00 Build 0)  -->
<svg version="1.1" id="Layer_1" xmlns="http://www.w3.org/2000/svg" xmlns:xlink="http://www.w3.org/1999/xlink" x="0px" y="0px"
	 viewBox="0 0 291.7 349.1" style="enable-background:new 0 0 291.7 349.1;" xml:space="preserve">
<style type="text/css">
	.st0{fill:url(#XMLID_15_);}
	.st1{fill:#292933;}
	.st2{fill:url(#XMLID_16_);}
	.st3{fill:url(#XMLID_17_);}
	.st4{fill:#FFFFFF;}
	.st5{fill:url(#XMLID_18_);}
	.st6{fill:url(#XMLID_19_);}
	.st7{fill:url(#XMLID_20_);}
	.st8{fill:url(#XMLID_21_);}
	.st9{fill:url(#XMLID_22_);}
	.st10{fill:url(#XMLID_23_);}
	.st11{fill:url(#XMLID_24_);}
	.st12{fill:url(#XMLID_25_);}
	.st13{fill:url(#XMLID_26_);}
	.st14{fill:url(#XMLID_27_);}
	.st15{fill:url(#XMLID_28_);}
	.st16{fill:url(#XMLID_29_);}
	.st17{fill:#2F2F39;}
	.st18{fill:url(#XMLID_30_);}
	.st19{fill:#BCE6FB;}
	.st20{fill:url(#XMLID_31_);}
	.st21{fill:url(#XMLID_32_);}
	.st22{fill:url(#XMLID_33_);}
	.st23{fill:url(#XMLID_34_);}
	.st24{fill:url(#XMLID_35_);}
	.st25{fill:url(#XMLID_36_);}
	.st26{fill:url(#XMLID_37_);}
	.st27{fill:url(#XMLID_38_);}
	.st28{fill:#F2642E;}
	.st29{fill:url(#XMLID_39_);}
	.st30{fill:url(#XMLID_40_);}
	.st31{fill:url(#XMLID_41_);}
	.st32{fill:url(#XMLID_42_);}
</style>
<linearGradient id="XMLID_15_" gradientUnits="userSpaceOnUse" x1="276.9252" y1="186.5101" x2="-8.114668e-05" y2="186.5101">
	<stop  offset="0" style="stop-color:#FEE66D"/>
	<stop  offset="1" style="stop-color:#E0C967"/>
</linearGradient>
<path id="XMLID_4867_" class="st0" d="M268.8,114.2c-4.5-4.5-13.8,4.9-22.3,18.2c-2-10.9-5.1-23.9-8.7-36.7
	c7.2-6.2,6.5-35.6-2.5-35.8c-0.2,0-0.4,0-0.5,0c-0.6,0-1.1,0.1-1.6,0.4c0.7-1.9,1-3.9,1-6c0-10.1-8.1-18.2-18.1-18.4
	c-0.2,0-0.4,0-0.5,0c-2.4,0-4.8,0.5-6.9,1.4c-12.4-6.8-35.9-10.6-60.6-11.3c-2.3-1.1-4.9-1.8-7.6-1.8c-0.2,0-0.4,0-0.5,0
	c-2.8,0-5.4,0.7-7.7,1.8c-25.1,0.5-49.3,4.1-62.6,10.7c-1.4-0.4-2.9-0.6-4.4-0.6c-0.2,0-0.4,0-0.5,0c-9.5,0.1-17.2,7.3-18.2,16.5
	c-7.1,1.8-8.5,23-4.1,32.4c-5.5,17.5-10.1,36.7-12.6,51.3c-8.3-12.7-17.2-21.6-21.7-17.2c-9.1,9.1-10.5,22.8-4.4,33.4
	c-6.1,10.6-4.7,24.4,4.4,33.4c5.7,5.7,13.2,8.3,20.6,8.1c0.2,1.4,0.4,2.8,0.7,4.2c4.7,30.1,19.7,84.6,33.2,98c6,6,37,53.2,57.4,53.2
	c0.1,0,0.1,0,0.2,0c7,0,30.1,0,36.7,0c0.1,0,0.1,0,0.2,0c0.3,0,0.7,0,1-0.1c20.4-1.7,50.6-47.1,56.6-53.1
	c13.4-13.4,28.4-67.9,33.2-98.1c0.6-2.8,1-5.8,1.2-8.7c7.1,0,14.2-2.7,19.7-8.1c9.1-9.1,10.5-22.8,4.4-33.4
	C279.3,137,277.9,123.2,268.8,114.2z"/>
<path id="XMLID_4866_" class="st1" d="M77.1,56.1c20.9-20.9,131.3-20.9,152.2,0c12.3,12.3,25.8,58.6,31.7,89.6
	c1.2-4.2,2.1-8.5,2.6-12.9c-2.9-27.1-19.5-91.4-34.3-106.2C208.4,5.6,98,5.6,77.1,26.5c-14.8,14.8-31.4,79.1-34.3,106.2
	c0.5,4.4,1.4,8.7,2.6,12.9C51.3,114.7,64.9,68.3,77.1,56.1z"/>
<linearGradient id="XMLID_16_" gradientUnits="userSpaceOnUse" x1="291.6978" y1="136.3192" x2="243.0336" y2="136.3192">
	<stop  offset="0" style="stop-color:#FFFFFF;stop-opacity:0"/>
	<stop  offset="1" style="stop-color:#E7F6FD"/>
</linearGradient>
<path id="XMLID_4865_" class="st2" d="M283.6,99.4c-10.8-10.8-48.2,57.8-39.2,66.9c10.8,10.8,28.4,10.8,39.2,0
	c9.1-9.1,10.5-22.8,4.4-33.4C294.1,122.2,292.7,108.5,283.6,99.4z"/>
<linearGradient id="XMLID_17_" gradientUnits="userSpaceOnUse" x1="14.7726" y1="140.9353" x2="63.4368" y2="140.9353">
	<stop  offset="0" style="stop-color:#FFFFFF;stop-opacity:0"/>
	<stop  offset="1" style="stop-color:#E7F6FD"/>
</linearGradient>
<path id="XMLID_4864_" class="st3" d="M22.9,104c-9.1,9.1-10.5,22.8-4.4,33.4c-6.1,10.6-4.7,24.4,4.4,33.4
	c10.8,10.8,28.4,10.8,39.2,0C71.1,161.8,33.7,93.2,22.9,104z"/>
<path id="XMLID_4863_" class="st4" d="M264.2,168.1c0-20.8-18.5-96.8-34.7-113c-20.9-20.9-131.3-20.9-152.2,0
	c-16.2,16.2-34.7,92.2-34.7,113s18.5,96.8,34.7,113c6,6,37,53.2,57.4,53.2c6.7,0,30.2,0,36.9,0c20.4,0,51.7-47,57.8-53.2
	C245.7,264.9,264.2,189,264.2,168.1z"/>
<linearGradient id="XMLID_18_" gradientUnits="userSpaceOnUse" x1="153.4427" y1="39.4298" x2="153.4427" y2="334.3107">
	<stop  offset="0" style="stop-color:#FFFFFF;stop-opacity:0"/>
	<stop  offset="1" style="stop-color:#E7F6FD"/>
</linearGradient>
<path id="XMLID_4862_" class="st5" d="M264.2,168.1c0-20.8-18.5-96.8-34.7-113c-20.9-20.9-131.3-20.9-152.2,0
	c-16.2,16.2-34.7,92.2-34.7,113s18.5,96.8,34.7,113c6,6,37,53.2,57.4,53.2c6.7,0,30.2,0,36.9,0c20.4,0,51.7-47,57.8-53.2
	C245.8,264.9,264.2,189,264.2,168.1z"/>
<g id="XMLID_4854_">
	<path id="XMLID_4861_" class="st4" d="M229.5,55.1c-20.9-20.9-131.3-20.9-152.2,0c-16.2,16.2-34.7,92.2-34.7,113
		c0,40.8,33.1,73.9,73.9,73.9c13.5,0,60.4,0,73.9,0c40.8,0,73.9-33.1,73.9-73.9C264.2,147.3,245.7,71.3,229.5,55.1z"/>
	<path id="XMLID_4860_" class="st4" d="M229.5,202.8c-20.9-20.9-131.3-20.9-152.2,0c-21.6,21.6,37.2,131.5,57.6,131.5
		c6.7,0,30.2,0,36.9,0C192.3,334.3,251.2,224.5,229.5,202.8z"/>
	<linearGradient id="XMLID_19_" gradientUnits="userSpaceOnUse" x1="153.4374" y1="187.1443" x2="153.4374" y2="334.3108">
		<stop  offset="0" style="stop-color:#FFFFFF;stop-opacity:0"/>
		<stop  offset="1" style="stop-color:#E7F6FD"/>
	</linearGradient>
	<path id="XMLID_4859_" class="st6" d="M229.5,202.8c-20.9-20.9-131.3-20.9-152.2,0c-21.6,21.6,37.2,131.5,57.6,131.5
		c6.7,0,30.2,0,36.9,0C192.3,334.3,251.2,224.5,229.5,202.8z"/>
	<linearGradient id="XMLID_20_" gradientUnits="userSpaceOnUse" x1="244.6299" y1="174.3288" x2="244.6299" y2="53.3623">
		<stop  offset="0" style="stop-color:#FFFFFF;stop-opacity:0"/>
		<stop  offset="1" style="stop-color:#E7F6FD"/>
	</linearGradient>
	<path id="XMLID_4858_" class="st7" d="M229.6,55.1c-20.9-20.9,34.7,153.8,34.7,113C264.3,147.3,245.8,71.3,229.6,55.1z"/>
	<linearGradient id="XMLID_21_" gradientUnits="userSpaceOnUse" x1="42.6519" y1="113.8456" x2="82.0399" y2="113.8456">
		<stop  offset="0" style="stop-color:#FFFFFF;stop-opacity:0"/>
		<stop  offset="1" style="stop-color:#E7F6FD"/>
	</linearGradient>
	<path id="XMLID_4857_" class="st8" d="M77.3,55.1c-16.2,16.2-34.7,92.2-34.7,113C42.7,208.9,98.2,34.2,77.3,55.1z"/>
	<linearGradient id="XMLID_22_" gradientUnits="userSpaceOnUse" x1="188.9564" y1="203.5836" x2="264.2237" y2="203.5836">
		<stop  offset="0" style="stop-color:#FFFFFF;stop-opacity:0"/>
		<stop  offset="1" style="stop-color:#E7F6FD"/>
	</linearGradient>
	<path id="XMLID_4856_" class="st9" d="M190.4,242c40.8,0,73.9-33.1,73.9-73.9C264.2,147.3,176.9,242,190.4,242z"/>
	<linearGradient id="XMLID_23_" gradientUnits="userSpaceOnUse" x1="117.9191" y1="203.2975" x2="42.6519" y2="203.2975">
		<stop  offset="0" style="stop-color:#FFFFFF;stop-opacity:0"/>
		<stop  offset="1" style="stop-color:#E7F6FD"/>
	</linearGradient>
	<path id="XMLID_4855_" class="st10" d="M116.5,241.7c-40.8,0-73.9-33.1-73.9-73.9C42.7,147,130,241.7,116.5,241.7z"/>
</g>
<linearGradient id="XMLID_24_" gradientUnits="userSpaceOnUse" x1="153.4427" y1="241.9892" x2="153.4427" y2="187.1443">
	<stop  offset="0" style="stop-color:#E7F6FD;stop-opacity:0"/>
	<stop  offset="1" style="stop-color:#E7F6FD"/>
</linearGradient>
<path id="XMLID_4853_" class="st11" d="M229.5,202.8c-20.9-20.9-131.3-20.9-152.2,0c-4.8,4.8-5.6,14-3.8,25.4
	c12.1,8.7,26.9,13.8,43,13.8c13.5,0,60.4,0,73.9,0c16,0,30.8-5.1,43-13.8C235.2,216.8,234.4,207.6,229.5,202.8z"/>
<linearGradient id="XMLID_25_" gradientUnits="userSpaceOnUse" x1="153.2358" y1="205.3345" x2="153.2358" y2="94.5487">
	<stop  offset="0" style="stop-color:#E7F6FD;stop-opacity:0"/>
	<stop  offset="1" style="stop-color:#E7F6FD"/>
</linearGradient>
<path id="XMLID_4852_" class="st12" d="M162.5,149.9c0-7.3,9.2-29.8,9.2-36.9c0-10.2-8.3-18.5-18.5-18.5l0,0l0,0h0
	c-10.2,0-18.5,8.3-18.5,18.5c0,7.1,9.2,29.7,9.2,36.9c0,7.3-9.2,29.8-9.2,36.9c0,10.2,8.3,18.5,18.5,18.5h0l0,0l0,0
	c10.2,0,18.5-8.3,18.5-18.5C171.7,179.8,162.5,157.2,162.5,149.9z"/>
<path id="XMLID_4851_" class="st1" d="M208.8,113C208.8,113,208.8,113,208.8,113c0,0,0.1,0,0.2,0C209,113,208.9,113,208.8,113z"/>
<path id="XMLID_4850_" class="st1" d="M98,113.4C98,113.4,98,113.4,98,113.4c0,0,0.1,0,0.2,0C98.2,113.4,98.1,113.4,98,113.4z"/>
<linearGradient id="XMLID_26_" gradientUnits="userSpaceOnUse" x1="153.2344" y1="270.3608" x2="153.2344" y2="247.2042">
	<stop  offset="0" style="stop-color:#FFFFFF;stop-opacity:0"/>
	<stop  offset="1" style="stop-color:#E7F6FD"/>
</linearGradient>
<path id="XMLID_4849_" class="st13" d="M157.9,247.3c0,2.5-2.1,4.6-4.6,4.6s-4.6-2.1-4.6-4.6c0-1-23.1,8.7-23.1,13.8
	c0,5.1,4.1,9.2,9.2,9.2c5.1,0,13.4,0,18.5,0c5.1,0,13.4,0,18.5,0c5.1,0,9.2-4.1,9.2-9.2C180.9,256,157.9,246.2,157.9,247.3z"/>
<linearGradient id="XMLID_27_" gradientUnits="userSpaceOnUse" x1="153.2353" y1="232.511" x2="153.2353" y2="223.2788">
	<stop  offset="0" style="stop-color:#FFFFFF;stop-opacity:0"/>
	<stop  offset="1" style="stop-color:#E7F6FD"/>
</linearGradient>
<circle id="XMLID_4848_" class="st14" cx="153.2" cy="227.9" r="4.6"/>
<linearGradient id="XMLID_28_" gradientUnits="userSpaceOnUse" x1="153.2341" y1="296.4342" x2="153.2341" y2="270.3218">
	<stop  offset="0" style="stop-color:#FFFFFF;stop-opacity:0"/>
	<stop  offset="1" style="stop-color:#E7F6FD"/>
</linearGradient>
<path id="XMLID_4847_" class="st15" d="M134.8,278c0-10.2,36.9-10.2,36.9,0c0,10.2-8.3,18.5-18.5,18.5
	C143,296.4,134.8,288.2,134.8,278z"/>
<linearGradient id="XMLID_29_" gradientUnits="userSpaceOnUse" x1="153.2356" y1="205.3345" x2="153.2356" y2="94.5487">
	<stop  offset="0" style="stop-color:#FFFFFF;stop-opacity:0"/>
	<stop  offset="1" style="stop-color:#E7F6FD"/>
</linearGradient>
<path id="XMLID_4846_" class="st16" d="M171.7,113c0-10.2-8.3-18.5-18.5-18.5s-18.5,8.3-18.5,18.5c0,8.7,0,65.2,0,73.9
	c0,10.2,8.3,18.5,18.5,18.5s18.5-8.3,18.5-18.5C171.7,178.2,171.7,121.7,171.7,113z"/>
<g id="XMLID_4842_">
	<path id="XMLID_4845_" class="st1" d="M107.5,80.2c-0.1,0-0.2,0-0.3,0c-1.7,0-3.2,0.5-4.5,1.2c-1.3-0.8-2.8-1.2-4.4-1.2
		c-0.1,0-0.2,0-0.3,0c-3.7,0-6.9,2.3-8.4,5.5c-4.9-0.2-10,1.1-10,3.8c0,5.1,4.1,9.2,9.2,9.2c1.7,0,3.3-0.5,4.6-1.2
		c1.4,0.8,2.9,1.2,4.6,1.2c1.7,0,3.3-0.5,4.6-1.2c1.4,0.8,2.9,1.2,4.6,1.2c5.1,0,9.2-4.1,9.2-9.2C116.5,84.4,112.5,80.3,107.5,80.2z
		"/>
	<path id="XMLID_4844_" d="M88.8,98.7c1.7,0,3.3-0.5,4.6-1.2c1.4,0.8,2.9,1.2,4.6,1.2c1.7,0,3.3-0.5,4.6-1.2
		c1.4,0.8,2.9,1.2,4.6,1.2c5.1,0,9.2-4.1,9.2-9.2C116.5,84.4,83.7,98.7,88.8,98.7z"/>
	<path id="XMLID_4843_" class="st17" d="M107.5,80.2c-0.1,0-0.2,0-0.3,0c-1.7,0-3.2,0.5-4.5,1.2c-1.3-0.8-2.8-1.2-4.4-1.2
		c-0.1,0-0.2,0-0.3,0c-3.7,0-18.4,6.5-18.4,9.2C79.6,94.5,112.5,80.3,107.5,80.2z"/>
</g>
<g id="XMLID_4838_">
	<path id="XMLID_4841_" class="st1" d="M199.4,79.8c0.1,0,0.2,0,0.3,0c1.7,0,3.2,0.5,4.5,1.2c1.3-0.8,2.8-1.2,4.4-1.2
		c0.1,0,0.2,0,0.3,0c3.7,0,18.4,6.5,18.4,9.2c0,5.1-4.1,9.2-9.2,9.2c-1.7,0-3.3-0.5-4.6-1.2c-1.4,0.8-2.9,1.2-4.6,1.2
		c-1.7,0-3.3-0.5-4.6-1.2c-1.4,0.8-2.9,1.2-4.6,1.2c-5.1,0-9.2-4.1-9.2-9.2C190.4,84,194.4,79.9,199.4,79.8z"/>
	<path id="XMLID_4840_" d="M218.1,98.2c-1.7,0-3.3-0.5-4.6-1.2c-1.4,0.8-2.9,1.2-4.6,1.2c-1.7,0-3.3-0.5-4.6-1.2
		c-1.4,0.8-2.9,1.2-4.6,1.2c-5.1,0-9.2-4.1-9.2-9.2C190.4,84,223.2,98.2,218.1,98.2z"/>
	<path id="XMLID_4839_" class="st17" d="M199.4,79.8c0.1,0,0.2,0,0.3,0c1.7,0,3.2,0.5,4.5,1.2c1.3-0.8,2.8-1.2,4.4-1.2
		c0.1,0,0.2,0,0.3,0c3.7,0,6.9,2.3,8.4,5.5c4.9-0.2,10,1.1,10,3.8C227.3,94.1,194.4,79.9,199.4,79.8z"/>
</g>
<g id="XMLID_4836_">
	<linearGradient id="XMLID_30_" gradientUnits="userSpaceOnUse" x1="153.4373" y1="67.2772" x2="153.4373" y2="39.4445">
		<stop  offset="0" style="stop-color:#FFFFFF;stop-opacity:0"/>
		<stop  offset="1" style="stop-color:#E7F6FD"/>
	</linearGradient>
	<path id="XMLID_4837_" class="st18" d="M229.5,55.1c-20.9-20.9-131.3-20.9-152.2,0c-3.1,3.1,1.2,5.7,10.2,7.6
		c28.4,6.1,102.9,6.1,131.5,0.1C228.2,60.8,232.7,58.3,229.5,55.1z"/>
</g>
<path id="XMLID_4835_" class="st1" d="M63.6,42.9c0,10.2,8.3,18.5,18.5,18.5c10.2,0,18.5-8.3,18.5-18.5c0-10.1-8.1-18.2-18.1-18.4
	c-0.2,0-0.4,0-0.5,0C71.8,24.5,63.6,32.7,63.6,42.9z"/>
<path id="XMLID_4834_" class="st1" d="M99.5,34.9c0,10.2,8.3,18.5,18.5,18.5c10.2,0,18.5-8.3,18.5-18.5c0-10.1-8.1-18.2-18.1-18.4
	c-0.2,0-0.4,0-0.5,0C107.6,16.5,99.5,24.7,99.5,34.9z"/>
<path id="XMLID_4833_" class="st1" d="M206.5,49.1c0,10.2,8.3,18.5,18.5,18.5c10.2,0,18.5-8.3,18.5-18.5c0-10.1-8.1-18.2-18.1-18.4
	c-0.2,0-0.4,0-0.5,0C214.7,30.7,206.5,38.9,206.5,49.1z"/>
<path id="XMLID_4832_" class="st1" d="M176.2,39.4c0,10.2,36.9,10.2,36.9,0c0-10.1-8.1-18.2-18.1-18.4c-0.2,0-0.4,0-0.5,0
	C184.4,21.1,176.2,29.3,176.2,39.4z"/>
<path id="XMLID_4831_" class="st1" d="M136.4,27.6c0,10.2,8.3,18.5,18.5,18.5c10.2,0,18.5-8.3,18.5-18.5c0-10.1-8.1-18.2-18.1-18.4
	c-0.2,0-0.4,0-0.5,0C144.6,9.2,136.4,17.5,136.4,27.6z"/>
<path id="XMLID_4830_" class="st1" d="M61.1,39.4c0,10.2,8.3,18.5,18.5,18.5c10.2,0,18.5-8.3,18.5-18.5C98,29.4,90,21.2,80,21
	c-0.2,0-0.4,0-0.5,0C69.3,21.1,61.1,29.3,61.1,39.4z"/>
<path id="XMLID_4829_" class="st1" d="M212.1,39.4c0,10.2,8.3,18.5,18.5,18.5c10.2,0,18.5-8.3,18.5-18.5c0-10.1-8.1-18.2-18.1-18.4
	c-0.2,0-0.4,0-0.5,0C220.3,21,212.1,29.3,212.1,39.4z"/>
<path id="XMLID_4828_" class="st1" d="M249.7,82c10.2,0,10.4-36.7,0.4-36.9c-0.2,0-0.4,0-0.5,0C239.5,45.2,239.5,82,249.7,82z"/>
<path id="XMLID_4827_" class="st19" d="M228.7,0"/>
<g id="XMLID_4825_">
	<linearGradient id="XMLID_31_" gradientUnits="userSpaceOnUse" x1="99.5771" y1="11.5184" x2="99.5771" y2="37.5522">
		<stop  offset="0" style="stop-color:#292933;stop-opacity:0"/>
		<stop  offset="1" style="stop-color:#2F2F39"/>
	</linearGradient>
	<path id="XMLID_4826_" class="st20" d="M94,33.1c-9.2,0-10.2,4.4,0,4.4c10.2,0,18.5-8.3,18.5-18.5c0-0.5-0.1-0.9-0.3-1.4
		C110.7,26.5,103.1,33.1,94,33.1z"/>
</g>
<g id="XMLID_4823_">
	<linearGradient id="XMLID_32_" gradientUnits="userSpaceOnUse" x1="147.1571" y1="8.2751" x2="147.1571" y2="34.3193">
		<stop  offset="0" style="stop-color:#292933;stop-opacity:0"/>
		<stop  offset="1" style="stop-color:#2F2F39"/>
	</linearGradient>
	<path id="XMLID_4824_" class="st21" d="M147.2,29.9c-9.2,0-16.7-6.7-18.2-15.4c-0.2,0.4-0.3,0.9-0.3,1.4c0,10.2,8.3,18.5,18.5,18.5
		c10.2,0,18.5-8.3,18.5-18.5c0-0.5-0.1-0.9-0.3-1.4C163.9,23.2,156.3,29.9,147.2,29.9z"/>
</g>
<g id="XMLID_4821_">
	<linearGradient id="XMLID_33_" gradientUnits="userSpaceOnUse" x1="82.0399" y1="35.272" x2="82.0399" y2="61.3162">
		<stop  offset="0" style="stop-color:#292933;stop-opacity:0"/>
		<stop  offset="1" style="stop-color:#2F2F39"/>
	</linearGradient>
	<path id="XMLID_4822_" class="st22" d="M82,56.9c-9.2,0-16.7-6.7-18.2-15.4c-0.2,0.4-0.3,0.9-0.3,1.4c0,10.2,8.3,18.5,18.5,18.5
		c10.2,0,18.5-8.3,18.5-18.5c0-0.5-0.1-0.9-0.3-1.4C98.8,50.2,91.2,56.9,82,56.9z"/>
</g>
<g id="XMLID_4819_">
	<linearGradient id="XMLID_34_" gradientUnits="userSpaceOnUse" x1="224.9405" y1="31.3579" x2="224.9405" y2="57.4021">
		<stop  offset="0" style="stop-color:#292933;stop-opacity:0"/>
		<stop  offset="1" style="stop-color:#2F2F39"/>
	</linearGradient>
	<path id="XMLID_4820_" class="st23" d="M230.5,53c-9.2,0-16.7-6.7-18.2-15.4c-0.2,0.4-0.3,0.9-0.3,1.4c0,10.2,8.3,18.5,18.5,18.5
		C240.7,57.4,239.7,53,230.5,53z"/>
</g>
<linearGradient id="XMLID_35_" gradientUnits="userSpaceOnUse" x1="154.0006" y1="296.8192" x2="154.0006" y2="232.511">
	<stop  offset="0" style="stop-color:#FEE66D"/>
	<stop  offset="1" style="stop-color:#FCB23C"/>
</linearGradient>
<path id="XMLID_4818_" class="st24" d="M190.9,247.3c0-3-25.5-14.8-29.5-14.8c0,4.1-14.8,4.1-14.8,0c-4.1,0-29.5,11.7-29.5,14.8
	c0,1.3,6.6,30.7,17.3,41.4c10.8,10.8,28.4,10.8,39.2,0C184.3,278,190.9,248.6,190.9,247.3z"/>
<path id="XMLID_4817_" class="st1" d="M62.3,74.3c10.2,0,10.4-36.7,0.4-36.9c-0.2,0-0.4,0-0.5,0C52,37.4,52.1,74.3,62.3,74.3z"/>
<g id="XMLID_4785_">
	<path id="XMLID_4814_" class="st1" d="M98.2,113.4c0.2,0,0.4,0.1,0.7,0.1C98.7,113.5,98.5,113.5,98.2,113.4c-0.1,0-5.3,0.1-0.3,0
		c0,0-0.1,0-0.1,0c-10.2,0-18.5,16.5-18.5,36.9s8.3,36.9,18.5,36.9c10.2,0,18.5-16.5,18.5-36.9C116.3,130.2,108.3,113.9,98.2,113.4z
		 M100.1,113.9c-0.1,0-0.2-0.1-0.3-0.1C99.9,113.8,100,113.8,100.1,113.9z"/>
	<path id="XMLID_4811_" d="M79.4,150.2c0,20.4,8.3,36.9,18.5,36.9C108,187.1,79.4,129.8,79.4,150.2z M99.8,113.6"/>
	<path id="XMLID_4808_" class="st17" d="M98.2,113.4c0.2,0,0.4,0.1,0.7,0.1C98.7,113.5,98.5,113.5,98.2,113.4c-0.1,0-5.3,0.1-0.3,0
		c0,0-0.1,0-0.1,0c-10.2,0,18.5,57.3,18.5,36.9C116.3,130.2,108.3,113.9,98.2,113.4z M100.1,113.9c-0.1,0-0.2-0.1-0.3-0.1
		C99.9,113.8,100,113.8,100.1,113.9z"/>
	<path id="XMLID_4805_" class="st1" d="M209,113c0.2,0,0.4,0.1,0.7,0.1C209.5,113.1,209.3,113,209,113c-0.1,0-0.2,0-0.3,0
		c-5.1,0.1-5.1,0.1,0,0c0,0-0.1,0-0.1,0c-10.2,0-18.5,16.5-18.5,36.9s8.3,36.9,18.5,36.9c10.2,0,18.5-16.5,18.5-36.9
		C227.1,129.8,219,113.5,209,113z M210.9,113.5c-0.1,0-0.2-0.1-0.3-0.1C210.7,113.4,210.8,113.4,210.9,113.5z"/>
	<path id="XMLID_4802_" d="M190.2,149.9c0,20.4,8.3,36.9,18.5,36.9C218.8,186.9,190.2,129.5,190.2,149.9z M210.6,113.4"/>
	<path id="XMLID_4799_" class="st17" d="M209.1,113c0.2,0,0.4,0.1,0.7,0.1C209.5,113.1,209.3,113,209.1,113c-0.1,0-5.3,0.1-0.3,0
		c0,0-0.1,0-0.1,0c-10.2,0,18.5,57.3,18.5,36.9C227.1,129.8,219.1,113.5,209.1,113z M210.9,113.5c-0.1,0-0.2-0.1-0.3-0.1
		C210.7,113.4,210.8,113.4,210.9,113.5z"/>
	<g id="XMLID_4793_">
		<linearGradient id="XMLID_36_" gradientUnits="userSpaceOnUse" x1="79.3782" y1="179.963" x2="116.3068" y2="179.963">
			<stop  offset="0" style="stop-color:#FFFFFF;stop-opacity:0"/>
			<stop  offset="1" style="stop-color:#BCE6FB"/>
		</linearGradient>
		<path id="XMLID_4798_" class="st25" d="M97.8,187.3c-8.9,0-16.4-12.7-18.1-29.5c-0.2,2.4-0.4,4.9-0.4,7.4
			c0,20.4,8.3,36.9,18.5,36.9c10.2,0,18.5-16.5,18.5-36.9c0-2.5-0.1-5-0.4-7.4C114.2,174.6,106.8,187.3,97.8,187.3z"/>
		<path id="XMLID_4797_" class="st1" d="M97.8,113.4c-0.1,0-0.2,0-0.2,0c0.1,0,0.2,0,0.4,0C97.9,113.4,97.9,113.4,97.8,113.4z"/>
		<path id="XMLID_4796_" class="st1" d="M97.3,113.5c0.1,0,0.2,0,0.3,0C94.5,113.5,96.1,113.5,97.3,113.5z"/>
		<path id="XMLID_4795_" class="st1" d="M97.8,128.3c-0.1,0-0.2,0-0.2,0c0.1,0,0.2,0,0.4,0C97.9,128.3,97.9,128.3,97.8,128.3z"/>
		<path id="XMLID_4794_" class="st1" d="M97.3,128.3c0.1,0,0.2,0,0.3,0C94.5,128.3,96.1,128.3,97.3,128.3z"/>
	</g>
	
		<linearGradient id="XMLID_37_" gradientUnits="userSpaceOnUse" x1="9728.0371" y1="179.5475" x2="9764.9658" y2="179.5475" gradientTransform="matrix(-1 0 0 1 9955.1299 0)">
		<stop  offset="0" style="stop-color:#FFFFFF;stop-opacity:0"/>
		<stop  offset="1" style="stop-color:#BCE6FB"/>
	</linearGradient>
	<path id="XMLID_4792_" class="st26" d="M208.6,186.9c8.9,0,16.4-12.7,18.1-29.5c0.2,2.4,0.4,4.9,0.4,7.4c0,20.4-8.3,36.9-18.5,36.9
		c-10.2,0-18.5-16.5-18.5-36.9c0-2.5,0.1-5,0.4-7.4C192.3,174.2,199.7,186.9,208.6,186.9z"/>
	<path id="XMLID_4789_" class="st4" d="M214.6,120.6C214.6,120.6,214.6,120.6,214.6,120.6C214.6,120.6,214.6,120.6,214.6,120.6
		C214.6,120.6,214.6,120.6,214.6,120.6C213.9,120.6,213.9,120.6,214.6,120.6C214.5,120.6,214.5,120.6,214.6,120.6
		c-1.3,0-2.4,2.1-2.4,4.6c0,2.5,4.6,2.5,4.6,0C216.8,122.7,215.8,120.6,214.6,120.6z M214.8,120.6
		C214.8,120.6,214.8,120.6,214.8,120.6C214.8,120.6,214.8,120.6,214.8,120.6z"/>
	<path id="XMLID_4786_" class="st4" d="M103.7,121C103.8,121,103.8,121,103.7,121C103.8,121,103.8,121,103.7,121
		C103.7,121,103.7,121,103.7,121C103.1,121,103.1,121,103.7,121L103.7,121c-1.3,0-2.4,2.1-2.4,4.6c0,2.5,4.6,2.5,4.6,0
		C106,123.1,105,121.1,103.7,121z M104,121.1C104,121,104,121,104,121.1C104,121,104,121,104,121.1z"/>
</g>
<g id="XMLID_4768_">
	<linearGradient id="XMLID_38_" gradientUnits="userSpaceOnUse" x1="153.2354" y1="205.3345" x2="153.2354" y2="168.4058">
		<stop  offset="0" style="stop-color:#E7F6FD;stop-opacity:0"/>
		<stop  offset="1" style="stop-color:#E7F6FD"/>
	</linearGradient>
	<path id="XMLID_4784_" class="st27" d="M162.5,168.4c-3.4,0-6.5,0.9-9.2,2.5c-2.7-1.6-5.9-2.5-9.2-2.5c-10.2,0-18.5,8.3-18.5,18.5
		s8.3,18.5,18.5,18.5c3.4,0,6.5-0.9,9.2-2.5c2.7,1.6,5.9,2.5,9.2,2.5c10.2,0,18.5-8.3,18.5-18.5S172.7,168.4,162.5,168.4z"/>
	<g id="XMLID_4777_">
		<path id="XMLID_4783_" class="st1" d="M153.2,205.3c0-10.2-8.3-18.5-18.5-18.5c-3.4,0-55.4,8.3-55.4,18.5
			c0,10.2,8.3,18.5,18.5,18.5c3.4,0,6.5-0.9,9.2-2.5c2.7,1.6,5.9,2.5,9.2,2.5c3.4,0,6.5-0.9,9.2-2.5c2.7,1.6,5.9,2.5,9.2,2.5
			C145,223.8,153.2,215.5,153.2,205.3L153.2,205.3C153.2,205.3,153.2,205.3,153.2,205.3z"/>
		<path id="XMLID_4782_" class="st1" d="M153.2,205.3c0-10.2,8.3-18.5,18.5-18.5c3.4,0,55.4,8.3,55.4,18.5s-8.3,18.5-18.5,18.5
			c-3.4,0-6.5-0.9-9.2-2.5c-2.7,1.6-5.9,2.5-9.2,2.5c-3.4,0-6.5-0.9-9.2-2.5c-2.7,1.6-5.9,2.5-9.2,2.5
			C161.5,223.8,153.2,215.5,153.2,205.3L153.2,205.3C153.2,205.3,153.2,205.3,153.2,205.3z"/>
		<path id="XMLID_4781_" d="M79.4,205.2c0,10.2,8.3,18.5,18.5,18.5c3.4,0,6.5-0.9,9.2-2.5c2.7,1.6,5.9,2.5,9.2,2.5
			c3.4,0,6.5-0.9,9.2-2.5c2.7,1.6,5.9,2.5,9.2,2.5C145,223.6,79.4,195,79.4,205.2z"/>
		<path id="XMLID_4780_" d="M153.2,205.2c0-10.2,65.6,18.5,55.4,18.5c-3.4,0-6.5-0.9-9.2-2.5c-2.7,1.6-5.9,2.5-9.2,2.5
			c-3.4,0-6.5-0.9-9.2-2.5c-2.7,1.6-5.9,2.5-9.2,2.5C161.5,223.6,153.2,215.4,153.2,205.2L153.2,205.2
			C153.2,205.2,153.2,205.2,153.2,205.2z"/>
		<path id="XMLID_4779_" class="st17" d="M153.2,205.3c0-10.2-8.3-18.5-18.5-18.5C131.4,186.9,153.2,215.5,153.2,205.3L153.2,205.3
			C153.2,205.3,153.2,205.3,153.2,205.3z"/>
		<path id="XMLID_4778_" class="st17" d="M171.7,186.9c3.4,0,55.4,8.3,55.4,18.5C227.1,215.5,161.5,186.9,171.7,186.9z"/>
	</g>
	<g id="XMLID_4774_">
		<path id="XMLID_4776_" class="st28" d="M162.5,205.3c-10.2,0-18.5-8.3-18.5-18.5s36.9-10.2,36.9,0S172.7,205.3,162.5,205.3z"/>
		<linearGradient id="XMLID_39_" gradientUnits="userSpaceOnUse" x1="180.9317" y1="192.2779" x2="144.003" y2="192.2779">
			<stop  offset="0" style="stop-color:#F2642E;stop-opacity:0"/>
			<stop  offset="1" style="stop-color:#D13141"/>
		</linearGradient>
		<path id="XMLID_4775_" class="st29" d="M162.5,205.3c-10.2,0-18.5-8.3-18.5-18.5c0-10.2,36.9-10.2,36.9,0
			C180.9,197.1,172.7,205.3,162.5,205.3z"/>
	</g>
	<g id="XMLID_4771_">
		<path id="XMLID_4773_" class="st28" d="M144,205.3c10.2,0,18.5-8.3,18.5-18.5s-36.9-10.2-36.9,0S133.8,205.3,144,205.3z"/>
		
			<linearGradient id="XMLID_40_" gradientUnits="userSpaceOnUse" x1="5554.6792" y1="192.2781" x2="5517.7505" y2="192.2781" gradientTransform="matrix(-1 0 0 1 5680.2178 0)">
			<stop  offset="0" style="stop-color:#F2642E;stop-opacity:0"/>
			<stop  offset="1" style="stop-color:#D13141"/>
		</linearGradient>
		<path id="XMLID_4772_" class="st30" d="M144,205.3c10.2,0,18.5-8.3,18.5-18.5c0-10.2-36.9-10.2-36.9,0
			C125.5,197.1,133.8,205.3,144,205.3z"/>
	</g>
	<linearGradient id="XMLID_41_" gradientUnits="userSpaceOnUse" x1="153.2357" y1="205.3345" x2="153.2357" y2="144.936">
		<stop  offset="0" style="stop-color:#F2642E"/>
		<stop  offset="1" style="stop-color:#FFFFFF"/>
	</linearGradient>
	<path id="XMLID_4770_" class="st31" d="M157.9,149.9c0-6.7-9.2-6.7-9.2,0c0,6.7-13.8,28.2-13.8,36.9c0,10.2,8.3,18.5,18.5,18.5
		s18.5-8.3,18.5-18.5C171.7,178.2,157.9,156.6,157.9,149.9z"/>
	<linearGradient id="XMLID_42_" gradientUnits="userSpaceOnUse" x1="153.2352" y1="205.3345" x2="153.2352" y2="94.5487">
		<stop  offset="0" style="stop-color:#E7F6FD;stop-opacity:0"/>
		<stop  offset="1" style="stop-color:#E7F6FD"/>
	</linearGradient>
	<path id="XMLID_4769_" class="st32" d="M157.9,149.9c0-6.7,5.6-55.4-4.6-55.4s-4.6,48.7-4.6,55.4c0,6.7-13.8,28.2-13.8,36.9
		c0,10.2,8.3,18.5,18.5,18.5s18.5-8.3,18.5-18.5C171.7,178.2,157.9,156.6,157.9,149.9z"/>
</g>
</svg>
