<?xml version="1.0" encoding="utf-8"?>
<!-- Generator: Adobe Illustrator 19.0.0, SVG Export Plug-In . SVG Version: 6.00 Build 0)  -->
<svg version="1.1" id="Layer_1" xmlns="http://www.w3.org/2000/svg" xmlns:xlink="http://www.w3.org/1999/xlink" x="0px" y="0px"
	 viewBox="0 0 1225.1 175.2" style="enable-background:new 0 0 1225.1 175.2;" xml:space="preserve">
<style type="text/css">
	.st0{fill:url(#XMLID_15_);}
	.st1{fill:url(#XMLID_16_);}
	.st2{fill:url(#XMLID_17_);}
	.st3{fill:#FFF4DA;}
	.st4{fill:url(#XMLID_18_);}
	.st5{fill:url(#XMLID_19_);}
	.st6{fill:url(#XMLID_20_);}
	.st7{fill:url(#XMLID_21_);}
	.st8{fill:url(#XMLID_22_);}
	.st9{fill:#FFFFFF;}
	.st10{fill:url(#XMLID_23_);}
	.st11{fill:url(#XMLID_24_);}
	.st12{fill:url(#XMLID_25_);}
	.st13{fill:url(#XMLID_26_);}
	.st14{fill:url(#XMLID_27_);}
	.st15{fill:url(#XMLID_28_);}
	.st16{fill:url(#XMLID_29_);}
	.st17{fill:url(#XMLID_30_);}
	.st18{fill:url(#XMLID_31_);}
	.st19{fill:url(#XMLID_32_);}
	.st20{fill:url(#XMLID_33_);}
	.st21{fill:url(#XMLID_34_);}
	.st22{fill:url(#XMLID_35_);}
	.st23{fill:url(#XMLID_36_);}
	.st24{fill:url(#XMLID_37_);}
	.st25{fill:url(#XMLID_38_);}
	.st26{fill:url(#XMLID_39_);}
	.st27{fill:url(#XMLID_40_);}
	.st28{fill:url(#XMLID_41_);}
	.st29{fill:url(#XMLID_42_);}
	.st30{fill:url(#XMLID_43_);}
	.st31{fill:url(#XMLID_44_);}
	.st32{fill:url(#XMLID_45_);}
	.st33{fill:url(#XMLID_46_);}
	.st34{fill:url(#XMLID_47_);}
	.st35{fill:url(#XMLID_48_);}
	.st36{fill:url(#XMLID_49_);}
	.st37{fill:url(#XMLID_50_);}
	.st38{fill:url(#XMLID_51_);}
	.st39{fill:url(#XMLID_52_);}
	.st40{fill:url(#XMLID_53_);}
	.st41{fill:url(#XMLID_54_);}
	.st42{fill:url(#XMLID_55_);}
	.st43{fill:url(#XMLID_56_);}
	.st44{fill:url(#XMLID_57_);}
	.st45{fill:url(#XMLID_58_);}
	.st46{fill:url(#XMLID_59_);}
	.st47{fill:url(#XMLID_60_);}
	.st48{fill:url(#XMLID_61_);}
	.st49{fill:url(#XMLID_62_);}
	.st50{fill:url(#XMLID_63_);}
	.st51{fill:url(#XMLID_64_);}
	.st52{fill:url(#XMLID_65_);}
	.st53{fill:url(#XMLID_66_);}
	.st54{fill:url(#XMLID_67_);}
	.st55{fill:url(#XMLID_68_);}
	.st56{fill:url(#XMLID_69_);}
	.st57{fill:url(#XMLID_70_);}
	.st58{fill:url(#XMLID_71_);}
	.st59{fill:url(#XMLID_72_);}
	.st60{fill:url(#XMLID_73_);}
	.st61{fill:url(#XMLID_74_);}
	.st62{fill:url(#XMLID_75_);}
	.st63{fill:url(#XMLID_76_);}
	.st64{fill:url(#XMLID_77_);}
	.st65{fill:url(#XMLID_78_);}
	.st66{fill:url(#XMLID_79_);}
	.st67{fill:url(#XMLID_80_);}
	.st68{fill:url(#XMLID_81_);}
	.st69{fill:url(#XMLID_82_);}
	.st70{fill:url(#XMLID_83_);}
	.st71{fill:url(#XMLID_84_);}
	.st72{fill:url(#XMLID_85_);}
	.st73{fill:url(#XMLID_86_);}
</style>
<g id="XMLID_541_">
	<linearGradient id="XMLID_15_" gradientUnits="userSpaceOnUse" x1="154.5285" y1="61.9568" x2="187.4733" y2="61.9568">
		<stop  offset="0" style="stop-color:#FFF4DA;stop-opacity:0"/>
		<stop  offset="1" style="stop-color:#D8D0BB"/>
	</linearGradient>
	<path id="XMLID_559_" class="st0" d="M182,37c-7.3-7.3-32.7,39.1-26.5,45.3c7.3,7.3,19.2,7.3,26.5,0c6.1-6.1,7.1-15.5,3-22.6
		C189.1,52.4,188.1,43.1,182,37z"/>
	<linearGradient id="XMLID_16_" gradientUnits="userSpaceOnUse" x1="-5.645390e-06" y1="65.0818" x2="32.9448" y2="65.0818">
		<stop  offset="0" style="stop-color:#FFF4DA;stop-opacity:0"/>
		<stop  offset="1" style="stop-color:#D8D0BB"/>
	</linearGradient>
	<path id="XMLID_558_" class="st1" d="M5.5,40.1c-6.1,6.1-7.1,15.5-3,22.6c-4.2,7.2-3.2,16.5,3,22.6c7.3,7.3,19.2,7.3,26.5,0
		C38.1,79.2,12.8,32.8,5.5,40.1z"/>
	<g id="XMLID_555_">
		<linearGradient id="XMLID_17_" gradientUnits="userSpaceOnUse" x1="18.7514" y1="87.7262" x2="108.7514" y2="87.7262">
			<stop  offset="0" style="stop-color:#E9E0C9"/>
			<stop  offset="1" style="stop-color:#FFF4DA"/>
		</linearGradient>
		<path id="XMLID_557_" class="st2" d="M48.8,87.5C48.8,73.4,61.3,22,72.2,11c5.5-5.5,20-8.8,36.5-10.1C82.4-1,50.9,2.3,42.2,11
			c-11,11-23.5,62.4-23.5,76.5c0,14.1,29.3,87.5,50,87.5c5.6,0,18.4,0,30,0C78,175,48.8,101.6,48.8,87.5z"/>
		<path id="XMLID_556_" class="st3" d="M168.8,87.5c0-14.1-12.5-65.5-23.5-76.5c-5.5-5.5-20-8.8-36.5-10.1
			C92.2,2.2,77.7,5.6,72.2,11c-11,11-23.5,62.4-23.5,76.5c0,14.1,29.3,87.5,50,87.5c8.3,0,16,0,20,0
			C139.5,175,168.8,101.6,168.8,87.5z"/>
	</g>
	<linearGradient id="XMLID_18_" gradientUnits="userSpaceOnUse" x1="93.7514" y1="100.2262" x2="93.7514" y2="92.7262">
		<stop  offset="0" style="stop-color:#D8D0BB"/>
		<stop  offset="1" style="stop-color:#FFF4DA;stop-opacity:0"/>
	</linearGradient>
	<path id="XMLID_554_" class="st4" d="M73.7,92.7c0,4.1,17.3,7.5,20,7.5c2.7,0,20-3.4,20-7.5"/>
	<linearGradient id="XMLID_19_" gradientUnits="userSpaceOnUse" x1="18.7367" y1="130.6193" x2="69.7845" y2="130.6193">
		<stop  offset="0" style="stop-color:#FFF4DA;stop-opacity:0"/>
		<stop  offset="1" style="stop-color:#D8D0BB"/>
	</linearGradient>
	<path id="XMLID_553_" class="st5" d="M18.7,87.5c0,14.1,29.3,87.5,50,87.5C78.3,175,18.7,73.4,18.7,87.5z"/>
	<linearGradient id="XMLID_20_" gradientUnits="userSpaceOnUse" x1="117.6888" y1="130.6193" x2="168.7366" y2="130.6193">
		<stop  offset="0" style="stop-color:#D8D0BB"/>
		<stop  offset="1" style="stop-color:#FFF4DA;stop-opacity:0"/>
	</linearGradient>
	<path id="XMLID_552_" class="st6" d="M168.7,87.5c0,14.1-29.3,87.5-50,87.5C109.1,175,168.7,73.4,168.7,87.5z"/>
	<linearGradient id="XMLID_21_" gradientUnits="userSpaceOnUse" x1="108.7366" y1="72.7262" x2="146.2366" y2="72.7262">
		<stop  offset="0" style="stop-color:#D8D0BB"/>
		<stop  offset="1" style="stop-color:#FFF4DA;stop-opacity:0"/>
	</linearGradient>
	<circle id="XMLID_551_" class="st7" cx="127.5" cy="72.7" r="18.8"/>
	<linearGradient id="XMLID_22_" gradientUnits="userSpaceOnUse" x1="41.2366" y1="72.7262" x2="78.7366" y2="72.7262">
		<stop  offset="0" style="stop-color:#FFF4DA;stop-opacity:0"/>
		<stop  offset="1" style="stop-color:#D8D0BB"/>
	</linearGradient>
	<circle id="XMLID_550_" class="st8" cx="60" cy="72.7" r="18.8"/>
	<circle id="XMLID_549_" class="st9" cx="127.5" cy="62.7" r="18.8"/>
	<circle id="XMLID_548_" class="st9" cx="60" cy="62.7" r="18.8"/>
	<linearGradient id="XMLID_23_" gradientUnits="userSpaceOnUse" x1="139.9921" y1="36.1874" x2="152.4812" y2="36.1874">
		<stop  offset="0" style="stop-color:#D8D0BB"/>
		<stop  offset="1" style="stop-color:#FFF4DA;stop-opacity:0"/>
	</linearGradient>
	<path id="XMLID_547_" class="st10" d="M148.5,45.1c-6.8-6.8-7.3-17.6-1.4-24.9c-0.5,0.4-1.1,0.9-1.6,1.4c-7.3,7.3-7.3,19.2,0,26.5
		C152.8,55.4,155.3,51.9,148.5,45.1z"/>
	
		<linearGradient id="XMLID_24_" gradientUnits="userSpaceOnUse" x1="3501.7139" y1="36.1874" x2="3514.2031" y2="36.1874" gradientTransform="matrix(-1 0 0 1 3549.1951 0)">
		<stop  offset="0" style="stop-color:#D8D0BB"/>
		<stop  offset="1" style="stop-color:#FFF4DA;stop-opacity:0"/>
	</linearGradient>
	<path id="XMLID_546_" class="st11" d="M39,45.1c6.8-6.8,7.3-17.6,1.4-24.9c0.5,0.4,1.1,0.9,1.6,1.4c7.3,7.3,7.3,19.2,0,26.5
		C34.7,55.4,32.2,51.9,39,45.1z"/>
	<circle id="XMLID_545_" class="st9" cx="127.5" cy="62.7" r="18.8"/>
	<circle id="XMLID_544_" class="st9" cx="60" cy="62.7" r="18.8"/>
	<linearGradient id="XMLID_25_" gradientUnits="userSpaceOnUse" x1="93.7514" y1="105.2262" x2="93.7514" y2="99.5028">
		<stop  offset="0" style="stop-color:#D8D0BB;stop-opacity:0.5"/>
		<stop  offset="1" style="stop-color:#FFF4DA;stop-opacity:0"/>
	</linearGradient>
	<path id="XMLID_543_" class="st12" d="M88.8,99.5c0,0.2-0.1,0.5-0.1,0.7c0,2.8,2.2,5,5,5s5-2.2,5-5c0-0.2,0-0.5-0.1-0.7
		c-2.3,0.5-4.2,0.7-4.9,0.7C93,100.2,91.1,100,88.8,99.5z"/>
	<linearGradient id="XMLID_26_" gradientUnits="userSpaceOnUse" x1="93.7514" y1="162.0838" x2="93.7514" y2="118.5483">
		<stop  offset="0" style="stop-color:#FFF4DA;stop-opacity:0"/>
		<stop  offset="1" style="stop-color:#D8D0BB"/>
	</linearGradient>
	<path id="XMLID_542_" class="st13" d="M118.8,128.5c0-2.1-17.2-10-20-10c0,2.8-10,2.8-10,0c-2.8,0-20,7.9-20,10
		c0,0.9,4.5,20.8,11.7,28c7.3,7.3,19.2,7.3,26.5,0C114.2,149.3,118.8,129.4,118.8,128.5z"/>
</g>
<g id="XMLID_560_">
	<linearGradient id="XMLID_27_" gradientUnits="userSpaceOnUse" x1="361.7841" y1="61.682" x2="394.7289" y2="61.682">
		<stop  offset="0" style="stop-color:#FFF4DA;stop-opacity:0"/>
		<stop  offset="1" style="stop-color:#D8D0BB"/>
	</linearGradient>
	<path id="XMLID_579_" class="st14" d="M389.3,36.7c-7.3-7.3-32.7,39.1-26.5,45.3c7.3,7.3,19.2,7.3,26.5,0c6.1-6.1,7.1-15.5,3-22.6
		C396.4,52.2,395.4,42.8,389.3,36.7z"/>
	<linearGradient id="XMLID_28_" gradientUnits="userSpaceOnUse" x1="207.2556" y1="64.807" x2="240.2004" y2="64.807">
		<stop  offset="0" style="stop-color:#FFF4DA;stop-opacity:0"/>
		<stop  offset="1" style="stop-color:#D8D0BB"/>
	</linearGradient>
	<path id="XMLID_578_" class="st15" d="M212.7,39.8c-6.1,6.1-7.1,15.5-3,22.6c-4.2,7.2-3.2,16.5,3,22.6c7.3,7.3,19.2,7.3,26.5,0
		C245.4,78.9,220.1,32.5,212.7,39.8z"/>
	<g id="XMLID_575_">
		<linearGradient id="XMLID_29_" gradientUnits="userSpaceOnUse" x1="226.007" y1="87.4514" x2="316.007" y2="87.4514">
			<stop  offset="0" style="stop-color:#E9E0C9"/>
			<stop  offset="1" style="stop-color:#FFF4DA"/>
		</linearGradient>
		<path id="XMLID_577_" class="st16" d="M256,87.3c0-14.1,12.5-65.5,23.5-76.5c5.5-5.5,20-8.8,36.5-10.1c-26.3-2-57.8,1.4-66.5,10.1
			c-11,11-23.5,62.4-23.5,76.5c0,14.1,29.3,87.5,50,87.5c5.6,0,18.4,0,30,0C285.3,174.8,256,101.4,256,87.3z"/>
		<path id="XMLID_576_" class="st3" d="M376,87.3c0-14.1-12.5-65.5-23.5-76.5c-5.5-5.5-20-8.8-36.5-10.1
			c-16.6,1.2-31.1,4.6-36.5,10.1c-11,11-23.5,62.4-23.5,76.5c0,14.1,29.3,87.5,50,87.5c8.3,0,16,0,20,0
			C346.7,174.8,376,101.4,376,87.3z"/>
	</g>
	<linearGradient id="XMLID_30_" gradientUnits="userSpaceOnUse" x1="301.007" y1="99.9514" x2="301.007" y2="92.4514">
		<stop  offset="0" style="stop-color:#D8D0BB"/>
		<stop  offset="1" style="stop-color:#FFF4DA;stop-opacity:0"/>
	</linearGradient>
	<path id="XMLID_574_" class="st17" d="M281,92.5c0,4.1,17.3,7.5,20,7.5c2.7,0,20-3.4,20-7.5"/>
	<linearGradient id="XMLID_31_" gradientUnits="userSpaceOnUse" x1="225.9923" y1="130.3445" x2="277.0401" y2="130.3445">
		<stop  offset="0" style="stop-color:#FFF4DA;stop-opacity:0"/>
		<stop  offset="1" style="stop-color:#D8D0BB"/>
	</linearGradient>
	<path id="XMLID_573_" class="st18" d="M226,87.3c0,14.1,29.3,87.5,50,87.5C285.6,174.8,226,73.2,226,87.3z"/>
	<linearGradient id="XMLID_32_" gradientUnits="userSpaceOnUse" x1="324.9444" y1="130.3445" x2="375.9922" y2="130.3445">
		<stop  offset="0" style="stop-color:#D8D0BB"/>
		<stop  offset="1" style="stop-color:#FFF4DA;stop-opacity:0"/>
	</linearGradient>
	<path id="XMLID_572_" class="st19" d="M376,87.3c0,14.1-29.3,87.5-50,87.5C316.4,174.8,376,73.2,376,87.3z"/>
	<linearGradient id="XMLID_33_" gradientUnits="userSpaceOnUse" x1="315.9923" y1="72.4514" x2="353.4923" y2="72.4514">
		<stop  offset="0" style="stop-color:#D8D0BB"/>
		<stop  offset="1" style="stop-color:#FFF4DA;stop-opacity:0"/>
	</linearGradient>
	<circle id="XMLID_571_" class="st20" cx="334.7" cy="72.5" r="18.8"/>
	<linearGradient id="XMLID_34_" gradientUnits="userSpaceOnUse" x1="248.4923" y1="72.4514" x2="285.9923" y2="72.4514">
		<stop  offset="0" style="stop-color:#FFF4DA;stop-opacity:0"/>
		<stop  offset="1" style="stop-color:#D8D0BB"/>
	</linearGradient>
	<circle id="XMLID_570_" class="st21" cx="267.2" cy="72.5" r="18.8"/>
	<circle id="XMLID_569_" class="st9" cx="334.7" cy="62.5" r="18.8"/>
	<circle id="XMLID_568_" class="st9" cx="267.2" cy="62.5" r="18.8"/>
	<linearGradient id="XMLID_35_" gradientUnits="userSpaceOnUse" x1="347.2477" y1="35.9126" x2="359.7368" y2="35.9126">
		<stop  offset="0" style="stop-color:#D8D0BB"/>
		<stop  offset="1" style="stop-color:#FFF4DA;stop-opacity:0"/>
	</linearGradient>
	<path id="XMLID_567_" class="st22" d="M355.7,44.8c-6.8-6.8-7.3-17.6-1.4-24.9c-0.5,0.4-1.1,0.9-1.6,1.4c-7.3,7.3-7.3,19.2,0,26.5
		C360.1,55.2,362.6,51.7,355.7,44.8z"/>
	
		<linearGradient id="XMLID_36_" gradientUnits="userSpaceOnUse" x1="3294.4583" y1="35.9126" x2="3306.9475" y2="35.9126" gradientTransform="matrix(-1 0 0 1 3549.1951 0)">
		<stop  offset="0" style="stop-color:#D8D0BB"/>
		<stop  offset="1" style="stop-color:#FFF4DA;stop-opacity:0"/>
	</linearGradient>
	<path id="XMLID_566_" class="st23" d="M246.2,44.8c6.8-6.8,7.3-17.6,1.4-24.9c0.5,0.4,1.1,0.9,1.6,1.4c7.3,7.3,7.3,19.2,0,26.5
		C241.9,55.2,239.4,51.7,246.2,44.8z"/>
	<g id="XMLID_564_">
		<linearGradient id="XMLID_37_" gradientUnits="userSpaceOnUse" x1="301.007" y1="130.3445" x2="301.007" y2="118.2734">
			<stop  offset="0" style="stop-color:#FFF4DA;stop-opacity:0"/>
			<stop  offset="1" style="stop-color:#D8D0BB"/>
		</linearGradient>
		<path id="XMLID_565_" class="st24" d="M306,118.3c0,2.8-10,2.8-10,0c-2.8,0-20,7.9-20,10c0,2.8,50,2.8,50,0
			C326,126.2,308.8,118.3,306,118.3z"/>
	</g>
	<circle id="XMLID_563_" class="st9" cx="334.7" cy="62.5" r="18.8"/>
	<circle id="XMLID_562_" class="st9" cx="267.2" cy="62.5" r="18.8"/>
	<linearGradient id="XMLID_38_" gradientUnits="userSpaceOnUse" x1="301.007" y1="104.9514" x2="301.007" y2="99.228">
		<stop  offset="0" style="stop-color:#D8D0BB;stop-opacity:0.5"/>
		<stop  offset="1" style="stop-color:#FFF4DA;stop-opacity:0"/>
	</linearGradient>
	<path id="XMLID_561_" class="st25" d="M296.1,99.2c0,0.2-0.1,0.5-0.1,0.7c0,2.8,2.2,5,5,5s5-2.2,5-5c0-0.2,0-0.5-0.1-0.7
		c-2.3,0.5-4.2,0.7-4.9,0.7C300.3,100,298.4,99.7,296.1,99.2z"/>
</g>
<g id="XMLID_651_">
	<linearGradient id="XMLID_39_" gradientUnits="userSpaceOnUse" x1="1192.1917" y1="62.0938" x2="1225.1365" y2="62.0938">
		<stop  offset="0" style="stop-color:#FFF4DA;stop-opacity:0"/>
		<stop  offset="1" style="stop-color:#D8D0BB"/>
	</linearGradient>
	<path id="XMLID_670_" class="st26" d="M1219.7,37.1c-7.3-7.3-32.7,39.1-26.5,45.3c7.3,7.3,19.2,7.3,26.5,0c6.1-6.1,7.1-15.5,3-22.6
		C1226.8,52.6,1225.8,43.2,1219.7,37.1z"/>
	<linearGradient id="XMLID_40_" gradientUnits="userSpaceOnUse" x1="1037.6632" y1="65.2188" x2="1070.6079" y2="65.2188">
		<stop  offset="0" style="stop-color:#FFF4DA;stop-opacity:0"/>
		<stop  offset="1" style="stop-color:#D8D0BB"/>
	</linearGradient>
	<path id="XMLID_669_" class="st27" d="M1043.1,40.2c-6.1,6.1-7.1,15.5-3,22.6c-4.2,7.2-3.2,16.5,3,22.6c7.3,7.3,19.2,7.3,26.5,0
		C1075.8,79.4,1050.5,32.9,1043.1,40.2z"/>
	<g id="XMLID_666_">
		<linearGradient id="XMLID_41_" gradientUnits="userSpaceOnUse" x1="1056.4146" y1="87.8632" x2="1146.4146" y2="87.8632">
			<stop  offset="0" style="stop-color:#E9E0C9"/>
			<stop  offset="1" style="stop-color:#FFF4DA"/>
		</linearGradient>
		<path id="XMLID_668_" class="st28" d="M1086.4,87.7c0-14.1,12.5-65.5,23.5-76.5c5.5-5.5,20-8.8,36.5-10.1
			c-26.3-2-57.8,1.4-66.5,10.1c-11,11-23.5,62.4-23.5,76.5c0,14.1,29.3,87.5,50,87.5c5.6,0,18.4,0,30,0
			C1115.7,175.2,1086.4,101.8,1086.4,87.7z"/>
		<path id="XMLID_667_" class="st3" d="M1206.4,87.7c0-14.1-12.5-65.5-23.5-76.5c-5.5-5.5-20-8.8-36.5-10.1
			c-16.6,1.2-31.1,4.6-36.5,10.1c-11,11-23.5,62.4-23.5,76.5c0,14.1,29.3,87.5,50,87.5c8.3,0,16,0,20,0
			C1177.1,175.2,1206.4,101.8,1206.4,87.7z"/>
	</g>
	<linearGradient id="XMLID_42_" gradientUnits="userSpaceOnUse" x1="1131.4146" y1="100.3632" x2="1131.4146" y2="92.8632">
		<stop  offset="0" style="stop-color:#D8D0BB"/>
		<stop  offset="1" style="stop-color:#FFF4DA;stop-opacity:0"/>
	</linearGradient>
	<path id="XMLID_665_" class="st29" d="M1111.4,92.9c0,4.1,17.3,7.5,20,7.5c2.7,0,20-3.4,20-7.5"/>
	<linearGradient id="XMLID_43_" gradientUnits="userSpaceOnUse" x1="1056.3999" y1="130.7563" x2="1107.4476" y2="130.7563">
		<stop  offset="0" style="stop-color:#FFF4DA;stop-opacity:0"/>
		<stop  offset="1" style="stop-color:#D8D0BB"/>
	</linearGradient>
	<path id="XMLID_664_" class="st30" d="M1056.4,87.7c0,14.1,29.3,87.5,50,87.5C1116,175.2,1056.4,73.6,1056.4,87.7z"/>
	<linearGradient id="XMLID_44_" gradientUnits="userSpaceOnUse" x1="1155.3519" y1="130.7563" x2="1206.3998" y2="130.7563">
		<stop  offset="0" style="stop-color:#D8D0BB"/>
		<stop  offset="1" style="stop-color:#FFF4DA;stop-opacity:0"/>
	</linearGradient>
	<path id="XMLID_663_" class="st31" d="M1206.4,87.7c0,14.1-29.3,87.5-50,87.5C1146.8,175.2,1206.4,73.6,1206.4,87.7z"/>
	<linearGradient id="XMLID_45_" gradientUnits="userSpaceOnUse" x1="1146.3998" y1="72.8632" x2="1183.8998" y2="72.8632">
		<stop  offset="0" style="stop-color:#D8D0BB"/>
		<stop  offset="1" style="stop-color:#FFF4DA;stop-opacity:0"/>
	</linearGradient>
	<circle id="XMLID_662_" class="st32" cx="1165.1" cy="72.9" r="18.8"/>
	<linearGradient id="XMLID_46_" gradientUnits="userSpaceOnUse" x1="1078.8998" y1="72.8632" x2="1116.3998" y2="72.8632">
		<stop  offset="0" style="stop-color:#FFF4DA;stop-opacity:0"/>
		<stop  offset="1" style="stop-color:#D8D0BB"/>
	</linearGradient>
	<circle id="XMLID_661_" class="st33" cx="1097.6" cy="72.9" r="18.8"/>
	<circle id="XMLID_660_" class="st3" cx="1165.1" cy="62.9" r="18.8"/>
	<circle id="XMLID_659_" class="st3" cx="1097.6" cy="62.9" r="18.8"/>
	<linearGradient id="XMLID_47_" gradientUnits="userSpaceOnUse" x1="1177.6553" y1="36.3244" x2="1190.1444" y2="36.3244">
		<stop  offset="0" style="stop-color:#D8D0BB"/>
		<stop  offset="1" style="stop-color:#FFF4DA;stop-opacity:0"/>
	</linearGradient>
	<path id="XMLID_658_" class="st34" d="M1186.1,45.3c-6.8-6.8-7.3-17.6-1.4-24.9c-0.5,0.4-1.1,0.9-1.6,1.4c-7.3,7.3-7.3,19.2,0,26.5
		C1190.5,55.6,1193,52.1,1186.1,45.3z"/>
	
		<linearGradient id="XMLID_48_" gradientUnits="userSpaceOnUse" x1="2464.0508" y1="36.3244" x2="2476.5398" y2="36.3244" gradientTransform="matrix(-1 0 0 1 3549.1951 0)">
		<stop  offset="0" style="stop-color:#D8D0BB"/>
		<stop  offset="1" style="stop-color:#FFF4DA;stop-opacity:0"/>
	</linearGradient>
	<path id="XMLID_657_" class="st35" d="M1076.7,45.3c6.8-6.8,7.3-17.6,1.4-24.9c0.5,0.4,1.1,0.9,1.6,1.4c7.3,7.3,7.3,19.2,0,26.5
		C1072.3,55.6,1069.8,52.1,1076.7,45.3z"/>
	<g id="XMLID_655_">
		<linearGradient id="XMLID_49_" gradientUnits="userSpaceOnUse" x1="1131.4146" y1="130.7563" x2="1131.4146" y2="118.6852">
			<stop  offset="0" style="stop-color:#FFF4DA;stop-opacity:0"/>
			<stop  offset="1" style="stop-color:#D8D0BB"/>
		</linearGradient>
		<path id="XMLID_656_" class="st36" d="M1136.4,118.7c0,2.8-10,2.8-10,0c-2.8,0-20,7.9-20,10c0,2.8,50,2.8,50,0
			C1156.4,126.6,1139.2,118.7,1136.4,118.7z"/>
	</g>
	<linearGradient id="XMLID_50_" gradientUnits="userSpaceOnUse" x1="1131.4146" y1="105.3632" x2="1131.4146" y2="99.6397">
		<stop  offset="0" style="stop-color:#D8D0BB;stop-opacity:0.5"/>
		<stop  offset="1" style="stop-color:#FFF4DA;stop-opacity:0"/>
	</linearGradient>
	<path id="XMLID_654_" class="st37" d="M1126.5,99.6c0,0.2-0.1,0.5-0.1,0.7c0,2.8,2.2,5,5,5s5-2.2,5-5c0-0.2,0-0.5-0.1-0.7
		c-2.3,0.5-4.2,0.7-4.9,0.7C1130.7,100.4,1128.8,100.1,1126.5,99.6z"/>
	<path id="XMLID_653_" class="st9" d="M1178.4,76.1c-7.3,7.3-19.2,7.3-26.5,0C1144.6,68.8,1185.7,68.8,1178.4,76.1z"/>
	<path id="XMLID_652_" class="st9" d="M1110.9,76.1c-7.3,7.3-19.2,7.3-26.5,0C1077.1,68.8,1118.2,68.8,1110.9,76.1z"/>
</g>
<g id="XMLID_628_">
	<g id="XMLID_631_">
		<linearGradient id="XMLID_51_" gradientUnits="userSpaceOnUse" x1="984.7037" y1="61.8189" x2="1017.6484" y2="61.8189">
			<stop  offset="0" style="stop-color:#FFF4DA;stop-opacity:0"/>
			<stop  offset="1" style="stop-color:#D8D0BB"/>
		</linearGradient>
		<path id="XMLID_650_" class="st38" d="M1012.2,36.8c-7.3-7.3-32.7,39.1-26.5,45.3c7.3,7.3,19.2,7.3,26.5,0
			c6.1-6.1,7.1-15.5,3-22.6C1019.3,52.3,1018.3,43,1012.2,36.8z"/>
		<linearGradient id="XMLID_52_" gradientUnits="userSpaceOnUse" x1="830.1752" y1="64.9439" x2="863.1199" y2="64.9439">
			<stop  offset="0" style="stop-color:#FFF4DA;stop-opacity:0"/>
			<stop  offset="1" style="stop-color:#D8D0BB"/>
		</linearGradient>
		<path id="XMLID_649_" class="st39" d="M835.7,40c-6.1,6.1-7.1,15.5-3,22.6c-4.2,7.2-3.2,16.5,3,22.6c7.3,7.3,19.2,7.3,26.5,0
			C868.3,79.1,843,32.6,835.7,40z"/>
		<g id="XMLID_646_">
			<linearGradient id="XMLID_53_" gradientUnits="userSpaceOnUse" x1="848.9266" y1="87.5883" x2="938.9266" y2="87.5883">
				<stop  offset="0" style="stop-color:#E9E0C9"/>
				<stop  offset="1" style="stop-color:#FFF4DA"/>
			</linearGradient>
			<path id="XMLID_648_" class="st40" d="M878.9,87.4c0-14.1,12.5-65.5,23.5-76.5c5.5-5.5,20-8.8,36.5-10.1
				c-26.3-2-57.8,1.4-66.5,10.1c-11,11-23.5,62.4-23.5,76.5c0,14.1,29.3,87.5,50,87.5c5.6,0,18.4,0,30,0
				C908.2,174.9,878.9,101.5,878.9,87.4z"/>
			<path id="XMLID_647_" class="st3" d="M998.9,87.4c0-14.1-12.5-65.5-23.5-76.5c-5.5-5.5-20-8.8-36.5-10.1
				c-16.6,1.2-31.1,4.6-36.5,10.1c-11,11-23.5,62.4-23.5,76.5c0,14.1,29.3,87.5,50,87.5c8.3,0,16,0,20,0
				C969.6,174.9,998.9,101.5,998.9,87.4z"/>
		</g>
		<linearGradient id="XMLID_54_" gradientUnits="userSpaceOnUse" x1="923.9266" y1="100.0884" x2="923.9266" y2="92.5884">
			<stop  offset="0" style="stop-color:#D8D0BB"/>
			<stop  offset="1" style="stop-color:#FFF4DA;stop-opacity:0"/>
		</linearGradient>
		<path id="XMLID_645_" class="st41" d="M903.9,92.6c0,4.1,17.3,7.5,20,7.5c2.7,0,20-3.4,20-7.5"/>
		<linearGradient id="XMLID_55_" gradientUnits="userSpaceOnUse" x1="848.9118" y1="130.4814" x2="899.9597" y2="130.4814">
			<stop  offset="0" style="stop-color:#FFF4DA;stop-opacity:0"/>
			<stop  offset="1" style="stop-color:#D8D0BB"/>
		</linearGradient>
		<path id="XMLID_644_" class="st42" d="M848.9,87.4c0,14.1,29.3,87.5,50,87.5C908.5,174.9,848.9,73.3,848.9,87.4z"/>
		<linearGradient id="XMLID_56_" gradientUnits="userSpaceOnUse" x1="947.864" y1="130.4814" x2="998.9117" y2="130.4814">
			<stop  offset="0" style="stop-color:#D8D0BB"/>
			<stop  offset="1" style="stop-color:#FFF4DA;stop-opacity:0"/>
		</linearGradient>
		<path id="XMLID_643_" class="st43" d="M998.9,87.4c0,14.1-29.3,87.5-50,87.5C939.3,174.9,998.9,73.3,998.9,87.4z"/>
		<linearGradient id="XMLID_57_" gradientUnits="userSpaceOnUse" x1="938.9118" y1="72.5883" x2="976.4118" y2="72.5883">
			<stop  offset="0" style="stop-color:#D8D0BB"/>
			<stop  offset="1" style="stop-color:#FFF4DA;stop-opacity:0"/>
		</linearGradient>
		<circle id="XMLID_642_" class="st44" cx="957.7" cy="72.6" r="18.8"/>
		<linearGradient id="XMLID_58_" gradientUnits="userSpaceOnUse" x1="871.4118" y1="72.5883" x2="908.9118" y2="72.5883">
			<stop  offset="0" style="stop-color:#FFF4DA;stop-opacity:0"/>
			<stop  offset="1" style="stop-color:#D8D0BB"/>
		</linearGradient>
		<circle id="XMLID_641_" class="st45" cx="890.2" cy="72.6" r="18.8"/>
		<circle id="XMLID_640_" class="st9" cx="957.7" cy="62.6" r="18.8"/>
		<circle id="XMLID_639_" class="st9" cx="890.2" cy="62.6" r="18.8"/>
		<linearGradient id="XMLID_59_" gradientUnits="userSpaceOnUse" x1="970.1672" y1="36.0495" x2="982.6564" y2="36.0495">
			<stop  offset="0" style="stop-color:#D8D0BB"/>
			<stop  offset="1" style="stop-color:#FFF4DA;stop-opacity:0"/>
		</linearGradient>
		<path id="XMLID_638_" class="st46" d="M978.7,45c-6.8-6.8-7.3-17.6-1.4-24.9c-0.5,0.4-1.1,0.9-1.6,1.4c-7.3,7.3-7.3,19.2,0,26.5
			C983,55.3,985.5,51.8,978.7,45z"/>
		
			<linearGradient id="XMLID_60_" gradientUnits="userSpaceOnUse" x1="2671.5388" y1="36.0495" x2="2684.0278" y2="36.0495" gradientTransform="matrix(-1 0 0 1 3549.1951 0)">
			<stop  offset="0" style="stop-color:#D8D0BB"/>
			<stop  offset="1" style="stop-color:#FFF4DA;stop-opacity:0"/>
		</linearGradient>
		<path id="XMLID_637_" class="st47" d="M869.2,45c6.8-6.8,7.3-17.6,1.4-24.9c0.5,0.4,1.1,0.9,1.6,1.4c7.3,7.3,7.3,19.2,0,26.5
			C864.8,55.3,862.4,51.8,869.2,45z"/>
		<g id="XMLID_635_">
			<linearGradient id="XMLID_61_" gradientUnits="userSpaceOnUse" x1="923.9266" y1="130.4814" x2="923.9266" y2="118.4104">
				<stop  offset="0" style="stop-color:#FFF4DA;stop-opacity:0"/>
				<stop  offset="1" style="stop-color:#D8D0BB"/>
			</linearGradient>
			<path id="XMLID_636_" class="st48" d="M928.9,118.4c0,2.8-10,2.8-10,0c-2.8,0-20,7.9-20,10c0,2.8,50,2.8,50,0
				C948.9,126.4,931.7,118.4,928.9,118.4z"/>
		</g>
		<circle id="XMLID_634_" class="st9" cx="957.7" cy="62.6" r="18.8"/>
		<circle id="XMLID_633_" class="st9" cx="890.2" cy="62.6" r="18.8"/>
		<linearGradient id="XMLID_62_" gradientUnits="userSpaceOnUse" x1="923.9266" y1="105.0884" x2="923.9266" y2="99.3649">
			<stop  offset="0" style="stop-color:#D8D0BB;stop-opacity:0.5"/>
			<stop  offset="1" style="stop-color:#FFF4DA;stop-opacity:0"/>
		</linearGradient>
		<path id="XMLID_632_" class="st49" d="M919,99.4c0,0.2-0.1,0.5-0.1,0.7c0,2.8,2.2,5,5,5s5-2.2,5-5c0-0.2,0-0.5-0.1-0.7
			c-2.3,0.5-4.2,0.7-4.9,0.7C923.2,100.1,921.3,99.8,919,99.4z"/>
	</g>
	<path id="XMLID_630_" class="st3" d="M957.7,43.8c10.4,0,18.8,8.4,18.8,18.8s-37.5,10.4-37.5,0S947.3,43.8,957.7,43.8z"/>
	<path id="XMLID_629_" class="st3" d="M890.2,43.8c10.4,0,18.8,8.4,18.8,18.8s-37.5,10.4-37.5,0S879.8,43.8,890.2,43.8z"/>
</g>
<g id="XMLID_605_">
	<g id="XMLID_608_">
		<linearGradient id="XMLID_63_" gradientUnits="userSpaceOnUse" x1="569.2574" y1="61.5446" x2="602.2021" y2="61.5446">
			<stop  offset="0" style="stop-color:#FFF4DA;stop-opacity:0"/>
			<stop  offset="1" style="stop-color:#D8D0BB"/>
		</linearGradient>
		<path id="XMLID_627_" class="st50" d="M596.7,36.6c-7.3-7.3-32.7,39.1-26.5,45.3c7.3,7.3,19.2,7.3,26.5,0c6.1-6.1,7.1-15.5,3-22.6
			C603.8,52,602.9,42.7,596.7,36.6z"/>
		<linearGradient id="XMLID_64_" gradientUnits="userSpaceOnUse" x1="414.7289" y1="64.6696" x2="447.6737" y2="64.6696">
			<stop  offset="0" style="stop-color:#FFF4DA;stop-opacity:0"/>
			<stop  offset="1" style="stop-color:#D8D0BB"/>
		</linearGradient>
		<path id="XMLID_626_" class="st51" d="M420.2,39.7c-6.1,6.1-7.1,15.5-3,22.6c-4.2,7.2-3.2,16.5,3,22.6c7.3,7.3,19.2,7.3,26.5,0
			C452.9,78.8,427.5,32.4,420.2,39.7z"/>
		<g id="XMLID_623_">
			<linearGradient id="XMLID_65_" gradientUnits="userSpaceOnUse" x1="433.4803" y1="87.314" x2="523.4803" y2="87.314">
				<stop  offset="0" style="stop-color:#E9E0C9"/>
				<stop  offset="1" style="stop-color:#FFF4DA"/>
			</linearGradient>
			<path id="XMLID_625_" class="st52" d="M463.5,87.1c0-14.1,12.5-65.5,23.5-76.5c5.5-5.5,20-8.8,36.5-10.1
				c-26.3-2-57.8,1.4-66.5,10.1c-11,11-23.5,62.4-23.5,76.5c0,14.1,29.3,87.5,50,87.5c5.6,0,18.4,0,30,0
				C492.8,174.6,463.5,101.2,463.5,87.1z"/>
			<path id="XMLID_624_" class="st3" d="M583.5,87.1c0-14.1-12.5-65.5-23.5-76.5c-5.5-5.5-20-8.8-36.5-10.1
				c-16.6,1.2-31.1,4.6-36.5,10.1c-11,11-23.5,62.4-23.5,76.5c0,14.1,29.3,87.5,50,87.5c8.3,0,16,0,20,0
				C554.2,174.6,583.5,101.2,583.5,87.1z"/>
		</g>
		<linearGradient id="XMLID_66_" gradientUnits="userSpaceOnUse" x1="508.4803" y1="99.814" x2="508.4803" y2="92.314">
			<stop  offset="0" style="stop-color:#D8D0BB"/>
			<stop  offset="1" style="stop-color:#FFF4DA;stop-opacity:0"/>
		</linearGradient>
		<path id="XMLID_622_" class="st53" d="M488.5,92.3c0,4.1,17.3,7.5,20,7.5c2.7,0,20-3.4,20-7.5"/>
		<linearGradient id="XMLID_67_" gradientUnits="userSpaceOnUse" x1="433.4656" y1="130.2071" x2="484.5134" y2="130.2071">
			<stop  offset="0" style="stop-color:#FFF4DA;stop-opacity:0"/>
			<stop  offset="1" style="stop-color:#D8D0BB"/>
		</linearGradient>
		<path id="XMLID_621_" class="st54" d="M433.5,87.1c0,14.1,29.3,87.5,50,87.5C493.1,174.6,433.5,73,433.5,87.1z"/>
		<linearGradient id="XMLID_68_" gradientUnits="userSpaceOnUse" x1="532.4177" y1="130.2071" x2="583.4655" y2="130.2071">
			<stop  offset="0" style="stop-color:#D8D0BB"/>
			<stop  offset="1" style="stop-color:#FFF4DA;stop-opacity:0"/>
		</linearGradient>
		<path id="XMLID_620_" class="st55" d="M583.5,87.1c0,14.1-29.3,87.5-50,87.5C523.9,174.6,583.5,73,583.5,87.1z"/>
		<linearGradient id="XMLID_69_" gradientUnits="userSpaceOnUse" x1="523.4656" y1="72.314" x2="560.9656" y2="72.314">
			<stop  offset="0" style="stop-color:#D8D0BB"/>
			<stop  offset="1" style="stop-color:#FFF4DA;stop-opacity:0"/>
		</linearGradient>
		<circle id="XMLID_619_" class="st56" cx="542.2" cy="72.3" r="18.8"/>
		<linearGradient id="XMLID_70_" gradientUnits="userSpaceOnUse" x1="455.9655" y1="72.314" x2="493.4655" y2="72.314">
			<stop  offset="0" style="stop-color:#FFF4DA;stop-opacity:0"/>
			<stop  offset="1" style="stop-color:#D8D0BB"/>
		</linearGradient>
		<circle id="XMLID_618_" class="st57" cx="474.7" cy="72.3" r="18.8"/>
		<circle id="XMLID_617_" class="st9" cx="542.2" cy="62.3" r="18.8"/>
		<circle id="XMLID_616_" class="st9" cx="474.7" cy="62.3" r="18.8"/>
		<linearGradient id="XMLID_71_" gradientUnits="userSpaceOnUse" x1="554.721" y1="35.7752" x2="567.2101" y2="35.7752">
			<stop  offset="0" style="stop-color:#D8D0BB"/>
			<stop  offset="1" style="stop-color:#FFF4DA;stop-opacity:0"/>
		</linearGradient>
		<path id="XMLID_615_" class="st58" d="M563.2,44.7c-6.8-6.8-7.3-17.6-1.4-24.9c-0.5,0.4-1.1,0.9-1.6,1.4c-7.3,7.3-7.3,19.2,0,26.5
			C567.5,55,570,51.5,563.2,44.7z"/>
		
			<linearGradient id="XMLID_72_" gradientUnits="userSpaceOnUse" x1="3086.9851" y1="35.7752" x2="3099.4741" y2="35.7752" gradientTransform="matrix(-1 0 0 1 3549.1951 0)">
			<stop  offset="0" style="stop-color:#D8D0BB"/>
			<stop  offset="1" style="stop-color:#FFF4DA;stop-opacity:0"/>
		</linearGradient>
		<path id="XMLID_614_" class="st59" d="M453.7,44.7c6.8-6.8,7.3-17.6,1.4-24.9c0.5,0.4,1.1,0.9,1.6,1.4c7.3,7.3,7.3,19.2,0,26.5
			C449.4,55,446.9,51.5,453.7,44.7z"/>
		<g id="XMLID_612_">
			<linearGradient id="XMLID_73_" gradientUnits="userSpaceOnUse" x1="508.4803" y1="130.2071" x2="508.4803" y2="118.136">
				<stop  offset="0" style="stop-color:#FFF4DA;stop-opacity:0"/>
				<stop  offset="1" style="stop-color:#D8D0BB"/>
			</linearGradient>
			<path id="XMLID_613_" class="st60" d="M513.5,118.1c0,2.8-10,2.8-10,0c-2.8,0-20,7.9-20,10c0,2.8,50,2.8,50,0
				C533.5,126.1,516.2,118.1,513.5,118.1z"/>
		</g>
		<circle id="XMLID_611_" class="st9" cx="542.2" cy="62.3" r="18.8"/>
		<circle id="XMLID_610_" class="st9" cx="474.7" cy="62.3" r="18.8"/>
		<linearGradient id="XMLID_74_" gradientUnits="userSpaceOnUse" x1="508.4803" y1="104.814" x2="508.4803" y2="99.0906">
			<stop  offset="0" style="stop-color:#D8D0BB;stop-opacity:0.5"/>
			<stop  offset="1" style="stop-color:#FFF4DA;stop-opacity:0"/>
		</linearGradient>
		<path id="XMLID_609_" class="st61" d="M503.6,99.1c0,0.2-0.1,0.5-0.1,0.7c0,2.8,2.2,5,5,5s5-2.2,5-5c0-0.2,0-0.5-0.1-0.7
			c-2.3,0.5-4.2,0.7-4.9,0.7C507.7,99.8,505.9,99.6,503.6,99.1z"/>
	</g>
	<path id="XMLID_607_" class="st3" d="M555.5,49.1c7.3,7.3-33.8,7.3-26.5,0S548.2,41.7,555.5,49.1z"/>
	<path id="XMLID_606_" class="st3" d="M488,49.1c7.3,7.3-33.8,7.3-26.5,0C468.8,41.7,480.7,41.7,488,49.1z"/>
</g>
<g id="XMLID_580_">
	<linearGradient id="XMLID_75_" gradientUnits="userSpaceOnUse" x1="776.7454" y1="61.5441" x2="809.6902" y2="61.5441">
		<stop  offset="0" style="stop-color:#FFF4DA;stop-opacity:0"/>
		<stop  offset="1" style="stop-color:#D8D0BB"/>
	</linearGradient>
	<path id="XMLID_604_" class="st62" d="M804.2,36.6c-7.3-7.3-32.7,39.1-26.5,45.3c7.3,7.3,19.2,7.3,26.5,0c6.1-6.1,7.1-15.5,3-22.6
		C811.3,52,810.3,42.7,804.2,36.6z"/>
	<linearGradient id="XMLID_76_" gradientUnits="userSpaceOnUse" x1="622.2169" y1="64.6691" x2="655.1617" y2="64.6691">
		<stop  offset="0" style="stop-color:#FFF4DA;stop-opacity:0"/>
		<stop  offset="1" style="stop-color:#D8D0BB"/>
	</linearGradient>
	<path id="XMLID_603_" class="st63" d="M627.7,39.7c-6.1,6.1-7.1,15.5-3,22.6c-4.2,7.2-3.2,16.5,3,22.6c7.3,7.3,19.2,7.3,26.5,0
		C660.3,78.8,635,32.4,627.7,39.7z"/>
	<g id="XMLID_597_">
		<linearGradient id="XMLID_77_" gradientUnits="userSpaceOnUse" x1="640.9683" y1="87.3135" x2="730.9683" y2="87.3135">
			<stop  offset="0" style="stop-color:#E9E0C9"/>
			<stop  offset="1" style="stop-color:#FFF4DA"/>
		</linearGradient>
		<path id="XMLID_599_" class="st64" d="M671,87.1c0-14.1,12.5-65.5,23.5-76.5c5.5-5.5,20-8.8,36.5-10.1c-26.3-2-57.8,1.4-66.5,10.1
			c-11,11-23.5,62.4-23.5,76.5c0,14.1,29.3,87.5,50,87.5c5.6,0,18.4,0,30,0C700.3,174.6,671,101.2,671,87.1z"/>
		<path id="XMLID_598_" class="st3" d="M791,87.1c0-14.1-12.5-65.5-23.5-76.5c-5.5-5.5-20-8.8-36.5-10.1
			c-16.6,1.2-31.1,4.6-36.5,10.1c-11,11-23.5,62.4-23.5,76.5c0,14.1,29.3,87.5,50,87.5c8.3,0,16,0,20,0
			C761.7,174.6,791,101.2,791,87.1z"/>
	</g>
	<linearGradient id="XMLID_78_" gradientUnits="userSpaceOnUse" x1="715.9683" y1="99.8135" x2="715.9683" y2="92.3135">
		<stop  offset="0" style="stop-color:#D8D0BB"/>
		<stop  offset="1" style="stop-color:#FFF4DA;stop-opacity:0"/>
	</linearGradient>
	<path id="XMLID_596_" class="st65" d="M696,92.3c0,4.1,17.3,7.5,20,7.5c2.7,0,20-3.4,20-7.5"/>
	<linearGradient id="XMLID_79_" gradientUnits="userSpaceOnUse" x1="640.9536" y1="130.2066" x2="692.0014" y2="130.2066">
		<stop  offset="0" style="stop-color:#FFF4DA;stop-opacity:0"/>
		<stop  offset="1" style="stop-color:#D8D0BB"/>
	</linearGradient>
	<path id="XMLID_595_" class="st66" d="M641,87.1c0,14.1,29.3,87.5,50,87.5C700.6,174.6,641,73,641,87.1z"/>
	<linearGradient id="XMLID_80_" gradientUnits="userSpaceOnUse" x1="739.9057" y1="130.2066" x2="790.9536" y2="130.2066">
		<stop  offset="0" style="stop-color:#D8D0BB"/>
		<stop  offset="1" style="stop-color:#FFF4DA;stop-opacity:0"/>
	</linearGradient>
	<path id="XMLID_594_" class="st67" d="M791,87.1c0,14.1-29.3,87.5-50,87.5C731.3,174.6,791,73,791,87.1z"/>
	<linearGradient id="XMLID_81_" gradientUnits="userSpaceOnUse" x1="730.9536" y1="72.3135" x2="768.4536" y2="72.3135">
		<stop  offset="0" style="stop-color:#D8D0BB"/>
		<stop  offset="1" style="stop-color:#FFF4DA;stop-opacity:0"/>
	</linearGradient>
	<circle id="XMLID_593_" class="st68" cx="749.7" cy="72.3" r="18.8"/>
	<linearGradient id="XMLID_82_" gradientUnits="userSpaceOnUse" x1="663.4536" y1="72.3135" x2="700.9536" y2="72.3135">
		<stop  offset="0" style="stop-color:#FFF4DA;stop-opacity:0"/>
		<stop  offset="1" style="stop-color:#D8D0BB"/>
	</linearGradient>
	<circle id="XMLID_592_" class="st69" cx="682.2" cy="72.3" r="18.8"/>
	<circle id="XMLID_591_" class="st9" cx="749.7" cy="62.3" r="18.8"/>
	<circle id="XMLID_590_" class="st9" cx="682.2" cy="62.3" r="18.8"/>
	<linearGradient id="XMLID_83_" gradientUnits="userSpaceOnUse" x1="762.209" y1="35.7747" x2="774.6981" y2="35.7747">
		<stop  offset="0" style="stop-color:#D8D0BB"/>
		<stop  offset="1" style="stop-color:#FFF4DA;stop-opacity:0"/>
	</linearGradient>
	<path id="XMLID_589_" class="st70" d="M770.7,44.7c-6.8-6.8-7.3-17.6-1.4-24.9c-0.5,0.4-1.1,0.9-1.6,1.4c-7.3,7.3-7.3,19.2,0,26.5
		C775,55,777.5,51.5,770.7,44.7z"/>
	
		<linearGradient id="XMLID_84_" gradientUnits="userSpaceOnUse" x1="2879.4971" y1="35.7747" x2="2891.9861" y2="35.7747" gradientTransform="matrix(-1 0 0 1 3549.1951 0)">
		<stop  offset="0" style="stop-color:#D8D0BB"/>
		<stop  offset="1" style="stop-color:#FFF4DA;stop-opacity:0"/>
	</linearGradient>
	<path id="XMLID_588_" class="st71" d="M661.2,44.7c6.8-6.8,7.3-17.6,1.4-24.9c0.5,0.4,1.1,0.9,1.6,1.4c7.3,7.3,7.3,19.2,0,26.5
		C656.9,55,654.4,51.5,661.2,44.7z"/>
	<g id="XMLID_586_">
		<linearGradient id="XMLID_85_" gradientUnits="userSpaceOnUse" x1="715.9683" y1="130.2066" x2="715.9683" y2="118.1356">
			<stop  offset="0" style="stop-color:#FFF4DA;stop-opacity:0"/>
			<stop  offset="1" style="stop-color:#D8D0BB"/>
		</linearGradient>
		<path id="XMLID_587_" class="st72" d="M721,118.1c0,2.8-10,2.8-10,0c-2.8,0-20,7.9-20,10c0,2.8,50,2.8,50,0
			C741,126.1,723.7,118.1,721,118.1z"/>
	</g>
	<circle id="XMLID_585_" class="st3" cx="749.7" cy="62.3" r="18.8"/>
	<circle id="XMLID_584_" class="st3" cx="682.2" cy="62.3" r="18.8"/>
	<linearGradient id="XMLID_86_" gradientUnits="userSpaceOnUse" x1="715.9683" y1="104.8135" x2="715.9683" y2="99.0901">
		<stop  offset="0" style="stop-color:#D8D0BB;stop-opacity:0.5"/>
		<stop  offset="1" style="stop-color:#FFF4DA;stop-opacity:0"/>
	</linearGradient>
	<path id="XMLID_583_" class="st73" d="M711,99.1c0,0.2-0.1,0.5-0.1,0.7c0,2.8,2.2,5,5,5s5-2.2,5-5c0-0.2,0-0.5-0.1-0.7
		c-2.3,0.5-4.2,0.7-4.9,0.7C715.2,99.8,713.4,99.6,711,99.1z"/>
	<path id="XMLID_582_" class="st9" d="M749.7,81.1c10.4,0,18.8-8.4,18.8-18.8S731,52,731,62.3S739.4,81.1,749.7,81.1z"/>
	<path id="XMLID_581_" class="st9" d="M682.2,81.1c10.4,0,18.8-8.4,18.8-18.8s-37.5-10.4-37.5,0S671.9,81.1,682.2,81.1z"/>
</g>
</svg>
