<?xml version="1.0" encoding="utf-8"?>
<!-- Generator: Adobe Illustrator 19.0.0, SVG Export Plug-In . SVG Version: 6.00 Build 0)  -->
<svg version="1.1" id="Layer_1" xmlns="http://www.w3.org/2000/svg" xmlns:xlink="http://www.w3.org/1999/xlink" x="0px" y="0px"
	 viewBox="0 0 528 428" style="enable-background:new 0 0 528 428;" xml:space="preserve">
<style type="text/css">
	.st0{fill:#FAF8FB;stroke:#713078;stroke-width:3;stroke-miterlimit:10;}
</style>
<path id="XMLID_4683_" class="st0" d="M1.5,414c0,6.9,5.6,12.5,12.5,12.5c6.9,0,493.1,0,500,0c6.9,0,12.5-5.6,12.5-12.5
	c0-1.7,0-26.3,0-62.5H1.5C1.5,387.7,1.5,412.3,1.5,414z"/>
<path id="XMLID_4682_" class="st0" d="M514,1.5c-6.9,0-493.1,0-500,0C7.1,1.5,1.5,7.1,1.5,14c0,5.2,0,226.3,0,337.5h525
	c0-111.2,0-332.3,0-337.5C526.5,7.1,520.9,1.5,514,1.5z"/>
<rect id="XMLID_4681_" x="26.5" y="26.5" class="st0" width="475" height="300"/>
<circle id="XMLID_4690_" class="st0" cx="264" cy="389" r="12.5"/>
<rect id="XMLID_4694_" x="26.5" y="26.5" class="st0" width="475" height="25"/>
<path id="XMLID_4698_" class="st0" d="M101.5,51.5c0-6.9-5.6-12.5-12.5-12.5c-2.3,0-10.2,0-12.5,0c-2.3,0-10.2,0-12.5,0
	c-2.3,0-10.2,0-12.5,0C44.6,39,39,44.6,39,51.5H26.5v25h475v-25H101.5z"/>
<circle id="XMLID_4695_" class="st0" cx="45.3" cy="64" r="6.2"/>
<circle id="XMLID_4697_" class="st0" cx="70.3" cy="64" r="6.2"/>
<circle id="XMLID_4699_" class="st0" cx="95.3" cy="64" r="6.2"/>
<rect id="XMLID_4700_" x="26.5" y="76.5" class="st0" width="75" height="250"/>
</svg>
