<?xml version="1.0" encoding="utf-8"?>
<!-- Generator: Adobe Illustrator 19.0.0, SVG Export Plug-In . SVG Version: 6.00 Build 0)  -->
<svg version="1.1" id="Layer_1" xmlns="http://www.w3.org/2000/svg" xmlns:xlink="http://www.w3.org/1999/xlink" x="0px" y="0px"
	 viewBox="0 0 328 578" style="enable-background:new 0 0 328 578;" xml:space="preserve">
<style type="text/css">
	.st0{fill:#FAF8FB;stroke:#713078;stroke-width:3;stroke-miterlimit:10;}
</style>
<path id="XMLID_4689_" class="st0" d="M326.5,14c0-6.9-5.6-12.5-12.5-12.5c-6.9,0-293.1,0-300,0C7.1,1.5,1.5,7.1,1.5,14
	s0,543.1,0,550s5.6,12.5,12.5,12.5c6.9,0,293.1,0,300,0c6.9,0,12.5-5.6,12.5-12.5S326.5,20.9,326.5,14z"/>
<rect id="XMLID_4685_" x="26.5" y="64" class="st0" width="275" height="450"/>
<circle id="XMLID_4686_" class="st0" cx="164" cy="539" r="12.5"/>
<circle id="XMLID_4691_" class="st0" cx="164" cy="20.2" r="6.2"/>
<path id="XMLID_4696_" class="st0" d="M214,39c-1.4,0-28.3,0-50,0s-48.6,0-50,0c-1.7,0-3.1,1.4-3.1,3.1s1.4,3.1,3.1,3.1
	c1.4,0,28.3,0,50,0s48.6,0,50,0c1.7,0,3.1-1.4,3.1-3.1S215.7,39,214,39z"/>
<rect id="XMLID_4692_" x="26.5" y="64" class="st0" width="275" height="25"/>
</svg>
