<?xml version="1.0" encoding="utf-8"?>
<!-- Generator: Adobe Illustrator 19.0.0, SVG Export Plug-In . SVG Version: 6.00 Build 0)  -->
<svg version="1.1" id="Layer_1" xmlns="http://www.w3.org/2000/svg" xmlns:xlink="http://www.w3.org/1999/xlink" x="0px" y="0px"
	 viewBox="0 0 329.1 500.4" style="enable-background:new 0 0 329.1 500.4;" xml:space="preserve">
<style type="text/css">
	.st0{opacity:0.1;}
	.st1{fill:#D8D0BB;}
	.st2{fill:url(#XMLID_15_);}
	.st3{fill:url(#XMLID_16_);}
	.st4{fill:#FFF4DA;}
	.st5{fill:url(#XMLID_17_);}
	.st6{fill:url(#XMLID_18_);}
	.st7{fill:url(#XMLID_19_);}
	.st8{fill:url(#XMLID_20_);}
	.st9{fill:url(#XMLID_21_);}
	.st10{fill:url(#XMLID_22_);}
	.st11{fill:url(#XMLID_23_);}
	.st12{fill:#FFFFFF;}
	.st13{fill:url(#XMLID_24_);}
	.st14{fill:url(#XMLID_25_);}
	.st15{fill:url(#XMLID_26_);}
	.st16{fill:url(#XMLID_27_);}
	.st17{fill:url(#XMLID_28_);}
	.st18{fill:url(#XMLID_29_);}
	.st19{fill:url(#XMLID_30_);}
	.st20{fill:url(#XMLID_31_);}
</style>
<path id="XMLID_4997_" class="st0" d="M200,428.5c0-22.2,0-63.9,0-69.4c0-0.2,0-0.3,0-0.5c0-0.2,0-0.5,0-0.7c0-0.2,0-0.4,0-0.7
	c0-0.2,0-0.4,0-0.5c0-0.3-0.1-0.6-0.1-0.8c0-0.1,0-0.2,0-0.3c0-0.4-0.1-0.7-0.2-1c0,0,0-0.1,0-0.1c-0.8-4.4-2.8-8.5-5.7-11.7
	c0,0,0,0,0,0c-0.2-0.3-0.5-0.5-0.7-0.8c0,0-0.1-0.1-0.1-0.1c-0.2-0.2-0.5-0.5-0.7-0.7c-0.1-0.1-0.1-0.1-0.2-0.2
	c-0.2-0.2-0.5-0.4-0.7-0.6c-0.1-0.1-0.2-0.1-0.2-0.2c-0.2-0.2-0.5-0.4-0.7-0.6c-0.1-0.1-0.2-0.1-0.2-0.2c-0.2-0.2-0.5-0.4-0.8-0.6
	c-0.1,0-0.1-0.1-0.2-0.1c-0.3-0.2-0.6-0.4-0.9-0.6c0,0-0.1-0.1-0.1-0.1c-3.4-2.2-7.4-3.5-11.7-3.8c-0.1,0-0.1,0-0.2,0
	c-0.2,0-0.5,0-0.7,0c-0.2,0-0.4,0-0.6,0c0,0-0.1,0-0.1,0c-0.1,0-0.3,0-0.4,0c-0.2,0-0.5,0-0.7,0c-0.2,0-0.4,0-0.6,0
	c-0.2,0-0.4,0-0.7,0.1c-0.2,0-0.5,0.1-0.7,0.1c-0.2,0-0.3,0-0.5,0.1c-0.2,0-0.3,0-0.5,0.1c-12.3,0-46.1,0-65.4,0
	c-2.9,0-7.7-1.6-13.4-4c2.2-14.6,3.5-30.9,3.9-47.3c0-1.4,0-2.7,0-4.1c15.1,15.1,31.7,31.7,34.4,34.4c7.3,7.3,19.2,7.3,26.5,0
	c3.6-3.6,32.6-32.6,49.1-49.1c0,0,0.1-0.1,0.1-0.1c13.3-5.5,29.5-12.2,41-17c22.9-9.5,60-24.9,64.1-26.6c6.4-2.6,9.4-10,6.8-16.3
	c-2.2-5.3-40.5,5.3-66.6,14.5c1.8-1.8,3.1-3.1,3.7-3.7c4.9-4.9,4.9-12.8,0-17.7c-3.8-3.8-31.1,17.1-51.4,34.9
	c-10.6,1.9-20.9,3.4-27.9,4.8c-15.3-3.1-46.4-6.7-61.8-13.1c-10-4.2-24.3-21.1-36.7-34.2c-3.4-10-6.6-18.9-9.2-25.9
	c15.5,12,28.5,20.8,31.8,20.8c4.5,0,9.3-3.4,14.2-8.9c0.1-0.1,0.1-0.2,0.2-0.2c0.2-0.2,0.3-0.4,0.5-0.6c6.3-7.3,12.5-17.9,18-29
	c0,0,0,0,0,0c0.1-0.1,0.1-0.2,0.1-0.3c0.7-1.4,1.4-2.8,2-4.3c0.1-0.3,0.2-0.5,0.3-0.8c1.5-3.2,2.9-6.5,4.2-9.6c0,0,0,0,0,0h0
	c3.3-8,6.1-15.6,7.9-21.8h0c0,0,0,0,0,0c0.1-0.4,0.2-0.8,0.3-1.2c0.1-0.3,0.2-0.6,0.3-0.9c0.1-0.4,0.2-0.8,0.3-1.2
	c0.1-0.3,0.1-0.6,0.2-0.8c0.1-0.4,0.2-0.7,0.3-1.1c0.1-0.2,0.1-0.5,0.2-0.7c0.1-0.4,0.1-0.7,0.2-1c0-0.2,0.1-0.3,0.1-0.5h0
	c0.4-1.8,0.6-3.4,0.6-4.5c0-14.1-12.5-65.5-23.5-76.5c-5.5-5.5-20-8.8-36.5-10.1c-26.3-2-57.8,1.4-66.5,10.1
	C14.2,29.9,3.8,68,0.9,88.2C0.4,90.6,0.1,93,0,95.5c0,0.6,0,1.1,0,1.6v0c0,0,0,0,0,0c0,0,0,0.1,0,0.1c0,0.7,0,1.5,0.1,2.2
	c0.1,1.5,0.4,2.9,0.8,4.4s0.9,2.9,1.5,4.4c8.3,19.8,35,38.5,35,39c0,4.7-2.7,13.8-5.7,23.1c-0.8,2.5-1.6,5-2.3,7.5
	c-1.4,4.4-2.6,8.7-3.4,12.3c-0.6,2-1,4.1-1.1,6.2c0,0.1,0,0.3,0,0.4c0,0.1,0,0.2,0,0.3c0,0.1,0,0.2,0,0.2l0,0c0,0,0,0,0,0.1
	c0,0.1,0,0.1,0,0.2c0,0.2,0,0.4,0,0.6c0,0.2,0,0.4,0,0.5c0,0.2,0,0.5,0.1,0.7c0,0.2,0,0.3,0,0.5c0,0.2,0.1,0.5,0.1,0.7
	c0,0.2,0,0.3,0.1,0.5c0,0.2,0.1,0.5,0.1,0.7c0,0.2,0.1,0.3,0.1,0.5c0,0.2,0.1,0.4,0.1,0.6c0,0.2,0.1,0.4,0.1,0.5
	c0.1,0.2,0.1,0.4,0.2,0.6c0.1,0.2,0.1,0.4,0.2,0.6c0.1,0.2,0.1,0.4,0.2,0.6c0.1,0.2,0.1,0.4,0.2,0.5c0.1,0.2,0.2,0.5,0.3,0.7
	c0.1,0.1,0.1,0.3,0.2,0.4c0.1,0.3,0.3,0.6,0.4,0.9c0,0.1,0.1,0.1,0.1,0.2c1,2.1,2.3,4.1,3.8,5.9C13.9,256.1,5.2,316.3,5.2,322.3
	c0,1.7,0.1,3.4,0.2,5.1C2,333.1,0,339.7,0,346.9c0,20.7,16.8,37.5,37.5,37.5c3.8,0,12.1,0,22.8,0c2.4,0.3,4.9,0.4,7.4,0.4
	c0.9,0,1.8-0.2,2.7-0.4c26,0,60.7,0,83.2,0c2.7,15.8,5.8,32.8,3.4,41.7c-5,18.7-11.8,57.4-11.4,74.3H163c0.1-0.2,0.2-0.5,0.2-0.8
	c0.9-3.3,7.1-26.3,12.8-47.7c1.2,17.3,3.6,36.9,6.5,48.5h17.3c0.2-0.8,0.3-1.6,0.3-2.5C200,493.4,200,453.3,200,428.5z M104.6,247.1
	c15.2,6.3,38.7,16,52.8,21.9c-4.8,3-9.5,5.9-13.6,8.5c-14.1-8.9-34.8-21.1-44.7-31c-0.7-0.7-1.5-1.6-2.2-2.6
	C99.6,245.1,102.2,246.2,104.6,247.1z"/>
<g id="XMLID_4891_">
	<g id="XMLID_4977_">
		<path id="XMLID_4979_" class="st1" d="M77.7,169.7c-9.8-9.8-25.6-9.8-35.4,0c-9.8,9.8-9.8,25.6,0,35.4
			c3.9,3.9,33.4,33.4,49.1,49.1c16.5,16.5,45.5,45.5,49.1,49.1c7.3,7.3,19.2,7.3,26.5,0c7.3-7.3,7.3-19.2,0-26.5
			c-6.8-6.8-43.7-26.1-57.9-40.3C97.1,224.5,87.4,179.5,77.7,169.7z"/>
		<path id="XMLID_4978_" class="st1" d="M198.4,236.5c-14.2,14.2-51.2,33.5-57.9,40.3c-7.3,7.3-7.3,19.2,0,26.5
			c7.3,7.3,19.2,7.3,26.5,0c3.6-3.6,32.6-32.6,49.1-49.1c17.5-17.5,45.9-45.9,49.1-49.1c4.9-4.9,4.9-12.8,0-17.7
			C260.3,182.5,216,219,198.4,236.5z"/>
	</g>
	<linearGradient id="XMLID_15_" gradientUnits="userSpaceOnUse" x1="9.9998" y1="206.0636" x2="109.9998" y2="206.0636">
		<stop  offset="0" style="stop-color:#E9E0C9"/>
		<stop  offset="1" style="stop-color:#FFF4DA"/>
	</linearGradient>
	<path id="XMLID_4976_" class="st2" d="M72.5,137.3c0-0.5,37.5-26.7,37.5-50c0-27.6-22.4-50-50-50c-27.6,0-50,22.4-50,50
		c0,23.3,37.5,49.5,37.5,50c0,10.1-12.5,39.9-12.5,50c0,6.3,2.3,12,6.2,16.4C23.9,246,15.2,306.3,15.2,312.3
		c0,34.5,28,62.5,62.5,62.5c16.8,0,27-50.2,28.4-101.8C107.5,219.4,72.5,142.4,72.5,137.3z"/>
	<linearGradient id="XMLID_16_" gradientUnits="userSpaceOnUse" x1="47.4998" y1="212.3136" x2="47.4998" y2="81.3419">
		<stop  offset="0" style="stop-color:#FFF4DA;stop-opacity:0"/>
		<stop  offset="1" style="stop-color:#D8D0BB"/>
	</linearGradient>
	<path id="XMLID_4975_" class="st3" d="M10,87.3c0,23.3,37.5,49.5,37.5,50c0,10.1-12.5,39.9-12.5,50c0,13.8,11.2,25,25,25
		s25-11.2,25-25c0-10.1-12.5-39.9-12.5-50C72.5,136.8,10,59.7,10,87.3z"/>
	<g id="XMLID_4967_">
		<g id="XMLID_4972_">
			<path id="XMLID_4974_" class="st1" d="M185,324.4c-5.5,0-47.2,0-69.4,0c-11.6,0-51.2-25-68.1-25c-20.7,0-37.5,16.8-37.5,37.5
				s16.8,37.5,37.5,37.5c16.9,0,123.7,0,137.5,0s25-11.2,25-25S198.8,324.4,185,324.4z"/>
			<path id="XMLID_4973_" class="st1" d="M209.1,355.5c3.6-13.3-4.3-27-17.7-30.6c-13.3-3.6-27,4.3-30.6,17.7s10.6,57.1,6.2,73.5
				c-6.4,24-15.8,80.6-9.1,82.4c6.7,1.8,13.5-2.2,15.3-8.8c1.2-4.3,11.5-43.1,18-67.1C196.9,401.1,207.7,360.8,209.1,355.5z"/>
		</g>
		<path id="XMLID_4971_" class="st4" d="M185,324.4c-5.5,0-47.2,0-69.4,0c-11.6,0-51.2-25-68.1-25c-20.7,0-37.5,16.8-37.5,37.5
			s16.8,37.5,37.5,37.5c16.9,0,123.7,0,137.5,0s25-11.2,25-25S198.8,324.4,185,324.4z"/>
		<path id="XMLID_4970_" class="st4" d="M210,349c0-13.8-11.2-25-25-25s-25,11.2-25,25s25,52.4,25,69.4c0,24.8,5.6,81.9,12.5,81.9
			s12.5-5.6,12.5-12.5c0-4.5,0-44.6,0-69.4C210,396.2,210,354.5,210,349z"/>
		<linearGradient id="XMLID_17_" gradientUnits="userSpaceOnUse" x1="9.9999" y1="353.3861" x2="185.7219" y2="353.3861">
			<stop  offset="0" style="stop-color:#E9E0C9"/>
			<stop  offset="1" style="stop-color:#FFF4DA"/>
		</linearGradient>
		<path id="XMLID_4969_" class="st5" d="M10,336.9c0,20.7,16.8,37.5,37.5,37.5c16.9,0,123.7,0,137.5,0S10,316.2,10,336.9z"/>
		<linearGradient id="XMLID_18_" gradientUnits="userSpaceOnUse" x1="191.9924" y1="416.4988" x2="191.9924" y2="500.3903">
			<stop  offset="0" style="stop-color:#E9E0C9"/>
			<stop  offset="1" style="stop-color:#FFF4DA"/>
		</linearGradient>
		<path id="XMLID_4968_" class="st6" d="M185,418.5c0,24.8,5.6,81.9,12.5,81.9S185,401.5,185,418.5z"/>
	</g>
	<linearGradient id="XMLID_19_" gradientUnits="userSpaceOnUse" x1="9.9999" y1="113.4404" x2="109.9999" y2="113.4404">
		<stop  offset="0" style="stop-color:#FFF4DA;stop-opacity:0"/>
		<stop  offset="1" style="stop-color:#D8D0BB"/>
	</linearGradient>
	<path id="XMLID_4966_" class="st7" d="M110,87.3c0-27.6-22.4-50-50-50c-27.6,0-50,22.4-50,50c0,23.3,37.5,49.5,37.5,50
		c0,10.1-12.5,39.9-12.5,50c0,13.8,37.5-39.9,37.5-50C72.5,136.8,110,110.6,110,87.3z"/>
	<g id="XMLID_4898_">
		<g id="XMLID_4963_">
			<path id="XMLID_4965_" class="st4" d="M136.5,10.6c-5.5-5.5-20-8.8-36.5-10.1C83.4,1.8,68.9,5.1,63.5,10.6
				C52.5,21.6,40,73,40,87.1c0,11.1,55.6,58.6,84.2,78.6c17.8-20,35.8-67.5,35.8-78.6C160,73,147.5,21.6,136.5,10.6z"/>
			<linearGradient id="XMLID_20_" gradientUnits="userSpaceOnUse" x1="9.9998" y1="87.3135" x2="159.9999" y2="87.3135">
				<stop  offset="0" style="stop-color:#E9E0C9"/>
				<stop  offset="1" style="stop-color:#FFF4DA"/>
			</linearGradient>
			<path id="XMLID_4964_" class="st8" d="M40,87.1C40,73,52.5,21.6,63.5,10.6c5.5-5.5,20-8.8,36.5-10.1c-26.3-2-57.8,1.4-66.5,10.1
				C22.5,21.6,10,73,10,87.1c0,14.1,90.4,87.5,100,87.5c4.5,0,9.3-3.4,14.2-8.9C95.6,145.7,40,98.2,40,87.1z"/>
		</g>
		<g id="XMLID_4961_">
			<linearGradient id="XMLID_21_" gradientUnits="userSpaceOnUse" x1="148.4657" y1="99.1267" x2="148.4657" y2="91.6267">
				<stop  offset="0" style="stop-color:#D8D0BB"/>
				<stop  offset="1" style="stop-color:#FFF4DA;stop-opacity:0"/>
			</linearGradient>
			<path id="XMLID_4962_" class="st9" d="M137.5,91.6c0,4.1,17.3,7.5,20,7.5c0,0,0,0,0.1,0c0.8-2.8,1.5-5.4,1.9-7.5H137.5z"/>
		</g>
		
			<linearGradient id="XMLID_22_" gradientUnits="userSpaceOnUse" x1="2540.8196" y1="25.8114" x2="2553.3086" y2="25.8114" gradientTransform="matrix(-1 0 0 1 2658.2791 0)">
			<stop  offset="0" style="stop-color:#D8D0BB"/>
			<stop  offset="1" style="stop-color:#FFF4DA;stop-opacity:0"/>
		</linearGradient>
		<path id="XMLID_4960_" class="st10" d="M109,34.7c6.8-6.8,7.3-17.6,1.4-24.9c0.5,0.4,1.1,0.9,1.6,1.4c7.3,7.3,7.3,19.2,0,26.5
			C104.6,45.1,102.2,41.6,109,34.7z"/>
		
			<linearGradient id="XMLID_23_" gradientUnits="userSpaceOnUse" x1="963.0083" y1="72.3502" x2="1000.5083" y2="72.3502" gradientTransform="matrix(-1 0 0 1 1100.5081 0)">
			<stop  offset="0" style="stop-color:#D8D0BB"/>
			<stop  offset="1" style="stop-color:#FFF4DA;stop-opacity:0"/>
		</linearGradient>
		<circle id="XMLID_4958_" class="st11" cx="118.7" cy="72.4" r="18.8"/>
		<circle id="XMLID_4957_" class="st12" cx="118.7" cy="62.3" r="18.8"/>
		<linearGradient id="XMLID_24_" gradientUnits="userSpaceOnUse" x1="50.5827" y1="59.957" x2="83.5274" y2="59.957">
			<stop  offset="0" style="stop-color:#FFF4DA;stop-opacity:0"/>
			<stop  offset="1" style="stop-color:#D8D0BB"/>
		</linearGradient>
		<path id="XMLID_4956_" class="st13" d="M56.1,35c-6.1,6.1-7.1,15.5-3,22.6c-4.2,7.2-3.2,16.5,3,22.6c7.3,7.3,19.2,7.3,26.5,0
			C88.7,74.1,63.4,27.6,56.1,35z"/>
		<g id="XMLID_4953_">
			<linearGradient id="XMLID_25_" gradientUnits="userSpaceOnUse" x1="137.0585" y1="126.0915" x2="137.0585" y2="116.7951">
				<stop  offset="0" style="stop-color:#D8D0BB;stop-opacity:0.25"/>
				<stop  offset="0.5" style="stop-color:#FFF4DA;stop-opacity:0"/>
			</linearGradient>
			<path id="XMLID_4954_" class="st14" d="M146.7,117.4c-10.3,2.7-29.9,8.7-19.2,8.7c5.9,0,14.5,0,20,0c0.8-1.8,1.5-3.5,2.2-5.2
				C148.2,120.3,147.1,119,146.7,117.4z"/>
		</g>
		<linearGradient id="XMLID_26_" gradientUnits="userSpaceOnUse" x1="141.6818" y1="135.8688" x2="141.6818" y2="117.5954">
			<stop  offset="0" style="stop-color:#D8D0BB"/>
			<stop  offset="0.5" style="stop-color:#FFF4DA;stop-opacity:0"/>
		</linearGradient>
		<path id="XMLID_4952_" class="st15" d="M137.5,126.1c-4.2,0,0.6,5.4,5.4,9.8c1.6-3.2,3.1-6.5,4.5-9.8
			C144.4,126.1,139.7,126.1,137.5,126.1z"/>
		<linearGradient id="XMLID_27_" gradientUnits="userSpaceOnUse" x1="155.011" y1="104.1515" x2="155.011" y2="98.428">
			<stop  offset="0" style="stop-color:#D8D0BB;stop-opacity:0.5"/>
			<stop  offset="1" style="stop-color:#FFF4DA;stop-opacity:0"/>
		</linearGradient>
		<path id="XMLID_4951_" class="st16" d="M157.5,99.2c-0.7,0-2.6-0.3-4.9-0.7c0,0.2-0.1,0.5-0.1,0.7c0,2.3,1.5,4.1,3.6,4.8
			C156.6,102.3,157.1,100.7,157.5,99.2C157.5,99.1,157.5,99.2,157.5,99.2z"/>
		<linearGradient id="XMLID_28_" gradientUnits="userSpaceOnUse" x1="121.5892" y1="167.62" x2="121.5892" y2="163.6987">
			<stop  offset="0" style="stop-color:#FFF4DA;stop-opacity:0"/>
			<stop  offset="1" style="stop-color:#D8D0BB;stop-opacity:0.5"/>
		</linearGradient>
		<path id="XMLID_4950_" class="st17" d="M117.3,166.8c0,1.4,3.7,0.7,5.7,0.2c1-1,1.9-2.1,2.9-3.3
			C121.8,163.5,117.3,164.5,117.3,166.8z"/>
		<linearGradient id="XMLID_29_" gradientUnits="userSpaceOnUse" x1="9.9998" y1="130.2057" x2="112.3896" y2="130.2057">
			<stop  offset="0" style="stop-color:#FFF4DA;stop-opacity:0"/>
			<stop  offset="1" style="stop-color:#D8D0BB"/>
		</linearGradient>
		<path id="XMLID_4899_" class="st18" d="M10,87.1c0,14.1,90.4,87.5,100,87.5C130.7,174.6,10,73,10,87.1z"/>
	</g>
	<g id="XMLID_4895_">
		<path id="XMLID_4897_" class="st4" d="M69.6,164.4c-12.8-5.3-27.4,0.8-32.7,13.5s0.8,27.4,13.5,32.7c5.1,2.1,43.6,18.1,64.1,26.6
			c21.5,8.9,59.5,24.6,64.1,26.6c9.6,4,20.5-0.6,24.5-10.1c4-9.6-0.6-20.5-10.1-24.5c-8.9-3.7-50.4-7.3-68.9-15
			C108.5,207.5,82.3,169.6,69.6,164.4z"/>
		
			<linearGradient id="XMLID_30_" gradientUnits="userSpaceOnUse" x1="1000.1691" y1="4080.1475" x2="1000.1691" y2="4177.6245" gradientTransform="matrix(0.3827 -0.9239 0.9239 0.3827 -4119.6187 -449.2967)">
			<stop  offset="0" style="stop-color:#E9E0C9"/>
			<stop  offset="1" style="stop-color:#FFF4DA"/>
		</linearGradient>
		<path id="XMLID_4896_" class="st19" d="M36.9,177.9c-5.3,12.8,0.8,27.4,13.5,32.7c5.1,2.1,43.6,18.1,64.1,26.6
			C136.1,246,42.2,165.1,36.9,177.9z"/>
	</g>
	<g id="XMLID_4892_">
		<path id="XMLID_4894_" class="st4" d="M247.7,214c-18.5,7.7-60.1,11.4-68.9,15c-9.6,4-14.1,14.9-10.1,24.5
			c4,9.6,14.9,14.1,24.5,10.1c4.7-1.9,42.6-17.7,64.1-26.6c22.9-9.5,60-24.9,64.1-26.6c6.4-2.6,9.4-10,6.8-16.3
			C325.5,187.9,270.6,204.5,247.7,214z"/>
		
			<linearGradient id="XMLID_31_" gradientUnits="userSpaceOnUse" x1="1074.0919" y1="1494.9596" x2="982.3516" y2="1494.9596" gradientTransform="matrix(0.9239 -0.3827 0.3827 0.9239 -1307.9279 -744.0485)">
			<stop  offset="0" style="stop-color:#E9E0C9"/>
			<stop  offset="1" style="stop-color:#FFF4DA"/>
		</linearGradient>
		<path id="XMLID_4893_" class="st20" d="M168.6,253.6c4,9.6,14.9,14.1,24.5,10.1c4.7-1.9,42.6-17.7,64.1-26.6
			C280.1,227.6,164.6,244,168.6,253.6z"/>
	</g>
</g>
</svg>
