<?xml version="1.0" encoding="utf-8"?>
<!-- Generator: Adobe Illustrator 19.0.0, SVG Export Plug-In . SVG Version: 6.00 Build 0)  -->
<svg version="1.1" id="Layer_1" xmlns="http://www.w3.org/2000/svg" xmlns:xlink="http://www.w3.org/1999/xlink" x="0px" y="0px"
	 viewBox="0 0 194.2 445.5" style="enable-background:new 0 0 194.2 445.5;" xml:space="preserve">
<style type="text/css">
	.st0{fill:#9DC4B2;}
	.st1{fill:url(#XMLID_15_);}
	.st2{fill:#A6D0BD;}
	.st3{fill:url(#XMLID_16_);}
	.st4{fill:url(#XMLID_17_);}
	.st5{fill:url(#XMLID_18_);}
	.st6{fill:url(#XMLID_19_);}
	.st7{fill:url(#XMLID_20_);}
	.st8{fill:url(#XMLID_21_);}
	.st9{fill:#B4DECC;}
	.st10{fill:url(#XMLID_22_);}
	.st11{fill:url(#XMLID_23_);}
	.st12{fill:url(#XMLID_24_);}
	.st13{fill:url(#XMLID_25_);}
	.st14{fill:url(#XMLID_26_);}
	.st15{fill:url(#XMLID_27_);}
	.st16{fill:url(#XMLID_28_);}
	.st17{fill:url(#XMLID_29_);}
</style>
<g id="XMLID_4264_">
	<g id="XMLID_4535_">
		<path id="XMLID_4537_" class="st0" d="M50.8,127.3c-7.3-7.3-19.2-7.3-26.5,0s-7.3,19.2,0,26.5c2.9,2.9,25,25,36.8,36.8
			c12.3,12.3,34.1,34.1,36.8,36.8c5.5,5.5,14.4,5.5,19.9,0c5.5-5.5,5.5-14.4,0-19.9c-5.1-5.1-32.8-19.5-43.4-30.2
			C65.3,168.4,58.1,134.6,50.8,127.3z"/>
		<path id="XMLID_4536_" class="st0" d="M141.3,177.4c-10.6,10.6-38.4,25.1-43.4,30.2c-5.5,5.5-5.5,14.4,0,19.9
			c5.5,5.5,14.4,5.5,19.9,0c2.7-2.7,24.5-24.5,36.8-36.8c13.2-13.2,34.5-34.5,36.8-36.8c3.7-3.7,3.7-9.6,0-13.3
			C187.8,136.9,154.5,164.2,141.3,177.4z"/>
	</g>
	<g id="XMLID_4532_">
		<path id="XMLID_4534_" class="st0" d="M107.7,318.9c-2.9-2.9-25-25-36.8-36.8c-6.2-6.2-13.9-40.4-22.8-49.4c-11-11-28.8-11-39.8,0
			s-11,28.8,0,39.8c8.9,8.9,65.6,65.6,72.9,72.9c7.3,7.3,19.2,7.3,26.5,0C115,338.1,115,326.3,107.7,318.9z"/>
		<path id="XMLID_4533_" class="st0" d="M113.3,332c0-10.4-8.4-18.8-18.8-18.8s-18.8,8.4-18.8,18.8s18.8,39.3,18.8,52.1
			c0,18.6,4.2,61.4,9.4,61.4s9.4-4.2,9.4-9.4c0-3.3,0-33.5,0-52.1C113.3,367.4,113.3,336.2,113.3,332z"/>
	</g>
	<path id="XMLID_4531_" class="st0" d="M46.9,103c0-0.4,28.1-20,28.1-37.5C75,44.8,58.2,28,37.5,28C16.8,28,0,44.8,0,65.5
		C0,83,28.1,102.6,28.1,103c0,7.6-9.4,29.9-9.4,37.5c0,4.7,1.7,9,4.6,12.3c-12.9,31.7-19.5,76.9-19.5,81.4c0,25.9,21,46.9,46.9,46.9
		c12.6,0,20.3-37.6,21.3-76.3C73.1,164.5,46.9,106.8,46.9,103z"/>
	<linearGradient id="XMLID_15_" gradientUnits="userSpaceOnUse" x1="28.1249" y1="159.2352" x2="28.1249" y2="61.0064">
		<stop  offset="0" style="stop-color:#A6D0BD;stop-opacity:0"/>
		<stop  offset="1" style="stop-color:#9DC4B2"/>
	</linearGradient>
	<path id="XMLID_4530_" class="st1" d="M0,65.5C0,83,28.1,102.6,28.1,103c0,7.6-9.4,29.9-9.4,37.5c0,10.4,8.4,18.8,18.8,18.8
		s18.8-8.4,18.8-18.8c0-7.6-9.4-29.9-9.4-37.5C46.9,102.6,0,44.8,0,65.5z"/>
	<g id="XMLID_4525_">
		<path id="XMLID_4529_" class="st2" d="M131.2,243.3c-4.1,0-35.4,0-52.1,0c-8.7,0-38.4-18.8-51.1-18.8C12.6,224.5,0,237.1,0,252.6
			s12.6,28.1,28.1,28.1c12.6,0,92.8,0,103.1,0S150,272.4,150,262C150,251.7,141.6,243.3,131.2,243.3z"/>
		<path id="XMLID_4528_" class="st2" d="M150,261.8c0-10.4-8.4-18.8-18.8-18.8s-18.8,8.4-18.8,18.8c0,10.4,18.8,39.3,18.8,52.1
			c0,18.6,4.2,61.4,9.4,61.4s9.4-4.2,9.4-9.4c0-3.3,0-33.5,0-52.1C150,297.2,150,265.9,150,261.8z"/>
		<linearGradient id="XMLID_16_" gradientUnits="userSpaceOnUse" x1="-3.226824e-05" y1="265.0396" x2="131.7914" y2="265.0396">
			<stop  offset="0" style="stop-color:#9DC4B2"/>
			<stop  offset="1" style="stop-color:#A6D0BD"/>
		</linearGradient>
		<path id="XMLID_4527_" class="st3" d="M0,252.6c0,15.5,12.6,28.1,28.1,28.1c12.6,0,92.8,0,103.1,0S0,237.1,0,252.6z"/>
		<linearGradient id="XMLID_17_" gradientUnits="userSpaceOnUse" x1="136.4943" y1="312.3741" x2="136.4943" y2="375.2928">
			<stop  offset="0" style="stop-color:#9DC4B2"/>
			<stop  offset="1" style="stop-color:#A6D0BD"/>
		</linearGradient>
		<path id="XMLID_4526_" class="st4" d="M131.2,313.8c0,18.6,4.2,61.4,9.4,61.4S131.2,301.1,131.2,313.8z"/>
	</g>
	<linearGradient id="XMLID_18_" gradientUnits="userSpaceOnUse" x1="-3.201565e-05" y1="85.0803" x2="75" y2="85.0803">
		<stop  offset="0" style="stop-color:#A6D0BD;stop-opacity:0"/>
		<stop  offset="1" style="stop-color:#9DC4B2"/>
	</linearGradient>
	<path id="XMLID_4524_" class="st5" d="M75,65.5C75,44.8,58.2,28,37.5,28C16.8,28,0,44.8,0,65.5C0,83,28.1,102.6,28.1,103
		c0,7.6-9.4,29.9-9.4,37.5c0,10.4,28.1-29.9,28.1-37.5C46.9,102.6,75,83,75,65.5z"/>
	<g id="XMLID_4508_">
		<g id="XMLID_4521_">
			<path id="XMLID_4523_" class="st2" d="M94.9,8c-4.1-4.1-15-6.6-27.4-7.5C55.1,1.3,44.2,3.9,40.1,8c-8.2,8.2-17.6,46.8-17.6,57.4
				c0,8.3,41.7,43.9,63.2,58.9c13.3-15,26.8-50.6,26.8-58.9C112.5,54.8,103.1,16.2,94.9,8z"/>
			<path id="XMLID_4522_" class="st2" d="M22.5,65.3c0-10.6,9.4-49.2,17.6-57.4c4.1-4.1,15-6.6,27.4-7.5C47.8-1.1,24.1,1.4,17.6,8
				C9.4,16.2,0,54.8,0,65.3C0,75.9,67.8,131,75,131c3.4,0,7-2.6,10.7-6.7C64.2,109.3,22.5,73.6,22.5,65.3z"/>
		</g>
		<g id="XMLID_4519_">
			<linearGradient id="XMLID_19_" gradientUnits="userSpaceOnUse" x1="103.8493" y1="74.3451" x2="103.8493" y2="68.7201">
				<stop  offset="0" style="stop-color:#9DC4B2"/>
				<stop  offset="1" style="stop-color:#A6D0BD;stop-opacity:0"/>
			</linearGradient>
			<path id="XMLID_4520_" class="st6" d="M95.6,68.7c0,3.1,13,5.6,15,5.6c0,0,0,0,0.1,0c0.6-2.1,1.1-4,1.4-5.6H95.6z"/>
		</g>
		
			<linearGradient id="XMLID_20_" gradientUnits="userSpaceOnUse" x1="2436.8384" y1="19.3585" x2="2446.2053" y2="19.3585" gradientTransform="matrix(-1 0 0 1 2517.4331 0)">
			<stop  offset="0" style="stop-color:#9DC4B2"/>
			<stop  offset="1" style="stop-color:#A6D0BD;stop-opacity:0"/>
		</linearGradient>
		<path id="XMLID_4518_" class="st7" d="M74.2,26.1c5.1-5.1,5.5-13.2,1.1-18.7c0.4,0.3,0.8,0.7,1.2,1.1c5.5,5.5,5.5,14.4,0,19.9
			C71,33.8,69.1,31.2,74.2,26.1z"/>
		
			<linearGradient id="XMLID_21_" gradientUnits="userSpaceOnUse" x1="864.0373" y1="54.2626" x2="892.1623" y2="54.2626" gradientTransform="matrix(-1 0 0 1 959.6622 0)">
			<stop  offset="0" style="stop-color:#9DC4B2"/>
			<stop  offset="1" style="stop-color:#A6D0BD;stop-opacity:0"/>
		</linearGradient>
		<circle id="XMLID_4517_" class="st8" cx="81.6" cy="54.3" r="14.1"/>
		<circle id="XMLID_4516_" class="st9" cx="81.6" cy="46.7" r="14.1"/>
		<linearGradient id="XMLID_22_" gradientUnits="userSpaceOnUse" x1="30.437" y1="44.9677" x2="55.1456" y2="44.9677">
			<stop  offset="0" style="stop-color:#A6D0BD;stop-opacity:0"/>
			<stop  offset="1" style="stop-color:#9DC4B2"/>
		</linearGradient>
		<path id="XMLID_4515_" class="st10" d="M34.5,26.2c-4.6,4.6-5.3,11.6-2.2,17c-3.1,5.4-2.4,12.4,2.2,17c5.5,5.5,14.4,5.5,19.9,0
			C59,55.6,40,20.7,34.5,26.2z"/>
		<g id="XMLID_4513_">
			<linearGradient id="XMLID_23_" gradientUnits="userSpaceOnUse" x1="95.2939" y1="94.5686" x2="95.2939" y2="87.5963">
				<stop  offset="0" style="stop-color:#9DC4B2;stop-opacity:0.25"/>
				<stop  offset="0.5" style="stop-color:#A6D0BD;stop-opacity:0"/>
			</linearGradient>
			<path id="XMLID_4514_" class="st11" d="M102.5,88.1c-7.8,2-22.4,6.5-14.4,6.5c4.4,0,10.9,0,15,0c0.6-1.3,1.1-2.6,1.7-3.9
				C103.7,90.2,102.8,89.3,102.5,88.1z"/>
		</g>
		<linearGradient id="XMLID_24_" gradientUnits="userSpaceOnUse" x1="98.7614" y1="101.9016" x2="98.7614" y2="88.1965">
			<stop  offset="0" style="stop-color:#9DC4B2"/>
			<stop  offset="0.5" style="stop-color:#A6D0BD;stop-opacity:0"/>
		</linearGradient>
		<path id="XMLID_4512_" class="st12" d="M95.6,94.6c-3.1,0,0.4,4.1,4.1,7.3c1.2-2.4,2.3-4.9,3.4-7.3
			C100.8,94.6,97.2,94.6,95.6,94.6z"/>
		<linearGradient id="XMLID_25_" gradientUnits="userSpaceOnUse" x1="108.7583" y1="78.1136" x2="108.7583" y2="73.821">
			<stop  offset="0" style="stop-color:#9DC4B2;stop-opacity:0.5"/>
			<stop  offset="1" style="stop-color:#A6D0BD;stop-opacity:0"/>
		</linearGradient>
		<path id="XMLID_4511_" class="st13" d="M110.6,74.4c-0.6,0-2-0.2-3.7-0.5c0,0.2-0.1,0.4-0.1,0.5c0,1.7,1.1,3.1,2.7,3.6
			C109.9,76.7,110.3,75.5,110.6,74.4C110.6,74.4,110.6,74.4,110.6,74.4z"/>
		<linearGradient id="XMLID_26_" gradientUnits="userSpaceOnUse" x1="83.6919" y1="125.715" x2="83.6919" y2="122.7741">
			<stop  offset="0" style="stop-color:#A6D0BD;stop-opacity:0"/>
			<stop  offset="1" style="stop-color:#9DC4B2;stop-opacity:0.5"/>
		</linearGradient>
		<path id="XMLID_4510_" class="st14" d="M80.5,125.1c0,1,2.8,0.5,4.3,0.2c0.7-0.8,1.4-1.6,2.2-2.5
			C83.9,122.6,80.5,123.4,80.5,125.1z"/>
		<linearGradient id="XMLID_27_" gradientUnits="userSpaceOnUse" x1="-1.220689e-04" y1="97.6543" x2="76.7923" y2="97.6543">
			<stop  offset="0" style="stop-color:#A6D0BD;stop-opacity:0"/>
			<stop  offset="1" style="stop-color:#9DC4B2"/>
		</linearGradient>
		<path id="XMLID_4509_" class="st15" d="M0,65.3C0,75.9,67.8,131,75,131C90.5,131,0,54.8,0,65.3z"/>
	</g>
	<path id="XMLID_4507_" class="st2" d="M56.2,140.5c0-10.4-8.4-18.8-18.8-18.8s-18.8,8.4-18.8,18.8c0,4.1,0,35.4,0,52.1
		c0,17.5,0,48.3,0,52.1c0,7.8,6.3,14.1,14.1,14.1s14.1-6.3,14.1-14.1c0-7.2-9.4-37-9.4-52.1C37.5,179.8,56.2,150.8,56.2,140.5z"/>
	<path id="XMLID_4506_" class="st2" d="M84.9,239.9c-15.1,0-44.9-9.4-52.1-9.4c-7.8,0-14.1,6.3-14.1,14.1c0,7.8,6.3,14.1,14.1,14.1
		c3.8,0,34.6,0,52.1,0c18.6,0,48.7,0,52.1,0c5.2,0,9.4-4.2,9.4-9.4S103.5,239.9,84.9,239.9z"/>
	<linearGradient id="XMLID_28_" gradientUnits="userSpaceOnUse" x1="29.2388" y1="121.7351" x2="29.2388" y2="194.843">
		<stop  offset="0" style="stop-color:#9DC4B2"/>
		<stop  offset="1" style="stop-color:#A6D0BD"/>
	</linearGradient>
	<path id="XMLID_4503_" class="st16" d="M37.5,121.7c-10.4,0-18.8,8.4-18.8,18.8c0,4.1,0,35.4,0,52.1
		C18.7,210,47.9,121.7,37.5,121.7z"/>
	<linearGradient id="XMLID_29_" gradientUnits="userSpaceOnUse" x1="87.5552" y1="250.8257" x2="18.7499" y2="250.8257">
		<stop  offset="0" style="stop-color:#9DC4B2"/>
		<stop  offset="1" style="stop-color:#A6D0BD"/>
	</linearGradient>
	<path id="XMLID_4502_" class="st17" d="M18.7,244.6c0,7.8,6.3,14.1,14.1,14.1c3.8,0,34.6,0,52.1,0
		C103.5,258.7,18.7,236.9,18.7,244.6z"/>
</g>
</svg>
