<?xml version="1.0" encoding="utf-8"?>
<!-- Generator: Adobe Illustrator 19.0.0, SVG Export Plug-In . SVG Version: 6.00 Build 0)  -->
<svg version="1.1" id="Layer_1" xmlns="http://www.w3.org/2000/svg" xmlns:xlink="http://www.w3.org/1999/xlink" x="0px" y="0px"
	 viewBox="0 0 905 152" style="enable-background:new 0 0 905 152;" xml:space="preserve">
<style type="text/css">
	.st0{fill:none;stroke:#FFFFFF;stroke-width:2;stroke-miterlimit:10;}
</style>
<path id="XMLID_2464_" class="st0" d="M86.4,68.7c-4.9-4.9-12.8-4.9-17.7,0l0,0l0,0C64.2,73.2,57.9,76,51,76
	c-6.9,0-13.2-2.8-17.7-7.3c0,0,0,0,0,0C28.8,64.2,26,57.9,26,51c0-13.8,11.2-25,25-25c6.9,0,13.2,2.8,17.7,7.3l0,0l0,0
	c2.9,2.9,6.9,4.1,10.6,3.5c2.6-0.4,5.1-1.5,7.1-3.5c4.9-4.9,4.9-12.8,0-17.7v0C77.3,6.6,64.8,1,51,1C23.4,1,1,23.4,1,51
	c0,12.7,4.7,24.2,12.5,33c2.2,6.5,6,15,6,18.5c0,4.9-7.5,19.6-7.5,25c0,6.9,5.6,12.5,12.5,12.5S37,134.4,37,127.5
	c0-5.4-7.5-20.1-7.5-25c0-1.3,0.6-3.4,1.4-5.8c6.2,2.7,13,4.2,20.2,4.2c13.8,0,26.3-5.6,35.4-14.6l0,0
	C91.2,81.5,91.2,73.6,86.4,68.7z"/>
<g id="XMLID_2465_">
	<g id="XMLID_2466_">
		<circle id="XMLID_2467_" class="st0" cx="616.5" cy="88.5" r="12.5"/>
	</g>
	<g id="XMLID_2468_">
		<path id="XMLID_2469_" class="st0" d="M579,1c-27.6,0-50,22.4-50,50s22.4,50,50,50s50-22.4,50-50S606.6,1,579,1z M579,76
			c-13.8,0-25-11.2-25-25s11.2-25,25-25s25,11.2,25,25S592.8,76,579,76z"/>
	</g>
</g>
<g id="XMLID_2472_">
	<path id="XMLID_2473_" class="st0" d="M679,1c-27.6,0-50,22.4-50,50c0,9.1,2.4,17.6,6.7,25c4.5,7.9,11.2,14.4,19.1,18.8
		c7.2,4,15.4,6.2,24.2,6.2s17-2.3,24.2-6.2c7.9-4.4,14.6-10.9,19.1-18.8c4.3-7.4,6.7-15.9,6.7-25C729,23.4,706.6,1,679,1z M679,76
		c-11.6,0-21.4-8-24.2-18.7c-0.5-2-0.8-4.1-0.8-6.3c0-13.8,11.2-25,25-25s25,11.2,25,25c0,2.2-0.3,4.3-0.8,6.3
		C700.5,68,690.7,76,679,76z"/>
	<path id="XMLID_2476_" class="st0" d="M722.3,76c-4.5,7.9-11.2,14.4-19.1,18.8c2.1,8.3,0,17.4-6.5,23.9c-9.8,9.8-25.6,9.8-35.4,0
		l0,0h0c-2.3-2.3-5.4-3.7-8.8-3.7c-6.9,0-12.5,5.6-12.5,12.5c0,3.5,1.4,6.6,3.7,8.8l0,0l0,0c0,0,0,0,0,0c19.5,19.5,51.2,19.5,70.7,0
		C730.8,120,733.4,95.1,722.3,76z"/>
</g>
<g id="XMLID_2477_">
	<path id="XMLID_2478_" class="st0" d="M891.5,38.5c-3.2,0-38.8,25-25,25c6.4,0,21.8,0,25,0c6.9,0,12.5-5.6,12.5-12.5
		S898.4,38.5,891.5,38.5z"/>
	<path id="XMLID_2479_" class="st0" d="M854,26c13.8,0,25,11.2,25,25c0,6.9,5.6,12.5,12.5,12.5S904,57.9,904,51
		c0-27.6-22.4-50-50-50s-50,22.4-50,50c0,27.6,22.4,50,50,50c13.8,0,26.3-5.6,35.4-14.6h0c4.9-4.9,4.9-12.8,0-17.7
		c-3.3-3.3-8.1-4.4-12.3-3.2c-2,0.6-3.8,1.6-5.4,3.2c-3.1,3.1-6.9,5.3-11.2,6.5c-2.1,0.6-4.2,0.9-6.5,0.9c-13.8,0-25-11.2-25-25
		S840.2,26,854,26z"/>
</g>
<path id="XMLID_2480_" class="st0" d="M429,13.5C429,6.6,423.4,1,416.5,1S404,6.6,404,13.5c0,2.8,0,26.2,0,37.5
	c0,11.3,0,34.7,0,37.5c0,6.9,5.6,12.5,12.5,12.5S429,95.4,429,88.5c0-2.8,0-26.2,0-37.5C429,39.7,429,16.3,429,13.5z"/>
<path id="XMLID_2481_" class="st0" d="M86.4,68.7c-4.9-4.9-12.8-4.9-17.7,0l0,0l0,0C64.2,73.2,57.9,76,51,76c-13.8,0-25-11.2-25-25
	s11.2-25,25-25c6.9,0,13.2,2.8,17.7,7.3l0,0l0,0c2.9,2.9,6.9,4.1,10.6,3.5c2.6-0.4,5.1-1.5,7.1-3.5c4.9-4.9,4.9-12.8,0-17.7v0
	C77.3,6.6,64.8,1,51,1C23.4,1,1,23.4,1,51s22.4,50,50,50c13.8,0,26.3-5.6,35.4-14.6l0,0C91.2,81.5,91.2,73.6,86.4,68.7z"/>
<path id="XMLID_2482_" class="st0" d="M140,1c-27.6,0-50,22.4-50,50s22.4,50,50,50s50-22.4,50-50S167.6,1,140,1z M140,76
	c-13.8,0-25-11.2-25-25s11.2-25,25-25s25,11.2,25,25S153.8,76,140,76z"/>
<path id="XMLID_2485_" class="st0" d="M215,13.5C215,6.6,209.4,1,202.5,1C195.6,1,190,6.6,190,13.5c0,2.8,0,26.2,0,37.5
	c0,11.3,0,34.7,0,37.5c0,6.9,5.6,12.5,12.5,12.5c6.9,0,12.5-5.6,12.5-12.5c0-2.8,0-26.2,0-37.5C215,39.7,215,16.3,215,13.5z"/>
<path id="XMLID_2486_" class="st0" d="M265,1c-27.6,0-50,22.4-50,50s22.4,50,50,50s50-22.4,50-50S292.6,1,265,1z M265,76
	c-13.8,0-25-11.2-25-25s11.2-25,25-25s25,11.2,25,25S278.8,76,265,76z"/>
<path id="XMLID_2489_" class="st0" d="M338.9,8.4c-2-4.3-6.3-7.4-11.4-7.4C320.6,1,315,6.6,315,13.5c0,2.8,0,26.2,0,37.5
	s0,34.7,0,37.5c0,6.9,5.6,12.5,12.5,12.5c5.1,0,9.4-3,11.4-7.4c0.7-1.6,1.1-3.3,1.1-5.1c0-2.8,0-26.2,0-37.5s0-34.7,0-37.5
	C340,11.7,339.6,9.9,338.9,8.4z"/>
<path id="XMLID_2490_" class="st0" d="M400.4,16.9L400.4,16.9L400.4,16.9c-16.7-16.7-42.2-19.1-61.5-7.3c0.7,1.6,1.1,3.3,1.1,5.1
	l0,37.5c0-6.4,2.4-12.8,7.3-17.7c9.8-9.8,25.6-9.8,35.4,0l0,0l0,0c4.9,4.9,12.8,4.9,17.7,0C405.3,29.7,405.3,21.8,400.4,16.9z"/>
<g id="XMLID_2491_">
	<path id="XMLID_2492_" class="st0" d="M516.5,38.5c-3.2,0-38.8,25-25,25c6.4,0,21.8,0,25,0c6.9,0,12.5-5.6,12.5-12.5
		S523.4,38.5,516.5,38.5z"/>
	<path id="XMLID_2493_" class="st0" d="M479,26c13.8,0,25,11.2,25,25c0,6.9,5.6,12.5,12.5,12.5c6.9,0,12.5-5.6,12.5-12.5
		c0-27.6-22.4-50-50-50s-50,22.4-50,50c0,27.6,22.4,50,50,50c13.8,0,26.3-5.6,35.4-14.6h0c4.9-4.9,4.9-12.8,0-17.7
		c-3.3-3.3-8.1-4.4-12.3-3.2c-2,0.6-3.8,1.6-5.4,3.2c-3.1,3.1-6.9,5.3-11.2,6.5c-2.1,0.6-4.2,0.9-6.5,0.9c-13.8,0-25-11.2-25-25
		S465.2,26,479,26z"/>
</g>
<g id="XMLID_2494_">
	<path id="XMLID_2495_" class="st0" d="M779,63.5c0,6.9-5.6,12.5-12.5,12.5S754,70.4,754,63.5c0,10.9,0,23,0,25
		c0,3.5-1.4,6.6-3.7,8.8c4.9,2.3,10.4,3.7,16.2,3.7s11.3-1.3,16.2-3.7c-2.3-2.3-3.7-5.4-3.7-8.8C779,86.5,779,74.4,779,63.5z"/>
	<g id="XMLID_2496_">
		<path id="XMLID_2497_" class="st0" d="M791.5,1C784.6,1,779,6.6,779,13.5c0,1.3,0,7.4,0,14.6c0,7.8,0,17,0,22.9
			c0,3.4,0,7.8,0,12.5c0,10.9,0,23,0,25c0,3.5,1.4,6.6,3.7,8.8c12.6-6,21.3-18.9,21.3-33.8c0-4.7,0-9.1,0-12.5c0-11.3,0-34.7,0-37.5
			C804,6.6,798.4,1,791.5,1z"/>
		<path id="XMLID_2498_" class="st0" d="M741.5,1C734.6,1,729,6.6,729,13.5c0,2.8,0,26.2,0,37.5c0,3.4,0,7.8,0,12.5
			c0,14.9,8.7,27.8,21.3,33.8c2.3-2.3,3.7-5.4,3.7-8.8c0-2,0-14.1,0-25c0-4.7,0-9.1,0-12.5c0-5.9,0-15,0-22.9c0-7.2,0-13.3,0-14.6
			C754,6.6,748.4,1,741.5,1z"/>
	</g>
</g>
</svg>
