<?xml version="1.0" encoding="utf-8"?>
<!-- Generator: Adobe Illustrator 19.0.0, SVG Export Plug-In . SVG Version: 6.00 Build 0)  -->
<svg version="1.1" id="Layer_1" xmlns="http://www.w3.org/2000/svg" xmlns:xlink="http://www.w3.org/1999/xlink" x="0px" y="0px"
	 viewBox="0 0 140.2 27.8" style="enable-background:new 0 0 140.2 27.8;" xml:space="preserve">
<style type="text/css">
	.st0{fill:#FFFFFF;}
</style>
<g>
	<path class="st0" d="M99,21.4c0.1-1.6,0.2-3.3,0.3-4.9c0-0.4,0.5-1.1-0.2-1.1c-0.7-0.1-1.5-0.4-2,0.7c-1.2,2.5-4.4,3.4-6.9,2.1
		c-0.9-0.5-1.5-1.1-1.8-2.1c-0.1-0.5-0.3-0.8-0.9-0.7c-0.5,0-0.9,0.1-1.2,0.7c-1.2,2.4-4.2,3.5-6.6,2.4c-1.6-0.7-1.6-0.7-3,0
		c-1.9,0.9-3.6,0.1-4.2-1.9c-0.1-0.4-0.2-0.9-0.2-1.3c0-0.6-0.1-1-0.7-1.1c-0.7-0.1-0.7,0.5-0.9,0.9c-0.4,0.8-0.9,1.7-1.5,2.4
		c-0.3,0.3-0.6,0.9-1.2,0.5c-0.5-0.4-0.2-0.8,0.1-1.2c0.7-1.2,1.3-2.4,1.4-3.8c0.1-1.2,1-1.5,1.9-1.5c0.6,0,1.1,0.1,1.7,0.2
		c1.7,0.4,1.8,0.7,1.8,2.4c0,0.7,0,1.4,0.3,2.1c0.2,0.5,0.5,0.9,1.1,0.9c0.5,0,0.9-0.4,1.1-0.8c0.1-0.2,0.2-0.4,0.2-0.7
		c0.1-2,1.3-3.2,3.1-3.8c2-0.7,3.8-0.3,5.3,1.1c1.4,1.3,2.2,1.3,3.5,0c2-1.9,5.1-2,7.2-0.1c0.4,0.3,0.7,0.6,1.2,0.8
		c1.1,0.5,1.9,0,2-1.1c0.3-2.3,0.6-4.6,0.9-6.9c0.4-2.2,2-3.7,3.9-3.7c1.7,0,2.8,1.2,2.6,2.9c-0.4,3-2.1,5.4-3.8,7.7
		c-0.5,0.7-1.2,1.1-1.3,2.1c-0.1,1,0.2,1.8,1.1,2.1c1,0.3,1.9,0.1,2.5-0.8c0.1-0.1,0.1-0.2,0.2-0.3c0.3-0.4,0.3-1.3,1-1.1
		c0.7,0.2,0.4,1,0.3,1.6c-0.2,1.1-0.8,1.9-1.8,2.2c-1.1,0.3-1,0.7-0.6,1.6c0.8,1.7,1,3.6,0.5,5.5c-0.4,1.4-1.3,2.2-2.7,2.4
		c-1,0.2-2.2-0.6-2.8-1.9C99.1,24.5,98.9,23,99,21.4z M102.4,10.3c1-1.1,1.7-2.5,2.2-3.9c0.2-0.6,0.3-1.3-0.4-1.5
		c-0.6-0.1-1.2,0.3-1.3,1C102.7,7.4,102.2,8.8,102.4,10.3c0,0,0,0.1-0.1,0.1C102.3,10.4,102.3,10.3,102.4,10.3z M101.6,18
		c0,1.9,0,3.5,0,5c0,0.7,0.2,1.3,0.6,1.8c0.4,0.6,0.8,0.5,1.1-0.1c0.2-0.4,0.3-0.9,0.3-1.4C103.5,21.4,102.8,19.8,101.6,18z
		 M82.1,13.7c-1,0-2,0.7-2,1.5c0,0.7,0.9,1.4,1.8,1.4c1,0,2-0.8,1.9-1.5C83.7,14,83,13.7,82.1,13.7z M92.7,16.6c1,0,2-0.7,2-1.5
		c0-0.8-0.7-1.4-1.8-1.4c-1.1,0-1.8,0.5-1.9,1.4C91,15.9,91.7,16.5,92.7,16.6z"/>
	<path class="st0" d="M23.8,12.8c0.6-0.6,0.9-0.9,1.3-1.2c0.7-0.6,1.5-0.9,2.3-0.5c0.8,0.4,1,1.2,1,2c0,0.7-0.1,1.4-0.1,2
		c0,0.7,0.1,1.4,1,1.5c0.9,0.1,1.6-0.1,2-1c0.1-0.3,0.2-0.6,0.3-0.9c1.1-3.7,5.5-4.9,8.3-2.2c1.4,1.3,2.6,1.3,4,0
		c2-1.9,4.8-2,6.9-0.2c0.2,0.2,0.4,0.3,0.7,0.5c0.7,0.6,1.5,0.9,2.3,0.3c0.8-0.6,0.5-1.6,0.6-2.4c0-0.3-0.3-0.3-0.5-0.3
		c-0.3,0-0.6,0-1,0c-0.5,0-1.2,0.1-1.3-0.7c-0.1-0.7,0.4-1.3,1-1.2c2,0.1,2.2-1.1,2.3-2.6c0-1,0.7-1.6,1.8-1.5c1.2,0.2,1.1,1,1,1.9
		C57.3,8,57.3,8,58.9,8.3c0.6,0.1,1.2,0.3,1.2,1c0,0.7-0.6,1-1.2,1.1c-1.9,0.3-2,0.4-2,2.3c0,0.8-0.1,1.5,0,2.3
		c0.1,0.7,0.3,1.5,1.2,1.6c0.8,0.1,1.5-0.2,1.8-1c0.2-0.4,0.3-1.1,0.9-0.8c0.6,0.3,0.4,0.9,0.3,1.4c-0.2,1.2-1.4,2.4-2.6,2.6
		c-1.5,0.3-2.8-0.3-3.6-1.6c-0.3-0.5-0.5-1-0.5-1.6c-0.1-0.5-0.2-0.6-0.7-0.4c-0.4,0.2-0.8,0.3-1.3,0.2c-0.5-0.1-0.7,0.2-0.8,0.6
		c-1,2-2.6,2.8-4.8,2.7c-1.9-0.1-3.4-0.8-4-2.8c-0.2-0.5-0.5-0.6-1-0.6c-0.4,0.1-0.9-0.2-1.2,0.5c-1.1,2.9-5.6,3.9-8,1.6
		c-0.4-0.4-0.6-0.3-0.9,0c-2.3,2-4.7,1.4-5.9-1.4c-0.2-0.4-0.1-1.1-0.7-1.1c-0.5,0-0.6,0.7-0.8,1.1c-0.3,0.5-0.6,1.1-0.9,1.7
		c-0.4,0.7-0.9,1.2-1.8,0.9c-0.8-0.2-1.1-0.9-1.1-1.7c0.1-1.6,0.1-3.1,0.3-4.7c0.2-2.1,0.5-4.3,0.7-6.4c0.1-1,0.6-1.4,1.6-1.4
		c1,0.1,1.4,0.6,1.4,1.6C24.2,8.2,24,10.4,23.8,12.8z M47.2,16.5c1,0,2-0.8,1.9-1.6c-0.1-1-0.7-1.3-1.6-1.3c-1.2,0-1.9,0.5-1.9,1.4
		C45.5,15.9,46.2,16.5,47.2,16.5z M36.5,13.7c-1.3,0-2.1,0.6-2.1,1.5c0,1.1,0.8,1.3,1.6,1.4c1,0.1,2.1-0.7,2-1.6
		C38,13.9,37.2,13.7,36.5,13.7z"/>
	<path class="st0" d="M10.2,18.7c-2.9,0.1-5.6-0.3-8.1-1.5c-0.2-0.1-0.4-0.2-0.6-0.4c-0.6-0.4-1.3-0.7-1-1.5
		c0.4-0.8,1.2-0.4,1.8-0.2c3.8,1.4,7.8,1.7,11.8,0.8c0.7-0.2,1.8-0.3,1.9-1.3c0.1-1-0.9-1.3-1.7-1.6c-2.3-0.9-4.8-1.2-7.2-1.8
		c-1.4-0.3-2.9-0.6-4.3-1.2c-0.3-0.1-0.7-0.3-1-0.5c-2.1-1.4-2.4-3-0.8-5c1.4-1.7,3.3-2.5,5.3-3.1C9.6,0.4,13,0.1,16.5,0
		c1,0,2,0,2.3,1.2C19,2,17.9,2.6,16.5,2.6C12.5,2.7,8.7,3.2,5,4.8C4.5,5,4,5.3,3.6,5.7C2.6,6.6,2.7,7.6,4,8.1C5.6,8.8,7.3,9,9.1,9.3
		c2.7,0.5,5.3,1.1,7.8,2.3c1.2,0.6,2.2,1.4,2.2,2.9c0,1.5-0.8,2.4-2.1,3C14.7,18.6,12.5,18.8,10.2,18.7z"/>
	<path class="st0" d="M71.2,0c1.2,0,2.3,0.1,3.4,0.5c2.7,1.1,3.1,4,0.8,5.8c-2.1,1.6-4.6,2.5-7.3,2.8c-1.2,0.1-1.7,0.5-1.8,1.7
		c-0.1,2.1-0.4,4.3-0.5,6.4c-0.1,0.9-0.3,1.5-1.3,1.5c-1,0-1.4-0.7-1.3-1.6C63.7,13,64,9,64.4,4.9c0.1-0.8,0.2-1.6-1.1-1.2
		c-0.5,0.1-1.1,0-1.3-0.6c-0.2-0.6,0.2-1,0.7-1.2C65.5,0.6,68.3,0.1,71.2,0z M71.1,2.4c-0.3,0-0.6,0-0.8,0c-3.2,0.2-3.4,0.5-3.5,3.7
		c0,0.8,0.3,0.9,1,0.9c1.5-0.1,2.9-0.5,4.2-1.2c0.9-0.5,2.2-0.9,1.9-2.1C73.6,2.3,72.2,2.4,71.1,2.4z"/>
	<path class="st0" d="M123.2,0c-1.2,1.5-2.2,2.7-4.1,2.4c-0.9-0.2-1.3,0.2-1.1,1.1c0.4,1.9-0.9,2.9-2.4,4.1c0.1-2-0.2-3.7,0.2-5.4
		c0.3-1.2,1.2-2,2.5-2.1C119.8-0.1,121.3,0,123.2,0z"/>
	<path class="st0" d="M140.2,7.5c-1.3-1.1-2.6-1.9-2.2-3.7c0.2-1.1-0.2-1.7-1.4-1.4c-1.6,0.4-2.5-0.8-3.4-1.8
		C132.7,0.2,133,0,133.5,0c1.4,0,2.7-0.1,4.1,0c1.3,0.1,2.5,1.1,2.6,2.3C140.3,4,140.2,5.6,140.2,7.5z"/>
	<path class="st0" d="M115.6,11.2c1.5,1.1,2.7,2,2.4,3.9c-0.2,1.1,0.4,1.6,1.4,1.4c1.5-0.3,2.4,0.5,3.3,1.5c0.1,0.1,0.3,0.3,0.3,0.5
		c0,0.3-0.3,0.2-0.5,0.2c-1.5,0-3,0.1-4.4,0c-1.2-0.1-2.3-1.4-2.4-2.7C115.6,14.5,115.6,13,115.6,11.2z"/>
	<path class="st0" d="M132.8,18.6c1-1.3,1.9-2.4,3.7-2.1c1.2,0.2,1.7-0.3,1.4-1.5c-0.3-1.4,0.5-2.3,1.5-3.2c0.2-0.2,0.3-0.4,0.6-0.3
		c0.3,0.1,0.2,0.4,0.2,0.6c0,1.3,0.1,2.6,0,3.8c-0.1,1.6-1.3,2.7-2.9,2.7c-1.3,0-2.6,0-3.9,0C133.2,18.7,133.1,18.7,132.8,18.6z"/>
	<path class="st0" d="M102.4,10.3c0,0,0,0.1-0.1,0.1C102.3,10.4,102.4,10.3,102.4,10.3C102.4,10.3,102.4,10.3,102.4,10.3z"/>
</g>
</svg>
