<?xml version="1.0" encoding="utf-8"?>
<!-- Generator: Adobe Illustrator 19.0.0, SVG Export Plug-In . SVG Version: 6.00 Build 0)  -->
<svg version="1.1" id="Layer_1" xmlns="http://www.w3.org/2000/svg" xmlns:xlink="http://www.w3.org/1999/xlink" x="0px" y="0px"
	 viewBox="0 0 515 275" style="enable-background:new 0 0 515 275;" xml:space="preserve">
<style type="text/css">
	.st0{fill:url(#XMLID_28_);}
	.st1{fill:url(#XMLID_29_);}
	.st2{fill:#FFF4DA;}
	.st3{fill:url(#XMLID_30_);}
	.st4{fill:url(#XMLID_31_);}
</style>
<linearGradient id="XMLID_28_" gradientUnits="userSpaceOnUse" x1="70" y1="260" x2="70" y2="45">
	<stop  offset="0" style="stop-color:#FFF4DA;stop-opacity:0"/>
	<stop  offset="1" style="stop-color:#D8D0BB"/>
</linearGradient>
<path id="XMLID_297_" class="st0" d="M77.5,45c-4.1,0-10.9,0-15,0c-4.1,0-7.5,3.4-7.5,7.5c0,4.1,7.5,200,7.5,200
	c0,4.1,3.4,7.5,7.5,7.5c4.1,0,7.5-3.4,7.5-7.5c0,0,7.5-195.9,7.5-200C85,48.4,81.6,45,77.5,45z"/>
<linearGradient id="XMLID_29_" gradientUnits="userSpaceOnUse" x1="445" y1="260" x2="445" y2="45">
	<stop  offset="0" style="stop-color:#FFF4DA;stop-opacity:0"/>
	<stop  offset="1" style="stop-color:#D8D0BB"/>
</linearGradient>
<path id="XMLID_296_" class="st1" d="M452.5,45c-4.1,0-10.9,0-15,0c-4.1,0-7.5,3.4-7.5,7.5c0,4.1,7.5,200,7.5,200
	c0,4.1,3.4,7.5,7.5,7.5c4.1,0,7.5-3.4,7.5-7.5c0,0,7.5-195.9,7.5-200C460,48.4,456.6,45,452.5,45z"/>
<path id="XMLID_295_" class="st2" d="M62.5,60c-4.1,0-10.9,0-15,0c-4.1,0-7.5,3.4-7.5,7.5c0,4.1,7.5,200,7.5,200
	c0,4.1,3.4,7.5,7.5,7.5c4.1,0,7.5-3.4,7.5-7.5c0,0,7.5-195.9,7.5-200C70,63.4,66.6,60,62.5,60z"/>
<path id="XMLID_294_" class="st2" d="M467.5,60c-4.1,0-10.9,0-15,0c-4.1,0-7.5,3.4-7.5,7.5c0,4.1,7.5,200,7.5,200
	c0,4.1,3.4,7.5,7.5,7.5c4.1,0,7.5-3.4,7.5-7.5c0,0,7.5-195.9,7.5-200C475,63.4,471.6,60,467.5,60z"/>
<g id="XMLID_290_">
	<path id="XMLID_293_" class="st2" d="M490,52.5c0-4.1-3.4-7.5-7.5-7.5s-445.9,0-450,0S25,48.4,25,52.5s0,10.9,0,15s3.4,7.5,7.5,7.5
		s445.9,0,450,0s7.5-3.4,7.5-7.5S490,56.6,490,52.5z"/>
	<path id="XMLID_292_" class="st2" d="M482.5,0c-4.1,0-445.9,0-450,0S0,23.4,0,27.5c0,4.1,0,20.9,0,25S3.4,60,7.5,60s495.9,0,500,0
		s7.5-3.4,7.5-7.5s0-20.9,0-25C515,23.4,486.6,0,482.5,0z"/>
	<linearGradient id="XMLID_30_" gradientUnits="userSpaceOnUse" x1="257.4999" y1="60" x2="257.4999" y2="24.3933">
		<stop  offset="0" style="stop-color:#E9E0C9"/>
		<stop  offset="1" style="stop-color:#FFF4DA"/>
	</linearGradient>
	<path id="XMLID_291_" class="st3" d="M0,27.5c0,4.1,0,20.9,0,25S3.4,60,7.5,60s495.9,0,500,0s7.5-3.4,7.5-7.5s0-20.9,0-25
		C515,23.4,0,23.4,0,27.5z"/>
	<linearGradient id="XMLID_31_" gradientUnits="userSpaceOnUse" x1="257.4998" y1="75" x2="257.4998" y2="60">
		<stop  offset="0" style="stop-color:#FFF4DA;stop-opacity:0"/>
		<stop  offset="1" style="stop-color:#D8D0BB"/>
	</linearGradient>
	<path id="XMLID_418_" class="st4" d="M25,67.5c0,4.1,3.4,7.5,7.5,7.5s445.9,0,450,0s7.5-3.4,7.5-7.5c0-2.1,0-4.8,0-7.5
		c-77.3,0-387.7,0-465,0C25,62.7,25,65.4,25,67.5z"/>
</g>
</svg>
