<?xml version="1.0" encoding="utf-8"?>
<!-- Generator: Adobe Illustrator 19.0.0, SVG Export Plug-In . SVG Version: 6.00 Build 0)  -->
<svg version="1.1" id="Layer_1" xmlns="http://www.w3.org/2000/svg" xmlns:xlink="http://www.w3.org/1999/xlink" x="0px" y="0px"
	 viewBox="0 0 515 434.8" style="enable-background:new 0 0 515 434.8;" xml:space="preserve">
<style type="text/css">
	.st0{fill:url(#XMLID_41_);}
	.st1{fill:url(#XMLID_42_);}
	.st2{fill:#FFF4DA;}
	.st3{fill:url(#XMLID_43_);}
	.st4{fill:url(#XMLID_44_);}
	.st5{fill:#FAF8FB;stroke:#713078;stroke-width:3;stroke-miterlimit:10;}
</style>
<linearGradient id="XMLID_41_" gradientUnits="userSpaceOnUse" x1="70" y1="419.7843" x2="70" y2="204.7843">
	<stop  offset="0" style="stop-color:#FFF4DA;stop-opacity:0"/>
	<stop  offset="1" style="stop-color:#D8D0BB"/>
</linearGradient>
<path id="XMLID_297_" class="st0" d="M77.5,204.8c-4.1,0-10.9,0-15,0c-4.1,0-7.5,3.4-7.5,7.5c0,4.1,7.5,200,7.5,200
	c0,4.1,3.4,7.5,7.5,7.5c4.1,0,7.5-3.4,7.5-7.5c0,0,7.5-195.9,7.5-200C85,208.1,81.6,204.8,77.5,204.8z"/>
<linearGradient id="XMLID_42_" gradientUnits="userSpaceOnUse" x1="445" y1="419.7843" x2="445" y2="204.7843">
	<stop  offset="0" style="stop-color:#FFF4DA;stop-opacity:0"/>
	<stop  offset="1" style="stop-color:#D8D0BB"/>
</linearGradient>
<path id="XMLID_296_" class="st1" d="M452.5,204.8c-4.1,0-10.9,0-15,0c-4.1,0-7.5,3.4-7.5,7.5c0,4.1,7.5,200,7.5,200
	c0,4.1,3.4,7.5,7.5,7.5c4.1,0,7.5-3.4,7.5-7.5c0,0,7.5-195.9,7.5-200C460,208.1,456.6,204.8,452.5,204.8z"/>
<path id="XMLID_295_" class="st2" d="M62.5,219.8c-4.1,0-10.9,0-15,0c-4.1,0-7.5,3.4-7.5,7.5c0,4.1,7.5,200,7.5,200
	c0,4.1,3.4,7.5,7.5,7.5c4.1,0,7.5-3.4,7.5-7.5c0,0,7.5-195.9,7.5-200C70,223.1,66.6,219.8,62.5,219.8z"/>
<path id="XMLID_294_" class="st2" d="M467.5,219.8c-4.1,0-10.9,0-15,0c-4.1,0-7.5,3.4-7.5,7.5c0,4.1,7.5,200,7.5,200
	c0,4.1,3.4,7.5,7.5,7.5c4.1,0,7.5-3.4,7.5-7.5c0,0,7.5-195.9,7.5-200C475,223.1,471.6,219.8,467.5,219.8z"/>
<g id="XMLID_290_">
	<path id="XMLID_293_" class="st2" d="M490,212.3c0-4.1-3.4-7.5-7.5-7.5s-445.9,0-450,0s-7.5,3.4-7.5,7.5s0,10.9,0,15
		s3.4,7.5,7.5,7.5s445.9,0,450,0s7.5-3.4,7.5-7.5S490,216.4,490,212.3z"/>
	<path id="XMLID_292_" class="st2" d="M482.5,159.8c-4.1,0-445.9,0-450,0S0,183.1,0,187.3c0,4.1,0,20.9,0,25s3.4,7.5,7.5,7.5
		s495.9,0,500,0s7.5-3.4,7.5-7.5s0-20.9,0-25C515,183.1,486.6,159.8,482.5,159.8z"/>
	<linearGradient id="XMLID_43_" gradientUnits="userSpaceOnUse" x1="257.4999" y1="219.7843" x2="257.4999" y2="184.1776">
		<stop  offset="0" style="stop-color:#E9E0C9"/>
		<stop  offset="1" style="stop-color:#FFF4DA"/>
	</linearGradient>
	<path id="XMLID_291_" class="st3" d="M0,187.3c0,4.1,0,20.9,0,25s3.4,7.5,7.5,7.5s495.9,0,500,0s7.5-3.4,7.5-7.5s0-20.9,0-25
		C515,183.1,0,183.1,0,187.3z"/>
	<linearGradient id="XMLID_44_" gradientUnits="userSpaceOnUse" x1="257.4998" y1="234.7843" x2="257.4998" y2="219.7843">
		<stop  offset="0" style="stop-color:#FFF4DA;stop-opacity:0"/>
		<stop  offset="1" style="stop-color:#D8D0BB"/>
	</linearGradient>
	<path id="XMLID_418_" class="st4" d="M25,227.3c0,4.1,3.4,7.5,7.5,7.5s445.9,0,450,0s7.5-3.4,7.5-7.5c0-2.1,0-4.8,0-7.5
		c-77.3,0-387.7,0-465,0C25,222.5,25,225.2,25,227.3z"/>
</g>
<g id="XMLID_248_">
	<g id="XMLID_250_">
		<path id="XMLID_253_" class="st5" d="M390,9c0-4.1-3.4-7.5-7.5-7.5s-245.9,0-250,0S125,4.9,125,9c0,4.1,0,145.9,0,150
			s3.4,7.5,7.5,7.5s245.9,0,250,0s7.5-3.4,7.5-7.5S390,13.1,390,9z"/>
		<rect id="XMLID_252_" x="137.5" y="14" class="st5" width="240" height="140"/>
		<path id="XMLID_251_" class="st5" d="M107.5,162.8c0,6.9,5.6,12.5,12.5,12.5c5.1,0,81.1,0,137.5,0s132.4,0,137.5,0
			c6.9,0,12.5-5.6,12.5-12.5S107.5,155.9,107.5,162.8z"/>
	</g>
</g>
</svg>
