<?xml version="1.0" encoding="utf-8"?>
<!-- Generator: Adobe Illustrator 19.0.0, SVG Export Plug-In . SVG Version: 6.00 Build 0)  -->
<svg version="1.1" id="Layer_1" xmlns="http://www.w3.org/2000/svg" xmlns:xlink="http://www.w3.org/1999/xlink" x="0px" y="0px"
	 viewBox="0 0 383.6 620.5" style="enable-background:new 0 0 383.6 620.5;" xml:space="preserve">
<style type="text/css">
	.st0{fill:#D8D0BB;}
	.st1{fill:url(#XMLID_145_);}
	.st2{fill:url(#XMLID_146_);}
	.st3{fill:url(#XMLID_147_);}
	.st4{fill:#FFF4DA;}
	.st5{fill:url(#XMLID_148_);}
	.st6{fill:url(#XMLID_149_);}
	.st7{fill:url(#XMLID_150_);}
	.st8{fill:url(#XMLID_151_);}
	.st9{fill:#FFFFFF;}
	.st10{fill:url(#XMLID_152_);}
	.st11{fill:url(#XMLID_153_);}
	.st12{fill:url(#XMLID_154_);}
	.st13{fill:url(#XMLID_155_);}
	.st14{fill:url(#XMLID_156_);}
	.st15{fill:url(#XMLID_157_);}
	.st16{fill:url(#XMLID_158_);}
	.st17{fill:url(#XMLID_159_);}
	.st18{fill:url(#XMLID_160_);}
	.st19{fill:url(#XMLID_161_);}
</style>
<g id="XMLID_4877_">
	<g id="XMLID_4918_">
		<path id="XMLID_4920_" class="st0" d="M192.3,169.8c-9.8-9.8-25.6-9.8-35.4,0c-9.8,9.8-9.8,25.6,0,35.4
			c3.9,3.9,33.4,33.4,49.1,49.1c16.5,16.5,45.5,45.5,49.1,49.1c7.3,7.3,19.2,7.3,26.5,0s7.3-19.2,0-26.5
			c-6.8-6.8-43.7-26.1-57.9-40.3C211.7,224.6,202,179.6,192.3,169.8z"/>
		<path id="XMLID_4919_" class="st0" d="M313,236.6c-14.2,14.2-51.2,33.5-57.9,40.3c-7.3,7.3-7.3,19.2,0,26.5
			c7.3,7.3,19.2,7.3,26.5,0c3.6-3.6,32.6-32.6,49.1-49.1c17.5-17.5,45.9-45.9,49.1-49.1c4.9-4.9,4.9-12.8,0-17.7
			C374.9,182.6,330.6,219,313,236.6z"/>
	</g>
	<linearGradient id="XMLID_145_" gradientUnits="userSpaceOnUse" x1="124.5729" y1="206.1306" x2="224.5729" y2="206.1306">
		<stop  offset="0" style="stop-color:#E9E0C9"/>
		<stop  offset="1" style="stop-color:#FFF4DA"/>
	</linearGradient>
	<path id="XMLID_4917_" class="st1" d="M187.1,137.4c0-0.5,37.5-26.7,37.5-50c0-27.6-22.4-50-50-50c-27.6,0-50,22.4-50,50
		c0,23.3,37.5,49.5,37.5,50c0,10.1-12.5,39.9-12.5,50c0,6.3,2.3,12,6.2,16.4c-17.2,42.3-25.9,102.6-25.9,108.6
		c0,34.5,28,62.5,62.5,62.5c16.8,0,27-50.2,28.4-101.8C222.1,219.4,187.1,142.4,187.1,137.4z"/>
	<linearGradient id="XMLID_146_" gradientUnits="userSpaceOnUse" x1="162.0729" y1="212.3806" x2="162.0729" y2="81.4089">
		<stop  offset="0" style="stop-color:#FFF4DA;stop-opacity:0"/>
		<stop  offset="1" style="stop-color:#D8D0BB"/>
	</linearGradient>
	<path id="XMLID_4916_" class="st2" d="M124.6,87.4c0,23.3,37.5,49.5,37.5,50c0,10.1-12.5,39.9-12.5,50c0,13.8,11.2,25,25,25
		s25-11.2,25-25c0-10.1-12.5-39.9-12.5-50C187.1,136.9,124.6,59.8,124.6,87.4z"/>
	<linearGradient id="XMLID_147_" gradientUnits="userSpaceOnUse" x1="124.5729" y1="113.5074" x2="224.5729" y2="113.5074">
		<stop  offset="0" style="stop-color:#FFF4DA;stop-opacity:0"/>
		<stop  offset="1" style="stop-color:#D8D0BB"/>
	</linearGradient>
	<path id="XMLID_4915_" class="st3" d="M224.6,87.4c0-27.6-22.4-50-50-50c-27.6,0-50,22.4-50,50c0,23.3,37.5,49.5,37.5,50
		c0,10.1-12.5,39.9-12.5,50c0,13.8,37.5-39.9,37.5-50C187.1,136.9,224.6,110.7,224.6,87.4z"/>
	<g id="XMLID_4899_">
		<g id="XMLID_4912_">
			<path id="XMLID_4914_" class="st4" d="M251.1,10.7c-5.5-5.5-20-8.8-36.5-10.1c-16.6,1.2-31.1,4.6-36.5,10.1
				c-11,11-23.5,62.4-23.5,76.5c0,11.1,55.6,58.6,84.2,78.6c17.8-20,35.8-67.5,35.8-78.6C274.6,73.1,262.1,21.7,251.1,10.7z"/>
			<linearGradient id="XMLID_148_" gradientUnits="userSpaceOnUse" x1="124.5728" y1="87.3805" x2="274.5729" y2="87.3805">
				<stop  offset="0" style="stop-color:#E9E0C9"/>
				<stop  offset="1" style="stop-color:#FFF4DA"/>
			</linearGradient>
			<path id="XMLID_4913_" class="st5" d="M154.6,87.2c0-14.1,12.5-65.5,23.5-76.5c5.5-5.5,20-8.8,36.5-10.1
				c-26.3-2-57.8,1.4-66.5,10.1c-11,11-23.5,62.4-23.5,76.5c0,14.1,90.4,87.5,100,87.5c4.5,0,9.3-3.4,14.2-8.9
				C210.2,145.8,154.6,98.3,154.6,87.2z"/>
		</g>
		<g id="XMLID_4910_">
			<linearGradient id="XMLID_149_" gradientUnits="userSpaceOnUse" x1="263.0388" y1="99.1938" x2="263.0388" y2="91.6938">
				<stop  offset="0" style="stop-color:#D8D0BB"/>
				<stop  offset="1" style="stop-color:#FFF4DA;stop-opacity:0"/>
			</linearGradient>
			<path id="XMLID_4911_" class="st6" d="M252.1,91.7c0,4.1,17.3,7.5,20,7.5c0,0,0,0,0.1,0c0.8-2.8,1.5-5.4,1.9-7.5H252.1z"/>
		</g>
		
			<linearGradient id="XMLID_150_" gradientUnits="userSpaceOnUse" x1="2724.8013" y1="25.8784" x2="2737.2903" y2="25.8784" gradientTransform="matrix(-1 0 0 1 2956.8335 0)">
			<stop  offset="0" style="stop-color:#D8D0BB"/>
			<stop  offset="1" style="stop-color:#FFF4DA;stop-opacity:0"/>
		</linearGradient>
		<path id="XMLID_4909_" class="st7" d="M223.5,34.8c6.8-6.8,7.3-17.6,1.4-24.9c0.5,0.4,1.1,0.9,1.6,1.4c7.3,7.3,7.3,19.2,0,26.5
			C219.2,45.1,216.7,41.6,223.5,34.8z"/>
		
			<linearGradient id="XMLID_151_" gradientUnits="userSpaceOnUse" x1="1146.99" y1="72.4172" x2="1184.49" y2="72.4172" gradientTransform="matrix(-1 0 0 1 1399.0627 0)">
			<stop  offset="0" style="stop-color:#D8D0BB"/>
			<stop  offset="1" style="stop-color:#FFF4DA;stop-opacity:0"/>
		</linearGradient>
		<circle id="XMLID_4908_" class="st8" cx="233.3" cy="72.4" r="18.8"/>
		<circle id="XMLID_4907_" class="st9" cx="233.3" cy="62.4" r="18.8"/>
		<linearGradient id="XMLID_152_" gradientUnits="userSpaceOnUse" x1="165.1557" y1="60.024" x2="198.1004" y2="60.024">
			<stop  offset="0" style="stop-color:#FFF4DA;stop-opacity:0"/>
			<stop  offset="1" style="stop-color:#D8D0BB"/>
		</linearGradient>
		<path id="XMLID_4906_" class="st10" d="M170.6,35c-6.1,6.1-7.1,15.5-3,22.6c-4.2,7.2-3.2,16.5,3,22.6c7.3,7.3,19.2,7.3,26.5,0
			C203.3,74.2,178,27.7,170.6,35z"/>
		<g id="XMLID_4904_">
			<linearGradient id="XMLID_153_" gradientUnits="userSpaceOnUse" x1="251.6315" y1="126.1585" x2="251.6315" y2="116.8621">
				<stop  offset="0" style="stop-color:#D8D0BB;stop-opacity:0.25"/>
				<stop  offset="0.5" style="stop-color:#FFF4DA;stop-opacity:0"/>
			</linearGradient>
			<path id="XMLID_4905_" class="st11" d="M261.3,117.5c-10.3,2.7-29.9,8.7-19.2,8.7c5.9,0,14.5,0,20,0c0.8-1.8,1.5-3.5,2.2-5.2
				C262.8,120.3,261.7,119.1,261.3,117.5z"/>
		</g>
		<linearGradient id="XMLID_154_" gradientUnits="userSpaceOnUse" x1="256.2548" y1="135.9358" x2="256.2548" y2="117.6624">
			<stop  offset="0" style="stop-color:#D8D0BB"/>
			<stop  offset="0.5" style="stop-color:#FFF4DA;stop-opacity:0"/>
		</linearGradient>
		<path id="XMLID_4903_" class="st12" d="M252.1,126.2c-4.2,0,0.6,5.4,5.4,9.8c1.6-3.2,3.1-6.5,4.5-9.8
			C258.9,126.2,254.2,126.2,252.1,126.2z"/>
		<linearGradient id="XMLID_155_" gradientUnits="userSpaceOnUse" x1="269.584" y1="104.2185" x2="269.584" y2="98.495">
			<stop  offset="0" style="stop-color:#D8D0BB;stop-opacity:0.5"/>
			<stop  offset="1" style="stop-color:#FFF4DA;stop-opacity:0"/>
		</linearGradient>
		<path id="XMLID_4902_" class="st13" d="M272,99.2c-0.7,0-2.6-0.3-4.9-0.7c0,0.2-0.1,0.5-0.1,0.7c0,2.3,1.5,4.1,3.6,4.8
			C271.2,102.3,271.7,100.7,272,99.2C272.1,99.2,272.1,99.2,272,99.2z"/>
		<linearGradient id="XMLID_156_" gradientUnits="userSpaceOnUse" x1="236.1622" y1="167.687" x2="236.1622" y2="163.7657">
			<stop  offset="0" style="stop-color:#FFF4DA;stop-opacity:0"/>
			<stop  offset="1" style="stop-color:#D8D0BB;stop-opacity:0.5"/>
		</linearGradient>
		<path id="XMLID_4901_" class="st14" d="M231.9,166.9c0,1.4,3.7,0.7,5.7,0.2c1-1,1.9-2.1,2.9-3.3
			C236.4,163.6,231.9,164.6,231.9,166.9z"/>
		<linearGradient id="XMLID_157_" gradientUnits="userSpaceOnUse" x1="124.5728" y1="130.2727" x2="226.9627" y2="130.2727">
			<stop  offset="0" style="stop-color:#FFF4DA;stop-opacity:0"/>
			<stop  offset="1" style="stop-color:#D8D0BB"/>
		</linearGradient>
		<path id="XMLID_4900_" class="st15" d="M124.6,87.2c0,14.1,90.4,87.5,100,87.5C245.3,174.7,124.6,73.1,124.6,87.2z"/>
	</g>
	<g id="XMLID_4841_">
		<path id="XMLID_4889_" class="st0" d="M174.6,474.4c0-5.5,0-47.2,0-69.4c0-11.6,25-51.2,25-68.1c0-20.7-16.8-37.5-37.5-37.5
			s-37.5,16.8-37.5,37.5c0,16.9,0,123.7,0,137.5s11.2,25,25,25S174.6,488.2,174.6,474.4z"/>
		<g id="XMLID_4847_">
			<path id="XMLID_4878_" class="st0" d="M159.5,497.5c12.8-5.3,18.8-19.9,13.5-32.7c-5.3-12.8-19.9-18.8-32.7-13.5
				c-12.8,5.3-38.9,43.2-54.6,49.7c-22.9,9.5-73.6,36.5-70.9,42.9s10,9.4,16.3,6.8c4.1-1.7,41.2-17.1,64.1-26.6
				C115.9,515.5,154.4,499.6,159.5,497.5z"/>
		</g>
	</g>
	<g id="XMLID_4921_">
		<path id="XMLID_4926_" class="st4" d="M226.1,459.7c-2.1-5.1-18.1-43.6-26.6-64.1c-4.5-10.8,3.5-56.9-3-72.5
			c-7.9-19.1-29.9-28.2-49-20.3c-19.1,7.9-28.2,29.9-20.3,49c6.5,15.6,47.3,114.3,52.6,127c5.3,12.8,19.9,18.8,32.7,13.5
			C225.3,487,231.4,472.4,226.1,459.7z"/>
		
			<linearGradient id="XMLID_158_" gradientUnits="userSpaceOnUse" x1="5361.6196" y1="5755.0737" x2="5537.3418" y2="5755.0737" gradientTransform="matrix(0.3827 0.9239 -0.9239 0.3827 3397.5071 -6846.7754)">
			<stop  offset="0" style="stop-color:#E9E0C9"/>
			<stop  offset="1" style="stop-color:#FFF4DA"/>
		</linearGradient>
		<path id="XMLID_4925_" class="st16" d="M147.6,302.8c-19.1,7.9-28.2,29.9-20.3,49c6.5,15.6,47.3,114.3,52.6,127
			C185.2,491.5,166.7,294.8,147.6,302.8z"/>
		<g id="XMLID_4922_">
			<path id="XMLID_4924_" class="st4" d="M228.3,469.1c0-13.8-11.2-25-25-25s-25,11.2-25,25s25,52.4,25,69.4
				c0,24.8,5.6,81.9,12.5,81.9s12.5-5.6,12.5-12.5c0-4.5,0-44.6,0-69.4C228.3,516.3,228.3,474.6,228.3,469.1z"/>
			
				<linearGradient id="XMLID_159_" gradientUnits="userSpaceOnUse" x1="19.6552" y1="71.8025" x2="19.6552" y2="155.694" gradientTransform="matrix(1 0 0 1 190.6496 464.7732)">
				<stop  offset="0" style="stop-color:#E9E0C9"/>
				<stop  offset="1" style="stop-color:#FFF4DA"/>
			</linearGradient>
			<path id="XMLID_4923_" class="st17" d="M203.3,538.5c0,24.8,5.6,81.9,12.5,81.9S203.3,521.6,203.3,538.5z"/>
		</g>
	</g>
	<g id="XMLID_4894_">
		<path id="XMLID_4898_" class="st4" d="M192.3,205.1c9.8-9.8,9.8-25.6,0-35.4c-9.8-9.8-25.6-9.8-35.4,0
			c-3.9,3.9-33.4,33.4-49.1,49.1c-16.5,16.5-45.5,45.5-49.1,49.1c-7.3,7.3-7.3,19.2,0,26.5c7.3,7.3,19.2,7.3,26.5,0
			c6.8-6.8,26.1-43.7,40.3-57.9C137.5,224.5,182.5,214.8,192.3,205.1z"/>
		<path id="XMLID_4897_" class="st4" d="M125.5,325.8c-14.2-14.2-33.5-51.2-40.3-57.9c-7.3-7.3-19.2-7.3-26.5,0
			c-7.3,7.3-7.3,19.2,0,26.5c3.6,3.6,32.6,32.6,49.1,49.1c17.5,17.5,45.9,45.9,49.1,49.1c4.9,4.9,12.8,4.9,17.7,0
			C179.5,387.7,143,343.4,125.5,325.8z"/>
		
			<linearGradient id="XMLID_160_" gradientUnits="userSpaceOnUse" x1="3050.7971" y1="4423.0527" x2="3050.7971" y2="4520.5298" gradientTransform="matrix(0.7071 0.7071 -0.7071 0.7071 1154.7931 -5122.8955)">
			<stop  offset="0" style="stop-color:#E9E0C9"/>
			<stop  offset="1" style="stop-color:#FFF4DA"/>
		</linearGradient>
		<path id="XMLID_4896_" class="st18" d="M192.3,169.7c-9.8-9.8-25.6-9.8-35.4,0c-3.9,3.9-33.4,33.4-49.1,49.1
			C91.3,235.3,202,179.5,192.3,169.7z"/>
		
			<linearGradient id="XMLID_161_" gradientUnits="userSpaceOnUse" x1="3128.5522" y1="4595.1733" x2="3036.8118" y2="4595.1733" gradientTransform="matrix(0.7071 0.7071 -0.7071 0.7071 1154.7931 -5122.8955)">
			<stop  offset="0" style="stop-color:#E9E0C9"/>
			<stop  offset="1" style="stop-color:#FFF4DA"/>
		</linearGradient>
		<path id="XMLID_4895_" class="st19" d="M58.7,267.9c-7.3,7.3-7.3,19.2,0,26.5c3.6,3.6,32.6,32.6,49.1,49.1
			C125.3,361,66,260.6,58.7,267.9z"/>
	</g>
</g>
</svg>
