<?xml version="1.0" encoding="utf-8"?>
<!-- Generator: Adobe Illustrator 19.0.0, SVG Export Plug-In . SVG Version: 6.00 Build 0)  -->
<svg version="1.1" id="Layer_1" xmlns="http://www.w3.org/2000/svg" xmlns:xlink="http://www.w3.org/1999/xlink" x="0px" y="0px"
	 viewBox="0 0 383.6 620.5" style="enable-background:new 0 0 383.6 620.5;" xml:space="preserve">
<style type="text/css">
	.st0{fill:#D8D0BB;}
	.st1{fill:url(#XMLID_145_);}
	.st2{fill:url(#XMLID_146_);}
	.st3{fill:url(#XMLID_147_);}
	.st4{fill:#FFF4DA;}
	.st5{fill:url(#XMLID_148_);}
	.st6{fill:url(#XMLID_149_);}
	.st7{fill:url(#XMLID_150_);}
	.st8{fill:url(#XMLID_151_);}
	.st9{fill:#FFFFFF;}
	.st10{fill:url(#XMLID_152_);}
	.st11{fill:url(#XMLID_153_);}
	.st12{fill:url(#XMLID_154_);}
	.st13{fill:url(#XMLID_155_);}
	.st14{fill:url(#XMLID_156_);}
	.st15{fill:url(#XMLID_157_);}
	.st16{fill:url(#XMLID_158_);}
	.st17{fill:url(#XMLID_159_);}
	.st18{fill:url(#XMLID_160_);}
	.st19{fill:url(#XMLID_161_);}
</style>
<g id="XMLID_4666_">
	<g id="XMLID_4842_">
		<path id="XMLID_4844_" class="st0" d="M192.1,169.8c-9.8-9.8-25.6-9.8-35.4,0c-9.8,9.8-9.8,25.6,0,35.4
			c3.9,3.9,33.4,33.4,49.1,49.1c16.5,16.5,45.5,45.5,49.1,49.1c7.3,7.3,19.2,7.3,26.5,0c7.3-7.3,7.3-19.2,0-26.5
			c-6.8-6.8-43.7-26.1-57.9-40.3C211.5,224.6,201.9,179.6,192.1,169.8z"/>
		<path id="XMLID_4843_" class="st0" d="M312.9,236.6c-14.2,14.2-51.2,33.5-57.9,40.3c-7.3,7.3-7.3,19.2,0,26.5
			c7.3,7.3,19.2,7.3,26.5,0c3.6-3.6,32.6-32.6,49.1-49.1c17.5-17.5,45.9-45.9,49.1-49.1c4.9-4.9,4.9-12.8,0-17.7
			S330.4,219,312.9,236.6z"/>
	</g>
	<linearGradient id="XMLID_145_" gradientUnits="userSpaceOnUse" x1="124.4314" y1="206.1306" x2="224.4314" y2="206.1306">
		<stop  offset="0" style="stop-color:#E9E0C9"/>
		<stop  offset="1" style="stop-color:#FFF4DA"/>
	</linearGradient>
	<path id="XMLID_4838_" class="st1" d="M186.9,137.4c0-0.5,37.5-26.7,37.5-50c0-27.6-22.4-50-50-50c-27.6,0-50,22.4-50,50
		c0,23.3,37.5,49.5,37.5,50c0,10.1-12.5,39.9-12.5,50c0,6.3,2.3,12,6.2,16.4c-17.2,42.3-25.9,102.6-25.9,108.6
		c0,34.5,28,62.5,62.5,62.5c16.8,0,27-50.2,28.4-101.8C221.9,219.4,186.9,142.4,186.9,137.4z"/>
	<linearGradient id="XMLID_146_" gradientUnits="userSpaceOnUse" x1="161.9314" y1="212.3806" x2="161.9314" y2="81.4089">
		<stop  offset="0" style="stop-color:#FFF4DA;stop-opacity:0"/>
		<stop  offset="1" style="stop-color:#D8D0BB"/>
	</linearGradient>
	<path id="XMLID_4837_" class="st2" d="M124.4,87.4c0,23.3,37.5,49.5,37.5,50c0,10.1-12.5,39.9-12.5,50c0,13.8,11.2,25,25,25
		s25-11.2,25-25c0-10.1-12.5-39.9-12.5-50C186.9,136.9,124.4,59.8,124.4,87.4z"/>
	<linearGradient id="XMLID_147_" gradientUnits="userSpaceOnUse" x1="124.4314" y1="113.5074" x2="224.4314" y2="113.5074">
		<stop  offset="0" style="stop-color:#FFF4DA;stop-opacity:0"/>
		<stop  offset="1" style="stop-color:#D8D0BB"/>
	</linearGradient>
	<path id="XMLID_4836_" class="st3" d="M224.4,87.4c0-27.6-22.4-50-50-50c-27.6,0-50,22.4-50,50c0,23.3,37.5,49.5,37.5,50
		c0,10.1-12.5,39.9-12.5,50c0,13.8,37.5-39.9,37.5-50C186.9,136.9,224.4,110.7,224.4,87.4z"/>
	<g id="XMLID_4777_">
		<g id="XMLID_4833_">
			<path id="XMLID_4835_" class="st4" d="M250.9,10.7c-5.5-5.5-20-8.8-36.5-10.1c-16.6,1.2-31.1,4.6-36.5,10.1
				c-11,11-23.5,62.4-23.5,76.5c0,11.1,55.6,58.6,84.2,78.6c17.8-20,35.8-67.5,35.8-78.6C274.4,73.1,261.9,21.7,250.9,10.7z"/>
			<linearGradient id="XMLID_148_" gradientUnits="userSpaceOnUse" x1="124.4314" y1="87.3805" x2="274.4314" y2="87.3805">
				<stop  offset="0" style="stop-color:#E9E0C9"/>
				<stop  offset="1" style="stop-color:#FFF4DA"/>
			</linearGradient>
			<path id="XMLID_4834_" class="st5" d="M154.4,87.2c0-14.1,12.5-65.5,23.5-76.5c5.5-5.5,20-8.8,36.5-10.1
				c-26.3-2-57.8,1.4-66.5,10.1c-11,11-23.5,62.4-23.5,76.5c0,14.1,90.4,87.5,100,87.5c4.5,0,9.3-3.4,14.2-8.9
				C210,145.8,154.4,98.3,154.4,87.2z"/>
		</g>
		<g id="XMLID_4831_">
			<linearGradient id="XMLID_149_" gradientUnits="userSpaceOnUse" x1="262.8973" y1="99.1938" x2="262.8973" y2="91.6938">
				<stop  offset="0" style="stop-color:#D8D0BB"/>
				<stop  offset="1" style="stop-color:#FFF4DA;stop-opacity:0"/>
			</linearGradient>
			<path id="XMLID_4832_" class="st6" d="M251.9,91.7c0,4.1,17.3,7.5,20,7.5c0,0,0,0,0.1,0c0.8-2.8,1.5-5.4,1.9-7.5H251.9z"/>
		</g>
		
			<linearGradient id="XMLID_150_" gradientUnits="userSpaceOnUse" x1="2724.9426" y1="25.8784" x2="2737.4319" y2="25.8784" gradientTransform="matrix(-1 0 0 1 2956.8335 0)">
			<stop  offset="0" style="stop-color:#D8D0BB"/>
			<stop  offset="1" style="stop-color:#FFF4DA;stop-opacity:0"/>
		</linearGradient>
		<path id="XMLID_4830_" class="st7" d="M223.4,34.8c6.8-6.8,7.3-17.6,1.4-24.9c0.5,0.4,1.1,0.9,1.6,1.4c7.3,7.3,7.3,19.2,0,26.5
			C219.1,45.1,216.6,41.6,223.4,34.8z"/>
		
			<linearGradient id="XMLID_151_" gradientUnits="userSpaceOnUse" x1="1147.1315" y1="72.4172" x2="1184.6315" y2="72.4172" gradientTransform="matrix(-1 0 0 1 1399.0627 0)">
			<stop  offset="0" style="stop-color:#D8D0BB"/>
			<stop  offset="1" style="stop-color:#FFF4DA;stop-opacity:0"/>
		</linearGradient>
		<circle id="XMLID_4829_" class="st8" cx="233.2" cy="72.4" r="18.8"/>
		<circle id="XMLID_4828_" class="st9" cx="233.2" cy="62.4" r="18.8"/>
		<linearGradient id="XMLID_152_" gradientUnits="userSpaceOnUse" x1="165.0142" y1="60.024" x2="197.959" y2="60.024">
			<stop  offset="0" style="stop-color:#FFF4DA;stop-opacity:0"/>
			<stop  offset="1" style="stop-color:#D8D0BB"/>
		</linearGradient>
		<path id="XMLID_4827_" class="st10" d="M170.5,35c-6.1,6.1-7.1,15.5-3,22.6c-4.2,7.2-3.2,16.5,3,22.6c7.3,7.3,19.2,7.3,26.5,0
			C203.1,74.2,177.8,27.7,170.5,35z"/>
		<g id="XMLID_4825_">
			<linearGradient id="XMLID_153_" gradientUnits="userSpaceOnUse" x1="251.49" y1="126.1585" x2="251.49" y2="116.8621">
				<stop  offset="0" style="stop-color:#D8D0BB;stop-opacity:0.25"/>
				<stop  offset="0.5" style="stop-color:#FFF4DA;stop-opacity:0"/>
			</linearGradient>
			<path id="XMLID_4826_" class="st11" d="M261.2,117.5c-10.3,2.7-29.9,8.7-19.2,8.7c5.9,0,14.5,0,20,0c0.8-1.8,1.5-3.5,2.2-5.2
				C262.7,120.3,261.5,119.1,261.2,117.5z"/>
		</g>
		<linearGradient id="XMLID_154_" gradientUnits="userSpaceOnUse" x1="256.1133" y1="135.9358" x2="256.1133" y2="117.6624">
			<stop  offset="0" style="stop-color:#D8D0BB"/>
			<stop  offset="0.5" style="stop-color:#FFF4DA;stop-opacity:0"/>
		</linearGradient>
		<path id="XMLID_4824_" class="st12" d="M251.9,126.2c-4.2,0,0.6,5.4,5.4,9.8c1.6-3.2,3.1-6.5,4.5-9.8
			C258.8,126.2,254.1,126.2,251.9,126.2z"/>
		<linearGradient id="XMLID_155_" gradientUnits="userSpaceOnUse" x1="269.4425" y1="104.2185" x2="269.4425" y2="98.495">
			<stop  offset="0" style="stop-color:#D8D0BB;stop-opacity:0.5"/>
			<stop  offset="1" style="stop-color:#FFF4DA;stop-opacity:0"/>
		</linearGradient>
		<path id="XMLID_4823_" class="st13" d="M271.9,99.2c-0.7,0-2.6-0.3-4.9-0.7c0,0.2-0.1,0.5-0.1,0.7c0,2.3,1.5,4.1,3.6,4.8
			C271,102.3,271.5,100.7,271.9,99.2C272,99.2,271.9,99.2,271.9,99.2z"/>
		<linearGradient id="XMLID_156_" gradientUnits="userSpaceOnUse" x1="236.0207" y1="167.687" x2="236.0207" y2="163.7657">
			<stop  offset="0" style="stop-color:#FFF4DA;stop-opacity:0"/>
			<stop  offset="1" style="stop-color:#D8D0BB;stop-opacity:0.5"/>
		</linearGradient>
		<path id="XMLID_4779_" class="st14" d="M231.7,166.9c0,1.4,3.7,0.7,5.7,0.2c1-1,1.9-2.1,2.9-3.3
			C236.2,163.6,231.7,164.6,231.7,166.9z"/>
		<linearGradient id="XMLID_157_" gradientUnits="userSpaceOnUse" x1="124.4313" y1="130.2727" x2="226.8212" y2="130.2727">
			<stop  offset="0" style="stop-color:#FFF4DA;stop-opacity:0"/>
			<stop  offset="1" style="stop-color:#D8D0BB"/>
		</linearGradient>
		<path id="XMLID_4778_" class="st15" d="M124.4,87.2c0,14.1,90.4,87.5,100,87.5C245.1,174.7,124.4,73.1,124.4,87.2z"/>
	</g>
	<g id="XMLID_4703_">
		<path id="XMLID_4708_" class="st0" d="M174.4,474.4c0-5.5,0-47.2,0-69.4c0-11.6,25-51.2,25-68.1c0-20.7-16.8-37.5-37.5-37.5
			s-37.5,16.8-37.5,37.5c0,16.9,0,123.7,0,137.5s11.2,25,25,25S174.4,488.2,174.4,474.4z"/>
		<g id="XMLID_4704_">
			<path id="XMLID_4706_" class="st0" d="M167.4,492.1c9.8-9.8,9.8-25.6,0-35.4c-9.8-9.8-25.6-9.8-35.4,0
				c-9.8,9.8-19.4,54.8-31.4,66.8c-17.5,17.5-54,61.9-49.1,66.8c4.9,4.9,12.8,4.9,17.7,0c3.2-3.2,31.5-31.5,49.1-49.1
				C134.1,525.5,163.5,496,167.4,492.1z"/>
		</g>
	</g>
	<g id="XMLID_4845_">
		<path id="XMLID_4850_" class="st4" d="M268,425.3c-3.9-3.9-33.4-33.4-49.1-49.1c-8.2-8.2-18.5-53.9-30.5-65.8
			c-14.6-14.6-38.4-14.6-53,0c-14.6,14.6-14.6,38.4,0,53c11.9,11.9,87.5,87.5,97.2,97.2c9.8,9.8,25.6,9.8,35.4,0
			C277.8,450.9,277.8,435.1,268,425.3z"/>
		
			<linearGradient id="XMLID_158_" gradientUnits="userSpaceOnUse" x1="2704.656" y1="4563.02" x2="2880.3779" y2="4563.02" gradientTransform="matrix(0.7071 0.7071 -0.7071 0.7071 1437.7938 -4816.9253)">
			<stop  offset="0" style="stop-color:#E9E0C9"/>
			<stop  offset="1" style="stop-color:#FFF4DA"/>
		</linearGradient>
		<path id="XMLID_4849_" class="st16" d="M135.4,310.4c-14.6,14.6-14.6,38.4,0,53c11.9,11.9,87.5,87.5,97.2,97.2
			C242.4,470.4,150.1,295.8,135.4,310.4z"/>
		<g id="XMLID_4851_">
			<path id="XMLID_4853_" class="st4" d="M273.7,433.2c-5.3-12.8-19.9-18.8-32.7-13.5c-12.8,5.3-18.8,19.9-13.5,32.7
				c5.3,12.8,43.2,38.9,49.7,54.6c9.5,22.9,36.5,73.6,42.9,70.9c6.4-2.6,9.4-10,6.8-16.3c-1.7-4.1-17.1-41.2-26.6-64.1
				C291.7,476.8,275.8,438.3,273.7,433.2z"/>
			
				<linearGradient id="XMLID_159_" gradientUnits="userSpaceOnUse" x1="104.1934" y1="-2839.0913" x2="104.1934" y2="-2755.1997" gradientTransform="matrix(0.9239 -0.3827 0.3827 0.9239 1273.0522 3165.2756)">
				<stop  offset="0" style="stop-color:#E9E0C9"/>
				<stop  offset="1" style="stop-color:#FFF4DA"/>
			</linearGradient>
			<path id="XMLID_4852_" class="st17" d="M277.1,506.9c9.5,22.9,36.5,73.6,42.9,70.9C326.4,575.2,270.6,491.2,277.1,506.9z"/>
		</g>
	</g>
	<g id="XMLID_4667_">
		<path id="XMLID_4671_" class="st4" d="M192.1,205.1c9.8-9.8,9.8-25.6,0-35.4c-9.8-9.8-25.6-9.8-35.4,0
			c-3.9,3.9-33.4,33.4-49.1,49.1c-16.5,16.5-45.5,45.5-49.1,49.1c-7.3,7.3-7.3,19.2,0,26.5c7.3,7.3,19.2,7.3,26.5,0
			c6.8-6.8,26.1-43.7,40.3-57.9C137.3,224.5,182.3,214.8,192.1,205.1z"/>
		<path id="XMLID_4670_" class="st4" d="M125.3,325.8c-14.2-14.2-33.5-51.2-40.3-57.9c-7.3-7.3-19.2-7.3-26.5,0
			c-7.3,7.3-7.3,19.2,0,26.5c3.6,3.6,32.6,32.6,49.1,49.1c17.5,17.5,45.9,45.9,49.1,49.1c4.9,4.9,12.8,4.9,17.7,0
			S142.9,343.4,125.3,325.8z"/>
		
			<linearGradient id="XMLID_160_" gradientUnits="userSpaceOnUse" x1="3050.697" y1="4423.1528" x2="3050.697" y2="4520.6299" gradientTransform="matrix(0.7071 0.7071 -0.7071 0.7071 1154.7931 -5122.8955)">
			<stop  offset="0" style="stop-color:#E9E0C9"/>
			<stop  offset="1" style="stop-color:#FFF4DA"/>
		</linearGradient>
		<path id="XMLID_4669_" class="st18" d="M192.1,169.7c-9.8-9.8-25.6-9.8-35.4,0c-3.9,3.9-33.4,33.4-49.1,49.1
			C91.2,235.3,201.9,179.5,192.1,169.7z"/>
		
			<linearGradient id="XMLID_161_" gradientUnits="userSpaceOnUse" x1="3128.4521" y1="4595.2734" x2="3036.7119" y2="4595.2734" gradientTransform="matrix(0.7071 0.7071 -0.7071 0.7071 1154.7931 -5122.8955)">
			<stop  offset="0" style="stop-color:#E9E0C9"/>
			<stop  offset="1" style="stop-color:#FFF4DA"/>
		</linearGradient>
		<path id="XMLID_4668_" class="st19" d="M58.6,267.9c-7.3,7.3-7.3,19.2,0,26.5c3.6,3.6,32.6,32.6,49.1,49.1
			C125.2,361,65.9,260.6,58.6,267.9z"/>
	</g>
</g>
</svg>
