<?xml version="1.0" encoding="utf-8"?>
<!-- Generator: Adobe Illustrator 19.0.0, SVG Export Plug-In . SVG Version: 6.00 Build 0)  -->
<svg version="1.1" id="Layer_1" xmlns="http://www.w3.org/2000/svg" xmlns:xlink="http://www.w3.org/1999/xlink" x="0px" y="0px"
	 viewBox="0 0 383.6 620.5" style="enable-background:new 0 0 383.6 620.5;" xml:space="preserve">
<style type="text/css">
	.st0{fill:#D8D0BB;}
	.st1{fill:url(#XMLID_145_);}
	.st2{fill:url(#XMLID_146_);}
	.st3{fill:url(#XMLID_147_);}
	.st4{fill:#FFF4DA;}
	.st5{fill:url(#XMLID_148_);}
	.st6{fill:url(#XMLID_149_);}
	.st7{fill:url(#XMLID_150_);}
	.st8{fill:url(#XMLID_151_);}
	.st9{fill:#FFFFFF;}
	.st10{fill:url(#XMLID_152_);}
	.st11{fill:url(#XMLID_153_);}
	.st12{fill:url(#XMLID_154_);}
	.st13{fill:url(#XMLID_155_);}
	.st14{fill:url(#XMLID_156_);}
	.st15{fill:url(#XMLID_157_);}
	.st16{fill:url(#XMLID_158_);}
	.st17{fill:url(#XMLID_159_);}
	.st18{fill:url(#XMLID_160_);}
	.st19{fill:url(#XMLID_161_);}
</style>
<g id="XMLID_4611_">
	<g id="XMLID_4694_">
		<path id="XMLID_4696_" class="st0" d="M192.3,169.7c-9.8-9.8-25.6-9.8-35.4,0c-9.8,9.8-9.8,25.6,0,35.4
			c3.9,3.9,33.4,33.4,49.1,49.1c16.5,16.5,45.5,45.5,49.1,49.1c7.3,7.3,19.2,7.3,26.5,0c7.3-7.3,7.3-19.2,0-26.5
			c-6.8-6.8-43.7-26.1-57.9-40.3C211.7,224.5,202.1,179.5,192.3,169.7z"/>
		<path id="XMLID_4695_" class="st0" d="M313.1,236.5c-14.2,14.2-51.2,33.5-57.9,40.3c-7.3,7.3-7.3,19.2,0,26.5
			c7.3,7.3,19.2,7.3,26.5,0c3.6-3.6,32.6-32.6,49.1-49.1c17.5-17.5,45.9-45.9,49.1-49.1c4.9-4.9,4.9-12.8,0-17.7
			C375,182.5,330.6,219,313.1,236.5z"/>
	</g>
	<g id="XMLID_4691_">
		<path id="XMLID_4693_" class="st0" d="M268.2,425.3c-3.9-3.9-33.4-33.4-49.1-49.1c-8.2-8.2-18.5-53.9-30.5-65.8
			c-14.6-14.6-38.4-14.6-53,0c-14.6,14.6-14.6,38.4,0,53c11.9,11.9,87.5,87.5,97.2,97.2c9.8,9.8,25.6,9.8,35.4,0
			C278,450.8,278,435,268.2,425.3z"/>
		<path id="XMLID_4692_" class="st0" d="M275.8,442.7c0-13.8-11.2-25-25-25c-13.8,0-25,11.2-25,25s25,52.4,25,69.4
			c0,24.8,5.6,81.9,12.5,81.9s12.5-5.6,12.5-12.5c0-4.5,0-44.6,0-69.4C275.8,489.9,275.8,448.2,275.8,442.7z"/>
	</g>
	<linearGradient id="XMLID_145_" gradientUnits="userSpaceOnUse" x1="124.6603" y1="206.0636" x2="224.6604" y2="206.0636">
		<stop  offset="0" style="stop-color:#E9E0C9"/>
		<stop  offset="1" style="stop-color:#FFF4DA"/>
	</linearGradient>
	<path id="XMLID_4690_" class="st1" d="M187.2,137.3c0-0.5,37.5-26.7,37.5-50c0-27.6-22.4-50-50-50c-27.6,0-50,22.4-50,50
		c0,23.3,37.5,49.5,37.5,50c0,10.1-12.5,39.9-12.5,50c0,6.3,2.3,12,6.2,16.4c-17.2,42.3-25.9,102.6-25.9,108.6
		c0,34.5,28,62.5,62.5,62.5c16.8,0,27-50.2,28.4-101.8C222.2,219.4,187.2,142.4,187.2,137.3z"/>
	<linearGradient id="XMLID_146_" gradientUnits="userSpaceOnUse" x1="162.1604" y1="212.3136" x2="162.1604" y2="81.3419">
		<stop  offset="0" style="stop-color:#FFF4DA;stop-opacity:0"/>
		<stop  offset="1" style="stop-color:#D8D0BB"/>
	</linearGradient>
	<path id="XMLID_4689_" class="st2" d="M124.7,87.3c0,23.3,37.5,49.5,37.5,50c0,10.1-12.5,39.9-12.5,50c0,13.8,11.2,25,25,25
		s25-11.2,25-25c0-10.1-12.5-39.9-12.5-50C187.2,136.8,124.7,59.7,124.7,87.3z"/>
	<linearGradient id="XMLID_147_" gradientUnits="userSpaceOnUse" x1="124.6604" y1="113.4405" x2="224.6604" y2="113.4405">
		<stop  offset="0" style="stop-color:#FFF4DA;stop-opacity:0"/>
		<stop  offset="1" style="stop-color:#D8D0BB"/>
	</linearGradient>
	<path id="XMLID_4688_" class="st3" d="M224.7,87.3c0-27.6-22.4-50-50-50c-27.6,0-50,22.4-50,50c0,23.3,37.5,49.5,37.5,50
		c0,10.1-12.5,39.9-12.5,50c0,13.8,37.5-39.9,37.5-50C187.2,136.8,224.7,110.6,224.7,87.3z"/>
	<g id="XMLID_4672_">
		<g id="XMLID_4685_">
			<path id="XMLID_4687_" class="st4" d="M251.2,10.6c-5.5-5.5-20-8.8-36.5-10.1c-16.6,1.2-31.1,4.6-36.5,10.1
				c-11,11-23.5,62.4-23.5,76.5c0,11.1,55.6,58.6,84.2,78.6c17.8-20,35.8-67.5,35.8-78.6C274.7,73,262.2,21.6,251.2,10.6z"/>
			<linearGradient id="XMLID_148_" gradientUnits="userSpaceOnUse" x1="124.6603" y1="87.3136" x2="274.6604" y2="87.3136">
				<stop  offset="0" style="stop-color:#E9E0C9"/>
				<stop  offset="1" style="stop-color:#FFF4DA"/>
			</linearGradient>
			<path id="XMLID_4686_" class="st5" d="M154.7,87.1c0-14.1,12.5-65.5,23.5-76.5c5.5-5.5,20-8.8,36.5-10.1
				c-26.3-2-57.8,1.4-66.5,10.1c-11,11-23.5,62.4-23.5,76.5c0,14.1,90.4,87.5,100,87.5c4.5,0,9.3-3.4,14.2-8.9
				C210.3,145.7,154.7,98.2,154.7,87.1z"/>
		</g>
		<g id="XMLID_4683_">
			<linearGradient id="XMLID_149_" gradientUnits="userSpaceOnUse" x1="263.1263" y1="99.1268" x2="263.1263" y2="91.6268">
				<stop  offset="0" style="stop-color:#D8D0BB"/>
				<stop  offset="1" style="stop-color:#FFF4DA;stop-opacity:0"/>
			</linearGradient>
			<path id="XMLID_4684_" class="st6" d="M252.1,91.6c0,4.1,17.3,7.5,20,7.5c0,0,0,0,0.1,0c0.8-2.8,1.5-5.4,1.9-7.5H252.1z"/>
		</g>
		
			<linearGradient id="XMLID_150_" gradientUnits="userSpaceOnUse" x1="2724.7136" y1="25.8114" x2="2737.2029" y2="25.8114" gradientTransform="matrix(-1 0 0 1 2956.8335 0)">
			<stop  offset="0" style="stop-color:#D8D0BB"/>
			<stop  offset="1" style="stop-color:#FFF4DA;stop-opacity:0"/>
		</linearGradient>
		<path id="XMLID_4682_" class="st7" d="M223.6,34.7c6.8-6.8,7.3-17.6,1.4-24.9c0.5,0.4,1.1,0.9,1.6,1.4c7.3,7.3,7.3,19.2,0,26.5
			C219.3,45.1,216.8,41.6,223.6,34.7z"/>
		
			<linearGradient id="XMLID_151_" gradientUnits="userSpaceOnUse" x1="1146.9025" y1="72.3503" x2="1184.4025" y2="72.3503" gradientTransform="matrix(-1 0 0 1 1399.0627 0)">
			<stop  offset="0" style="stop-color:#D8D0BB"/>
			<stop  offset="1" style="stop-color:#FFF4DA;stop-opacity:0"/>
		</linearGradient>
		<circle id="XMLID_4681_" class="st8" cx="233.4" cy="72.4" r="18.8"/>
		<circle id="XMLID_4680_" class="st9" cx="233.4" cy="62.3" r="18.8"/>
		<linearGradient id="XMLID_152_" gradientUnits="userSpaceOnUse" x1="165.2432" y1="59.957" x2="198.1879" y2="59.957">
			<stop  offset="0" style="stop-color:#FFF4DA;stop-opacity:0"/>
			<stop  offset="1" style="stop-color:#D8D0BB"/>
		</linearGradient>
		<path id="XMLID_4679_" class="st10" d="M170.7,35c-6.1,6.1-7.1,15.5-3,22.6c-4.2,7.2-3.2,16.5,3,22.6c7.3,7.3,19.2,7.3,26.5,0
			C203.4,74.1,178,27.6,170.7,35z"/>
		<g id="XMLID_4677_">
			<linearGradient id="XMLID_153_" gradientUnits="userSpaceOnUse" x1="251.719" y1="126.0916" x2="251.719" y2="116.7952">
				<stop  offset="0" style="stop-color:#D8D0BB;stop-opacity:0.25"/>
				<stop  offset="0.5" style="stop-color:#FFF4DA;stop-opacity:0"/>
			</linearGradient>
			<path id="XMLID_4678_" class="st11" d="M261.4,117.4c-10.3,2.7-29.9,8.7-19.2,8.7c5.9,0,14.5,0,20,0c0.8-1.8,1.5-3.5,2.2-5.2
				C262.9,120.3,261.8,119,261.4,117.4z"/>
		</g>
		<linearGradient id="XMLID_154_" gradientUnits="userSpaceOnUse" x1="256.3423" y1="135.8689" x2="256.3423" y2="117.5955">
			<stop  offset="0" style="stop-color:#D8D0BB"/>
			<stop  offset="0.5" style="stop-color:#FFF4DA;stop-opacity:0"/>
		</linearGradient>
		<path id="XMLID_4676_" class="st12" d="M252.2,126.1c-4.2,0,0.6,5.4,5.4,9.8c1.6-3.2,3.1-6.5,4.5-9.8
			C259,126.1,254.3,126.1,252.2,126.1z"/>
		<linearGradient id="XMLID_155_" gradientUnits="userSpaceOnUse" x1="269.6715" y1="104.1515" x2="269.6715" y2="98.4281">
			<stop  offset="0" style="stop-color:#D8D0BB;stop-opacity:0.5"/>
			<stop  offset="1" style="stop-color:#FFF4DA;stop-opacity:0"/>
		</linearGradient>
		<path id="XMLID_4675_" class="st13" d="M272.1,99.2c-0.7,0-2.6-0.3-4.9-0.7c0,0.2-0.1,0.5-0.1,0.7c0,2.3,1.5,4.1,3.6,4.8
			C271.3,102.3,271.8,100.7,272.1,99.2C272.2,99.1,272.1,99.2,272.1,99.2z"/>
		<linearGradient id="XMLID_156_" gradientUnits="userSpaceOnUse" x1="236.2497" y1="167.6201" x2="236.2497" y2="163.6988">
			<stop  offset="0" style="stop-color:#FFF4DA;stop-opacity:0"/>
			<stop  offset="1" style="stop-color:#D8D0BB;stop-opacity:0.5"/>
		</linearGradient>
		<path id="XMLID_4674_" class="st14" d="M231.9,166.8c0,1.4,3.7,0.7,5.7,0.2c1-1,1.9-2.1,2.9-3.3
			C236.5,163.5,231.9,164.5,231.9,166.8z"/>
		<linearGradient id="XMLID_157_" gradientUnits="userSpaceOnUse" x1="124.6603" y1="130.2057" x2="227.0502" y2="130.2057">
			<stop  offset="0" style="stop-color:#FFF4DA;stop-opacity:0"/>
			<stop  offset="1" style="stop-color:#D8D0BB"/>
		</linearGradient>
		<path id="XMLID_4673_" class="st15" d="M124.7,87.1c0,14.1,90.4,87.5,100,87.5C245.4,174.6,124.7,73,124.7,87.1z"/>
	</g>
	<g id="XMLID_4752_">
		<path id="XMLID_4776_" class="st4" d="M121.1,468.7c2.1-5.1,18.1-43.6,26.6-64.1c4.5-10.8,42.7-37.7,49.1-53.3
			c7.9-19.1-1.2-41.1-20.3-49c-19.1-7.9-41.1,1.2-49,20.3c-6.5,15.6-47.3,114.3-52.6,127c-5.3,12.8,0.8,27.4,13.5,32.7
			S115.8,481.4,121.1,468.7z"/>
		
			<linearGradient id="XMLID_158_" gradientUnits="userSpaceOnUse" x1="10795.2773" y1="4709.8594" x2="10970.999" y2="4709.8594" gradientTransform="matrix(-0.3827 0.9239 -0.9239 -0.3827 8643.7529 -7875.2446)">
			<stop  offset="0" style="stop-color:#E9E0C9"/>
			<stop  offset="1" style="stop-color:#FFF4DA"/>
		</linearGradient>
		<path id="XMLID_4775_" class="st16" d="M176.5,302.2c-19.1-7.9-41.1,1.2-49,20.3c-6.5,15.6-47.3,114.3-52.6,127
			S195.6,310.2,176.5,302.2z"/>
		<g id="XMLID_4753_">
			<path id="XMLID_4774_" class="st4" d="M116.3,477.1c9.8-9.8,9.8-25.6,0-35.4c-9.8-9.8-25.6-9.8-35.4,0
				c-9.8,9.8-19.4,54.8-31.4,66.8C32,526-4.4,570.4,0.4,575.3c4.9,4.9,12.8,4.9,17.7,0c3.2-3.2,31.5-31.5,49.1-49.1
				C82.9,510.5,112.4,481,116.3,477.1z"/>
			
				<linearGradient id="XMLID_159_" gradientUnits="userSpaceOnUse" x1="3142.4792" y1="5052.3379" x2="3142.4792" y2="5136.2295" gradientTransform="matrix(0.7071 0.7071 -0.7071 0.7071 1406.3458 -5282.5586)">
				<stop  offset="0" style="stop-color:#E9E0C9"/>
				<stop  offset="1" style="stop-color:#FFF4DA"/>
			</linearGradient>
			<path id="XMLID_4754_" class="st17" d="M49.5,508.5C32,526-4.4,570.4,0.4,575.3C5.3,580.1,61.6,496.5,49.5,508.5z"/>
		</g>
	</g>
	<g id="XMLID_4646_">
		<path id="XMLID_4665_" class="st4" d="M192.3,205c9.8-9.8,9.8-25.6,0-35.4c-9.8-9.8-25.6-9.8-35.4,0c-3.9,3.9-33.4,33.4-49.1,49.1
			c-16.5,16.5-45.5,45.5-49.1,49.1c-7.3,7.3-7.3,19.2,0,26.5s19.2,7.3,26.5,0c6.8-6.8,26.1-43.7,40.3-57.9
			C137.6,224.4,182.6,214.8,192.3,205z"/>
		<path id="XMLID_4664_" class="st4" d="M125.6,325.8c-14.2-14.2-33.5-51.2-40.3-57.9c-7.3-7.3-19.2-7.3-26.5,0
			c-7.3,7.3-7.3,19.2,0,26.5c3.6,3.6,32.6,32.6,49.1,49.1c17.5,17.5,45.9,45.9,49.1,49.1c4.9,4.9,12.8,4.9,17.7,0
			C179.5,387.6,143.1,343.3,125.6,325.8z"/>
		
			<linearGradient id="XMLID_160_" gradientUnits="userSpaceOnUse" x1="3050.8115" y1="4422.9434" x2="3050.8115" y2="4520.4209" gradientTransform="matrix(0.7071 0.7071 -0.7071 0.7071 1154.7931 -5122.8955)">
			<stop  offset="0" style="stop-color:#E9E0C9"/>
			<stop  offset="1" style="stop-color:#FFF4DA"/>
		</linearGradient>
		<path id="XMLID_4658_" class="st18" d="M192.3,169.6c-9.8-9.8-25.6-9.8-35.4,0c-3.9,3.9-33.4,33.4-49.1,49.1
			C91.4,235.2,202.1,179.4,192.3,169.6z"/>
		
			<linearGradient id="XMLID_161_" gradientUnits="userSpaceOnUse" x1="3128.5667" y1="4595.0645" x2="3036.8264" y2="4595.0645" gradientTransform="matrix(0.7071 0.7071 -0.7071 0.7071 1154.7931 -5122.8955)">
			<stop  offset="0" style="stop-color:#E9E0C9"/>
			<stop  offset="1" style="stop-color:#FFF4DA"/>
		</linearGradient>
		<path id="XMLID_4648_" class="st19" d="M58.8,267.8c-7.3,7.3-7.3,19.2,0,26.5c3.6,3.6,32.6,32.6,49.1,49.1
			C125.4,361,66.1,260.5,58.8,267.8z"/>
	</g>
</g>
</svg>
