<?xml version="1.0" encoding="utf-8"?>
<!-- Generator: Adobe Illustrator 19.0.0, SVG Export Plug-In . SVG Version: 6.00 Build 0)  -->
<svg version="1.1" id="Layer_1" xmlns="http://www.w3.org/2000/svg" xmlns:xlink="http://www.w3.org/1999/xlink" x="0px" y="0px"
	 viewBox="0 0 1156.4 262.5" style="enable-background:new 0 0 1156.4 262.5;" xml:space="preserve">
<style type="text/css">
	.st0{opacity:0.1;}
	.st1{fill:#2F2F39;}
	.st2{fill:#7BAEDE;}
	.st3{fill:#FFF9E7;}
	.st4{fill:#FEE66D;}
	.st5{fill:none;}
</style>
<g id="XMLID_6388_">
	<g id="XMLID_6449_" class="st0">
		<path id="XMLID_6456_" class="st1" d="M1147.3,151.9c0-7.8,7.5-31,7.5-37.5c0-10.4-8.4-18.8-18.8-18.8c-10.4,0-18.8,8.4-18.8,18.8
			c0,6.5,7.5,29.7,7.5,37.5s-7.5,31-7.5,37.5c0,10.4,8.4,18.8,18.8,18.8c10.4,0,18.8-8.4,18.8-18.8
			C1154.8,182.9,1147.3,159.6,1147.3,151.9z"/>
		<path id="XMLID_6455_" class="st1" d="M567.3,130.5c0-14.8,7.5-49.4,7.5-56.2c0-10.4-8.4-18.8-18.8-18.8
			c-10.4,0-18.8,8.4-18.8,18.8c0,6.9,7.5,41.5,7.5,56.2c0,14.8-7.5,49.4-7.5,56.2c0,10.4,8.4,18.8,18.8,18.8
			c10.4,0,18.8-8.4,18.8-18.8C574.8,179.9,567.3,145.3,567.3,130.5z"/>
		<path id="XMLID_6454_" class="st1" d="M1051.4,187.5c0-14.8,7.5-49.4,7.5-56.2c0-10.4-8.4-18.8-18.8-18.8
			c-10.4,0-18.8,8.4-18.8,18.8c0,6.9,7.5,41.5,7.5,56.2c0,14.8-7.5,49.4-7.5,56.2c0,10.4,8.4,18.8,18.8,18.8
			c10.4,0,18.8-8.4,18.8-18.8C1058.9,236.9,1051.4,202.3,1051.4,187.5z"/>
		<circle id="XMLID_6453_" class="st1" cx="1128.9" cy="72.3" r="18.8"/>
		<circle id="XMLID_6452_" class="st1" cx="814.3" cy="131.3" r="18.8"/>
		<circle id="XMLID_6451_" class="st1" cx="683.1" cy="72.3" r="18.8"/>
		<path id="XMLID_6450_" class="st1" d="M138,101.5c-7.3-7.3-19.2-7.3-26.5,0l0,0l0,0c-6.8,6.8-16.2,11-26.5,11
			c-10.4,0-67.9-1.2-56.3,12.1c3.3,9.8,9,22.5,9,27.7c0,7.3-11.2,29.4-11.2,37.5c0,10.4,8.4,18.8,18.7,18.8S64,200.1,64,189.8
			c0-8.1-11.2-30.2-11.2-37.5c0-2,0.8-5.1,2-8.6C64,147.7,74.2,150,85,150c20.7,0,39.5-8.4,53-22l0,0
			C145.4,120.7,145.4,108.9,138,101.5z"/>
	</g>
	<path id="XMLID_6448_" class="st2" d="M1137.3,151.9c0-7.8,7.5-31,7.5-37.5c0-10.4-8.4-18.8-18.8-18.8c-10.4,0-18.8,8.4-18.8,18.8
		c0,6.5,7.5,29.7,7.5,37.5s-7.5,31-7.5,37.5c0,10.4,8.4,18.8,18.8,18.8c10.4,0,18.8-8.4,18.8-18.8
		C1144.8,182.8,1137.3,159.6,1137.3,151.9z"/>
	<path id="XMLID_6447_" class="st2" d="M557.3,130.5c0-14.8,7.5-49.4,7.5-56.2c0-10.4-8.4-18.8-18.8-18.8
		c-10.4,0-18.8,8.4-18.8,18.8c0,6.9,7.5,41.5,7.5,56.2c0,14.8-7.5,49.4-7.5,56.2c0,10.4,8.4,18.8,18.8,18.8
		c10.4,0,18.8-8.4,18.8-18.8C564.8,179.9,557.3,145.3,557.3,130.5z"/>
	<path id="XMLID_6446_" class="st2" d="M1041.4,187.5c0-14.8,7.5-49.4,7.5-56.2c0-10.4-8.4-18.8-18.8-18.8
		c-10.4,0-18.8,8.4-18.8,18.8c0,6.9,7.5,41.5,7.5,56.2c0,14.8-7.5,49.4-7.5,56.2c0,10.4,8.4,18.8,18.8,18.8
		c10.4,0,18.8-8.4,18.8-18.8C1048.9,236.9,1041.4,202.3,1041.4,187.5z"/>
	<circle id="XMLID_6445_" class="st2" cx="1118.9" cy="72.3" r="18.8"/>
	<path id="XMLID_6444_" class="st3" d="M1150.9,66.7c-1.7,1.7-3.7,3.1-6.1,4.1c-9.6,4-20.5-0.6-24.5-10.1c-1.2-3-2.8-5.7-4.7-8.2
		c-10-13.3-28.2-18.8-44.3-12.1c-16.1,6.7-25.1,23.3-22.8,39.9c0.4,3.1,1.3,6.1,2.5,9.1c7.9,19.1,29.9,28.2,49,20.3
		c4.7-1.9,8.7-4.7,12.1-8.1c0,0,0,0,0,0c0,0,0.1-0.1,0.1-0.1c7.3-7.2,19.1-7.2,26.4,0.1c1.8,1.8,3.1,3.9,4.1,6.1
		c2.8,6.8,1.5,14.9-4.1,20.4c-0.8,0.8-1.6,1.4-2.5,2.1c-4.4,3.6-13.9,10.9-21.9,14.2c-38.3,15.9-82.1-2.3-98-40.6
		c-5.2-12.6-6.7-25.8-5.1-38.5c1.8-13.5,7.2-26.3,15.7-37c7.7-9.6,17.8-17.5,30-22.6c12.2-5,24.9-6.6,37.1-5.2
		c13.5,1.5,26.4,6.8,37.2,15c10.1,7.7,18.4,18.2,23.6,30.8C1158,53.5,1156.1,61.5,1150.9,66.7z"/>
	<path id="XMLID_6443_" class="st4" d="M1063.1,45.1c0-12.6,0-24,0-26.3c0-5.2-2.1-9.9-5.5-13.3c-0.2,0.1-0.4,0.1-0.6,0.2
		c-12.2,5-22.3,12.9-30,22.6c-0.5,0.6-1,1.3-1.5,1.9c0,12.9,0,33.2,0,44.8c0,0,0,0,0,0c0,10-3.9,19.1-10.3,25.8
		c0.4,1,0.7,1.9,1.1,2.9c4.7,11.3,11.8,20.8,20.5,28.2c6.2,5.3,13.2,9.5,20.7,12.6c3.4-3.4,5.5-8.1,5.5-13.3c0-2.3,0-13.7,0-26.4
		c-1.6-1.2-3.2-2.6-4.6-4.1c-3.1-3.2-5.6-7.1-7.4-11.5c-1.2-3-2.1-6.1-2.5-9.1C1046.6,66.8,1052.2,53.3,1063.1,45.1z"/>
	<g id="XMLID_6440_">
		<path id="XMLID_6442_" class="st3" d="M1012.2,139c2.9,6.5,9.5,11,17.1,11c10.4,0,18.8-8.4,18.8-18.8c0-4.2,0-39.4,0-56.2
			C1048.1,102.1,1033.7,125.8,1012.2,139z"/>
		<path id="XMLID_6441_" class="st3" d="M1029.3,0c-7.6,0-14.1,4.5-17.1,11c-1.1,2.4-1.7,5-1.7,7.7c0,4.2,0,39.4,0,56.2c0,0,0,0,0,0
			c0,20.7-16.8,37.5-37.5,37.5S935.6,95.7,935.6,75v0v0c0-16.9,0-52,0-56.2c0-2.8-0.6-5.4-1.7-7.7c-2.9-6.5-9.5-11-17.1-11
			c-10.4,0-18.8,8.4-18.8,18.8c0,4.2,0,39.3,0,56.2c0,0,0,0,0,0s0,0,0,0c0,27.1,14.3,50.8,35.8,64c11.4,7,24.8,11,39.2,11
			s27.8-4,39.2-11v0c21.5-13.2,35.8-36.9,35.8-64c0-16.9,0-52,0-56.2C1048.1,8.4,1039.7,0,1029.3,0z"/>
	</g>
	<g id="XMLID_6437_">
		<path id="XMLID_6439_" class="st4" d="M940.5,112.5c-4.3,7.4-9.7,13.9-16.2,19.4c3,2.6,6.2,4.9,9.6,7c5.2,3.2,10.7,5.7,16.6,7.6
			c-0.4-8.4-2.2-17-5.6-25.2C943.6,118.3,942.1,115.3,940.5,112.5z"/>
		<path id="XMLID_6438_" class="st4" d="M898.1,18.8c0,2.3,0,13.6,0,26.3c9.1,6.8,15,17.7,15,30c0,3.2-0.4,6.4-1.2,9.4c0,0,0,0,0,0
			c-1.6,6.3-4.8,11.9-9.2,16.5c4.5,12.2,12,22.8,21.7,31.1c6.4-5.5,11.9-12.1,16.2-19.4c0,0,0,0,0,0c2.1-3.7,3.9-7.6,5.4-11.6
			c-6.4-6.7-10.4-15.8-10.4-25.9v0v0c0-11.7,0-32.1,0-45c-8.2-10.9-19.2-19.4-32-24.6C900.2,8.9,898.1,13.6,898.1,18.8z"/>
	</g>
	<g id="XMLID_6432_">
		<path id="XMLID_6436_" class="st3" d="M925.5,112.5c-6.8,11.8-16.7,21.5-28.6,28.1c0,0,0,0,0,0c0.4,1.4,0.6,2.8,0.8,4.1
			c2.3,16.5-6.7,33.2-22.8,39.9c-16.1,6.7-34.3,1.3-44.3-12.1c-1.9-2.5-3.4-5.2-4.7-8.2c-4-9.6-14.9-14.1-24.5-10.1
			c-2.3,1-4.4,2.4-6.1,4.1c-5.2,5.2-7.1,13.2-4.1,20.4c5.2,12.6,13.5,23,23.6,30.8c10.8,8.3,23.7,13.5,37.2,15
			c12.2,1.4,25-0.2,37.1-5.2c12.2-5,22.3-12.9,30-22.6c8.5-10.7,13.9-23.5,15.7-37c1.7-12.6,0.2-25.9-5.1-38.5
			C928.6,118.3,927.1,115.3,925.5,112.5z"/>
		<path id="XMLID_6433_" class="st3" d="M860.6,0c-41.4,0-75,33.6-75,75c0,13.7,3.7,26.5,10.1,37.5c6.8,11.8,16.7,21.5,28.6,28.1
			c10.8,6,23.1,9.4,36.3,9.4c13.2,0,25.5-3.4,36.3-9.4c0,0,0,0,0,0c11.9-6.6,21.8-16.3,28.6-28.1c0,0,0,0,0,0
			c6.4-11,10.1-23.8,10.1-37.5C935.6,33.6,902,0,860.6,0z M860.6,112.5c-17.4,0-32-11.8-36.2-27.9c0-0.1-0.1-0.2-0.1-0.3
			c-0.8-3-1.2-6.1-1.2-9.4c0-20.7,16.8-37.5,37.5-37.5s37.5,16.8,37.5,37.5c0,3.2-0.4,6.4-1.2,9.4c0,0,0,0,0,0
			C892.7,100.6,878,112.5,860.6,112.5z"/>
	</g>
	<g id="XMLID_6430_">
		<path id="XMLID_6431_" class="st4" d="M833.5,100.9c-4.3-4.5-7.5-10.1-9.1-16.2c0-0.1-0.1-0.2-0.1-0.3c-0.8-3-1.2-6.1-1.2-9.4
			c0-10.1,4-19.2,10.4-25.9c-4.5-12.1-12-22.8-21.7-31.1c-9.6,8.3-17.2,18.9-21.7,31.1c6.4,6.7,10.4,15.9,10.4,25.9
			c0,10-4,19.2-10.4,25.9c1.5,4,3.3,7.9,5.4,11.6c4.3,7.4,9.8,14,16.2,19.5C821.5,123.7,829,113,833.5,100.9z"/>
	</g>
	<circle id="XMLID_6429_" class="st2" cx="804.3" cy="131.3" r="18.8"/>
	<g id="XMLID_6425_">
		<path id="XMLID_6426_" class="st3" d="M748.1,0c-41.4,0-75,33.6-75,75s33.6,75,75,75s75-33.6,75-75S789.5,0,748.1,0z M748.1,112.5
			c-20.7,0-37.5-16.8-37.5-37.5s16.8-37.5,37.5-37.5s37.5,16.8,37.5,37.5S768.8,112.5,748.1,112.5z"/>
	</g>
	<path id="XMLID_6424_" class="st4" d="M707.9,128c5.5-5.5,6.9-13.6,4.1-20.4c-0.9-2.2-2.3-4.3-4.1-6.1c-5.1-5.1-12.4-6.6-18.8-4.6
		c-2.8,0.9-5.4,2.4-7.6,4.5c0,0-0.1,0.1-0.1,0.1c0,0,0,0,0,0c-0.8,0.8-1.6,1.5-2.5,2.3c4.9,11.7,12.6,21.8,22.3,29.6
		c1.7-1.3,3.2-2.5,4.3-3.4C706.3,129.5,707.1,128.8,707.9,128z"/>
	<path id="XMLID_6423_" class="st4" d="M678.8,46.2c2.2,1.8,4.2,3.9,6,6.3c1.9,2.5,3.4,5.2,4.7,8.2c0.5,1.3,1.2,2.5,2,3.6
		c4.3,6.1,11.9,9.1,19.2,7.5c0.9-10.3,5.9-19.4,13.4-25.6c-5.1-12.2-13-22.3-22.6-29.9C691.6,24.1,683.7,34.4,678.8,46.2z"/>
	<g id="XMLID_6421_">
		<path id="XMLID_6422_" class="st3" d="M287,103.7c-3.9-9.5-5.8-19.4-5.7-29.1l-0.1,0.4c0-16.9,0-52,0-56.2c0-2.7-0.6-5.4-1.7-7.7
			c-2.9-6.5-9.5-11-17.1-11c-10.4,0-18.8,8.4-18.8,18.8c0,4.2,0,39.4,0,56.2c0,0,0,0,0,0c0,27.1,14.3,50.8,35.8,64
			c11.4,7,24.8,11,39.2,11c6.5,0,12.8-0.8,18.8-2.4C315.6,141.9,296.4,126.3,287,103.7z"/>
	</g>
	<circle id="XMLID_6420_" class="st2" cx="673.1" cy="72.3" r="18.8"/>
	<path id="XMLID_6419_" class="st3" d="M621.1,147.6c15.2,3.9,31.8,3.1,47.4-3.3c7.9-3.3,17.5-10.6,21.9-14.2
		c0.9-0.6,1.7-1.3,2.5-2.1c5.5-5.5,6.9-13.6,4.1-20.4c-0.9-2.2-2.3-4.3-4.1-6.1c-5.1-5.1-12.4-6.6-18.8-4.6
		C666.5,121.7,646.4,141.1,621.1,147.6z"/>
	<path id="XMLID_6418_" class="st3" d="M709.1,46.3c-5.2-12.6-13.5-23-23.6-30.8c-10.8-8.3-23.7-13.5-37.2-15
		c-8.9-1-18.1-0.4-27.2,1.9c28.9,7.5,51.1,31.8,55.4,61.9c4.9,7,14.2,9.9,22.5,6.5c2.3-1,4.4-2.4,6.1-4.1
		C710.3,61.5,712.1,53.5,709.1,46.3z"/>
	<path id="XMLID_6417_" class="st3" d="M621.1,2.4c-3.3,0.9-6.7,2-10,3.3c-12.2,5-22.3,12.9-30,22.6c-8.5,10.7-13.9,23.5-15.7,37
		c-1.7,12.6-0.2,25.9,5.1,38.5c9.4,22.6,28.5,38.2,50.6,43.9c25.3-6.5,45.3-25.9,52.9-50.7c-2.8,0.9-5.4,2.4-7.6,4.5
		c0,0-0.1,0.1-0.1,0.1c0,0,0,0,0,0c-3.4,3.4-7.4,6.1-12.1,8.1c-19.1,7.9-41.1-1.2-49-20.3c-1.2-3-2.1-6.1-2.5-9.1
		c-2.3-16.5,6.7-33.2,22.8-39.9c16.1-6.7,34.3-1.3,44.3,12.1c1.9,2.5,3.4,5.2,4.7,8.2c0.5,1.3,1.2,2.5,2,3.6
		C672.2,34.2,650,9.9,621.1,2.4z"/>
	<path id="XMLID_6416_" class="st3" d="M570.5,103.7c-3.9-9.5-5.8-19.4-5.7-29.1l-0.1,0.4c0-16.9,0-52,0-56.3c0-2.7-0.6-5.4-1.7-7.7
		c-2.9-6.5-9.5-11-17.1-11c-10.4,0-18.8,8.4-18.8,18.8c0,4.2,0,39.4,0,56.3c0,0,0,0,0,0c0,27.1,14.3,50.8,35.8,64
		c11.4,7,24.8,11,39.2,11c6.5,0,12.8-0.8,18.8-2.4C599.1,141.9,579.9,126.3,570.5,103.7z"/>
	<g id="XMLID_6413_">
		<path id="XMLID_6415_" class="st3" d="M521.8,22L521.8,22c-13.6-13.6-32.3-22-53-22c-14.4,0-27.8,4-39.2,11c1.1,2.4,1.7,5,1.7,7.7
			c0,4.2,0,39.4,0,56.3v0c0-20.7,16.8-37.5,37.5-37.5c10.4,0,19.7,4.2,26.5,11l0,0l0,0c4.3,4.3,10.3,6.1,15.9,5.3
			c3.9-0.6,7.6-2.3,10.6-5.3C529.1,41.2,529.1,29.3,521.8,22z"/>
		<path id="XMLID_6414_" class="st3" d="M429.6,11.1c-2.9-6.5-9.5-11-17.1-11c-10.4,0-18.8,8.4-18.8,18.8c0,4.2,0,39.4,0,56.3v0
			c0,16.9,0,52,0,56.2c0,10.4,8.4,18.8,18.8,18.8c10.4,0,18.8-8.4,18.8-18.8c0-4.2,0-39.4,0-56.2v0c0-16.9,0-52,0-56.3
			C431.3,16,430.6,13.4,429.6,11.1z"/>
	</g>
	<path id="XMLID_6412_" class="st5" d="M356.3,37.5c-20.7,0-37.5,16.8-37.5,37.5c0,3.2,0.4,6.4,1.2,9.4
		c4.2,16.2,18.8,28.1,36.3,28.1c17.5,0,32.2-11.9,36.3-28.1c0.8-3,1.2-6.1,1.2-9.4C393.8,54.3,377,37.5,356.3,37.5z"/>
	<g id="XMLID_6410_">
		<path id="XMLID_6411_" class="st4" d="M244.7,13c-0.6,1.8-0.9,3.8-0.9,5.8c0,4.2,0,39.4,0,56.3c0,0,0,0,0,0
			c0,18,6.4,34.4,16.9,47.4c10.5-12.9,16.9-29.4,16.9-47.4C277.5,49.2,264.5,26.5,244.7,13z"/>
	</g>
	<path id="XMLID_6409_" class="st5" d="M101.5,48.5L101.5,48.5L101.5,48.5c-6.8-6.8-16.2-11-26.5-11c-20.7,0-37.5,16.8-37.5,37.5
		s16.8,37.5,37.5,37.5c10.4,0,19.7-4.2,26.5-11l0,0l0,0c3.9-3.9,9-5.7,14-5.5c-2-6.7-3-13.7-3-21.1c0-7.3,1.1-14.4,3-21.1
		C110.5,54.2,105.4,52.4,101.5,48.5z"/>
	<path id="XMLID_6408_" class="st5" d="M187.5,37.5C166.8,37.5,150,54.3,150,75c0,3.2,0.4,6.4,1.2,9.4c4.2,16.2,18.8,28.1,36.3,28.1
		c17.5,0,32.2-11.9,36.3-28.1c0.8-3,1.2-6.1,1.2-9.4C225,54.3,208.2,37.5,187.5,37.5z"/>
	<circle id="XMLID_6407_" class="st5" cx="187.5" cy="75" r="37.5"/>
	<g id="XMLID_6405_">
		<path id="XMLID_6406_" class="st4" d="M399.3,5.5c-1.6,1.6-2.9,3.5-3.9,5.6c-1.1,2.4-1.7,5-1.7,7.7c0,2.3,0,13.6,0,26.3
			c0,10.7,0,22.2,0,30c0,0,0,0,0,0c0,7.7,0,19.3,0,30c0,12.6,0,24,0,26.2c0,2.7,0.6,5.3,1.7,7.7c1,2.1,2.3,4,3.9,5.6
			c12.8-5.2,23.8-13.7,31.9-24.6c0-12.9,0-33.3,0-45c0,0,0,0,0,0c0-11.7,0-32.1,0-45C423.1,19.2,412.1,10.6,399.3,5.5z"/>
	</g>
	<g id="XMLID_6401_">
		<path id="XMLID_6402_" class="st3" d="M356.3,0c-41.4,0-75,33.6-75,75s33.6,75,75,75s75-33.6,75-75S397.7,0,356.3,0z M356.3,112.5
			c-20.7,0-37.5-16.8-37.5-37.5s16.8-37.5,37.5-37.5s37.5,16.8,37.5,37.5S377,112.5,356.3,112.5z"/>
	</g>
	<g id="XMLID_6399_">
		<path id="XMLID_6400_" class="st4" d="M302,103.7c-3.9-9.5-5.8-19.4-5.7-29.1l-0.1,0.4c0-11.7,0-32.1,0-45
			c-9.4,12.5-15,28.1-15,45c0,13.7,3.7,26.5,10.1,37.5c6.8,11.8,16.7,21.5,28.6,28.1c7.6,4.2,16.1,7.2,25.1,8.5
			C347.6,148.8,311.4,126.3,302,103.7z"/>
	</g>
	<g id="XMLID_6397_">
		<path id="XMLID_6398_" class="st4" d="M585.6,103.7c-3.9-9.5-5.8-19.4-5.7-29.1l-0.1,0.4c0-11.7,0-32.1,0-45
			c-9.4,12.5-15,28.1-15,45c0,13.7,3.7,26.5,10.1,37.5c6.8,11.8,16.7,21.5,28.6,28.1c7.6,4.2,16.1,7.2,25.1,8.5
			c2.6-0.4,5.1-0.9,7.6-1.5C614.2,141.9,595,126.3,585.6,103.7z"/>
	</g>
	<g id="XMLID_6393_">
		<path id="XMLID_6394_" class="st3" d="M187.5,0c-41.4,0-75,33.6-75,75s33.6,75,75,75s75-33.6,75-75S228.9,0,187.5,0z M187.5,112.5
			c-20.7,0-37.5-16.8-37.5-37.5s16.8-37.5,37.5-37.5S225,54.3,225,75S208.2,112.5,187.5,112.5z"/>
	</g>
	<path id="XMLID_6392_" class="st2" d="M128,101.5c-7.3-7.3-19.2-7.3-26.5,0l0,0l0,0c-6.8,6.8-16.2,11-26.5,11
		c-10.4,0-19.7-4.2-26.5-11c0,0,0,0,0,0c-6.8-6.8-11-16.2-11-26.5c0-20.7,16.8-37.5,37.5-37.5c10.4,0,19.7,4.2,26.5,11l0,0l0,0
		c4.3,4.3,10.3,6.1,15.9,5.3c3.9-0.6,7.6-2.3,10.6-5.3c7.3-7.3,7.3-19.2,0-26.5v0C114.5,8.4,95.7,0,75,0C33.6,0,0,33.6,0,75
		c0,19,7.1,36.3,18.7,49.6c3.3,9.8,9,22.5,9,27.7c0,7.3-11.2,29.4-11.2,37.5c0,10.4,8.4,18.8,18.7,18.8S54,200.1,54,189.8
		c0-8.1-11.2-30.2-11.2-37.5c0-2,0.8-5.1,2-8.6C54,147.7,64.2,150,75,150c20.7,0,39.5-8.4,53-22l0,0
		C135.4,120.7,135.4,108.8,128,101.5z"/>
	<path id="XMLID_6391_" class="st4" d="M117.1,49c4.3,3.9,9.9,5.5,15.3,4.7c3.9-0.6,7.6-2.3,10.6-5.3c7.3-7.3,7.3-19.2,0-26.5v0
		c-1.4-1.4-2.8-2.7-4.3-3.9C129.1,26.3,121.6,36.9,117.1,49z"/>
	<path id="XMLID_6390_" class="st4" d="M143,128c7.3-7.3,7.3-19.2,0-26.5c-7.1-7.1-18.6-7.3-25.9-0.5c4.5,12.1,12,22.8,21.6,31
		C140.2,130.7,141.7,129.4,143,128L143,128z"/>
	<path id="XMLID_6389_" class="st3" d="M128,101.5c-7.3-7.3-19.2-7.3-26.5,0l0,0l0,0c-6.8,6.8-16.2,11-26.5,11
		c-20.7,0-37.5-16.8-37.5-37.5S54.3,37.5,75,37.5c10.4,0,19.7,4.2,26.5,11l0,0l0,0c4.3,4.3,10.3,6.1,15.9,5.3
		c3.9-0.6,7.6-2.3,10.6-5.3c7.3-7.3,7.3-19.2,0-26.5v0C114.5,8.4,95.7,0,75,0C33.6,0,0,33.6,0,75s33.6,75,75,75
		c20.7,0,39.5-8.4,53-22l0,0C135.4,120.7,135.4,108.9,128,101.5z"/>
</g>
</svg>
