<?xml version="1.0" encoding="utf-8"?>
<!-- Generator: Adobe Illustrator 19.0.0, SVG Export Plug-In . SVG Version: 6.00 Build 0)  -->
<svg version="1.1" id="Layer_1" xmlns="http://www.w3.org/2000/svg" xmlns:xlink="http://www.w3.org/1999/xlink" x="0px" y="0px"
	 viewBox="0 0 200 518.1" style="enable-background:new 0 0 200 518.1;" xml:space="preserve">
<style type="text/css">
	.st0{opacity:5.000000e-02;fill:#FFF9E7;}
	.st1{opacity:0.1;fill:#FFF9E7;}
	.st2{opacity:0.2;fill:#FFF9E7;}
	.st3{opacity:5.000000e-02;fill:#2F2F39;}
	.st4{fill:#FFFFFF;}
	.st5{fill:#7BAEDE;}
</style>
<g id="XMLID_6378_">
	<circle id="XMLID_6384_" class="st0" cx="100" cy="418.1" r="100"/>
	<circle id="XMLID_6383_" class="st1" cx="100" cy="418.7" r="50"/>
	<circle id="XMLID_6382_" class="st2" cx="100" cy="418.1" r="25"/>
	<path id="XMLID_6381_" class="st3" d="M108.8,391.2c-2.2-2.2-5.7-105.2-5.7-191.2c0-110.5-1.4-200-3.1-200s-3.1,89.5-3.1,200
		c0,86-3.5,189-5.7,191.2c-4.9,4.9-4.9,12.8,0,17.7c4.9,4.9,12.8,4.9,17.7,0C113.7,404,113.7,396,108.8,391.2z"/>
	<path id="XMLID_6380_" class="st4" d="M100,396.3c-6.9,0-12.5,22.3-12.5,24.5c0,6.9,5.6,12.5,12.5,12.5c6.9,0,12.5-5.6,12.5-12.5
		C112.5,418.7,106.9,396.3,100,396.3z"/>
	<path id="XMLID_6379_" class="st5" d="M87.5,400c0-6.9,5.6-12.5,12.5-12.5c6.9,0,12.5,5.6,12.5,12.5
		C112.5,406.9,87.5,406.9,87.5,400z"/>
</g>
</svg>
