<?xml version="1.0" encoding="utf-8"?>
<!-- Generator: Adobe Illustrator 19.0.0, SVG Export Plug-In . SVG Version: 6.00 Build 0)  -->
<svg version="1.1" id="Layer_1" xmlns="http://www.w3.org/2000/svg" xmlns:xlink="http://www.w3.org/1999/xlink" x="0px" y="0px"
	 viewBox="0 0 75 97.5" style="enable-background:new 0 0 75 97.5;" xml:space="preserve">
<style type="text/css">
	.st0{opacity:0.1;fill:#2F2F39;}
	.st1{opacity:5.000000e-02;fill:#2F2F39;}
</style>
<g id="XMLID_6385_">
	<path id="XMLID_6387_" class="st0" d="M37.5,82.5c-17.7,0-32.4-12.2-36.4-28.7C0.4,56.3,0,58.4,0,60c0,20.7,16.8,37.5,37.5,37.5
		S75,80.7,75,60c0-1.6-0.4-3.7-1.1-6.2C69.9,70.3,55.2,82.5,37.5,82.5z"/>
	<path id="XMLID_6386_" class="st1" d="M50.5,9.9C45.7,4,41.1,0,37.5,0c-3.6,0-8.2,4-13,9.9c-9.7,12-20.1,32.2-23.4,44
		c4,16.4,18.7,28.7,36.4,28.7c17.7,0,32.4-12.2,36.4-28.7C70.6,42.1,60.3,21.9,50.5,9.9z"/>
</g>
</svg>
