<?xml version="1.0" encoding="utf-8"?>
<!-- Generator: Adobe Illustrator 19.0.0, SVG Export Plug-In . SVG Version: 6.00 Build 0)  -->
<svg version="1.1" id="Layer_1" xmlns="http://www.w3.org/2000/svg" xmlns:xlink="http://www.w3.org/1999/xlink" x="0px" y="0px"
	 viewBox="0 0 1499.3 352" style="enable-background:new 0 0 1499.3 352;" xml:space="preserve">
<style type="text/css">
	.st0{opacity:0.1;fill:#2F2F39;}
	.st1{fill:#292933;}
	.st2{fill:url(#XMLID_15_);}
	.st3{fill:url(#XMLID_16_);}
	.st4{fill:#FFFFFF;}
	.st5{fill:url(#XMLID_17_);}
	.st6{fill:url(#XMLID_18_);}
	.st7{fill:url(#XMLID_19_);}
	.st8{fill:url(#XMLID_20_);}
	.st9{fill:url(#XMLID_21_);}
	.st10{fill:url(#XMLID_22_);}
	.st11{fill:url(#XMLID_23_);}
	.st12{fill:url(#XMLID_24_);}
	.st13{fill:url(#XMLID_25_);}
	.st14{fill:url(#XMLID_26_);}
	.st15{fill:url(#XMLID_27_);}
	.st16{fill:url(#XMLID_28_);}
	.st17{fill:#2F2F39;}
	.st18{fill:url(#XMLID_29_);}
	.st19{fill:#BCE6FB;}
	.st20{fill:url(#XMLID_30_);}
	.st21{fill:url(#XMLID_31_);}
	.st22{fill:url(#XMLID_32_);}
	.st23{fill:url(#XMLID_33_);}
	.st24{fill:url(#XMLID_34_);}
	.st25{fill:url(#XMLID_35_);}
	.st26{fill:url(#XMLID_36_);}
	.st27{fill:url(#XMLID_37_);}
	.st28{fill:#F2642E;}
	.st29{fill:url(#XMLID_38_);}
	.st30{fill:url(#XMLID_39_);}
	.st31{fill:url(#XMLID_40_);}
	.st32{fill:url(#XMLID_41_);}
	.st33{fill:#FFC950;}
	.st34{fill:#FFF9E7;}
	.st35{fill:#FEE66D;}
</style>
<g id="XMLID_6457_">
	<path id="XMLID_6560_" class="st0" d="M1403.8,114.2c-4.5-4.5-13.8,4.9-22.3,18.2c-2-10.9-5.1-23.9-8.7-36.7
		c7.2-6.2,6.5-35.6-2.5-35.8c-0.2,0-0.4,0-0.5,0c-0.6,0-1.1,0.1-1.6,0.4c0.7-1.9,1-3.9,1-6c0-10.1-8.1-18.2-18.1-18.4
		c-0.2,0-0.4,0-0.5,0c-2.4,0-4.8,0.5-6.9,1.4c-12.4-6.8-35.9-10.6-60.6-11.3c-2.3-1.1-4.9-1.8-7.6-1.8c-0.2,0-0.4,0-0.5,0
		c-2.8,0-5.4,0.7-7.7,1.8c-25.1,0.5-49.3,4.1-62.6,10.7c-1.4-0.4-2.9-0.6-4.4-0.6c-0.2,0-0.4,0-0.5,0c-9.5,0.1-17.2,7.3-18.2,16.5
		c-7.1,1.8-8.5,23-4.1,32.4c-5.5,17.5-10.1,36.7-12.6,51.3c-8.3-12.7-17.2-21.6-21.7-17.2c-9.1,9.1-10.5,22.8-4.4,33.4
		c-6.1,10.6-4.7,24.4,4.4,33.4c5.7,5.7,13.2,8.3,20.6,8.1c0.2,1.4,0.4,2.8,0.7,4.2c4.7,30.1,19.7,84.6,33.2,98
		c6,6,37,53.2,57.4,53.2c0.1,0,0.1,0,0.2,0c7,0,30.1,0,36.7,0c0.1,0,0.1,0,0.2,0c0.3,0,0.7,0,1-0.1c20.4-1.7,50.6-47.1,56.6-53.1
		c13.4-13.4,28.4-67.9,33.2-98.1c0.6-2.8,1-5.8,1.2-8.7c7.1,0,14.2-2.7,19.7-8.1c9.1-9.1,10.5-22.8,4.4-33.4
		C1414.3,137,1412.9,123.2,1403.8,114.2z"/>
	<path id="XMLID_6559_" class="st1" d="M1212.1,56.1c20.9-20.9,131.3-20.9,152.2,0c12.3,12.3,25.8,58.6,31.7,89.6
		c1.2-4.2,2.1-8.5,2.6-12.9c-2.9-27.1-19.5-91.4-34.3-106.2c-20.9-20.9-131.3-20.9-152.2,0c-14.8,14.8-31.4,79.1-34.3,106.2
		c0.5,4.4,1.4,8.7,2.6,12.9C1186.3,114.7,1199.9,68.3,1212.1,56.1z"/>
	<linearGradient id="XMLID_15_" gradientUnits="userSpaceOnUse" x1="1426.6793" y1="136.3192" x2="1378.0151" y2="136.3192">
		<stop  offset="0" style="stop-color:#FFFFFF;stop-opacity:0"/>
		<stop  offset="1" style="stop-color:#E7F6FD"/>
	</linearGradient>
	<path id="XMLID_6558_" class="st2" d="M1418.6,99.4c-10.8-10.8-48.2,57.8-39.2,66.9c10.8,10.8,28.4,10.8,39.2,0
		c9.1-9.1,10.5-22.8,4.4-33.4C1429.1,122.2,1427.7,108.5,1418.6,99.4z"/>
	<linearGradient id="XMLID_16_" gradientUnits="userSpaceOnUse" x1="1149.754" y1="140.9353" x2="1198.4182" y2="140.9353">
		<stop  offset="0" style="stop-color:#FFFFFF;stop-opacity:0"/>
		<stop  offset="1" style="stop-color:#E7F6FD"/>
	</linearGradient>
	<path id="XMLID_6557_" class="st3" d="M1157.8,104c-9.1,9.1-10.5,22.8-4.4,33.4c-6.1,10.6-4.7,24.4,4.4,33.4
		c10.8,10.8,28.4,10.8,39.2,0C1206.1,161.8,1168.7,93.2,1157.8,104z"/>
	<path id="XMLID_6556_" class="st4" d="M1399.2,168.1c0-20.8-18.5-96.8-34.7-113c-20.9-20.9-131.3-20.9-152.2,0
		c-16.2,16.2-34.7,92.2-34.7,113s18.5,96.8,34.7,113c6,6,37,53.2,57.4,53.2c6.7,0,30.2,0,36.9,0c20.4,0,51.7-47,57.8-53.2
		C1380.7,264.9,1399.2,189,1399.2,168.1z"/>
	<linearGradient id="XMLID_17_" gradientUnits="userSpaceOnUse" x1="1288.4242" y1="39.4298" x2="1288.4242" y2="334.3107">
		<stop  offset="0" style="stop-color:#FFFFFF;stop-opacity:0"/>
		<stop  offset="1" style="stop-color:#E7F6FD"/>
	</linearGradient>
	<path id="XMLID_6555_" class="st5" d="M1399.2,168.1c0-20.8-18.5-96.8-34.7-113c-20.9-20.9-131.3-20.9-152.2,0
		c-16.2,16.2-34.7,92.2-34.7,113s18.5,96.8,34.7,113c6,6,37,53.2,57.4,53.2c6.7,0,30.2,0,36.9,0c20.4,0,51.7-47,57.8-53.2
		C1380.7,264.9,1399.2,189,1399.2,168.1z"/>
	<g id="XMLID_6547_">
		<path id="XMLID_6554_" class="st4" d="M1364.5,55.1c-20.9-20.9-131.3-20.9-152.2,0c-16.2,16.2-34.7,92.2-34.7,113
			c0,40.8,33.1,73.9,73.9,73.9c13.5,0,60.4,0,73.9,0c40.8,0,73.9-33.1,73.9-73.9C1399.2,147.3,1380.7,71.3,1364.5,55.1z"/>
		<path id="XMLID_6553_" class="st4" d="M1364.5,202.8c-20.9-20.9-131.3-20.9-152.2,0c-21.6,21.6,37.2,131.5,57.6,131.5
			c6.7,0,30.2,0,36.9,0C1327.3,334.3,1386.1,224.5,1364.5,202.8z"/>
		<linearGradient id="XMLID_18_" gradientUnits="userSpaceOnUse" x1="1288.4188" y1="187.1443" x2="1288.4188" y2="334.3108">
			<stop  offset="0" style="stop-color:#FFFFFF;stop-opacity:0"/>
			<stop  offset="1" style="stop-color:#E7F6FD"/>
		</linearGradient>
		<path id="XMLID_6552_" class="st6" d="M1364.5,202.8c-20.9-20.9-131.3-20.9-152.2,0c-21.6,21.6,37.2,131.5,57.6,131.5
			c6.7,0,30.2,0,36.9,0C1327.3,334.3,1386.1,224.5,1364.5,202.8z"/>
		<linearGradient id="XMLID_19_" gradientUnits="userSpaceOnUse" x1="1379.6113" y1="174.3288" x2="1379.6113" y2="53.3623">
			<stop  offset="0" style="stop-color:#FFFFFF;stop-opacity:0"/>
			<stop  offset="1" style="stop-color:#E7F6FD"/>
		</linearGradient>
		<path id="XMLID_6551_" class="st7" d="M1364.6,55.1c-20.9-20.9,34.7,153.8,34.7,113C1399.3,147.3,1380.8,71.3,1364.6,55.1z"/>
		<linearGradient id="XMLID_20_" gradientUnits="userSpaceOnUse" x1="1177.6333" y1="113.8456" x2="1217.0215" y2="113.8456">
			<stop  offset="0" style="stop-color:#FFFFFF;stop-opacity:0"/>
			<stop  offset="1" style="stop-color:#E7F6FD"/>
		</linearGradient>
		<path id="XMLID_6550_" class="st8" d="M1212.3,55.1c-16.2,16.2-34.7,92.2-34.7,113C1177.6,208.9,1233.2,34.2,1212.3,55.1z"/>
		<linearGradient id="XMLID_21_" gradientUnits="userSpaceOnUse" x1="1323.938" y1="203.5836" x2="1399.2052" y2="203.5836">
			<stop  offset="0" style="stop-color:#FFFFFF;stop-opacity:0"/>
			<stop  offset="1" style="stop-color:#E7F6FD"/>
		</linearGradient>
		<path id="XMLID_6549_" class="st9" d="M1325.3,242c40.8,0,73.9-33.1,73.9-73.9C1399.2,147.3,1311.9,242,1325.3,242z"/>
		<linearGradient id="XMLID_22_" gradientUnits="userSpaceOnUse" x1="1252.9006" y1="203.2975" x2="1177.6334" y2="203.2975">
			<stop  offset="0" style="stop-color:#FFFFFF;stop-opacity:0"/>
			<stop  offset="1" style="stop-color:#E7F6FD"/>
		</linearGradient>
		<path id="XMLID_6548_" class="st10" d="M1251.5,241.7c-40.8,0-73.9-33.1-73.9-73.9C1177.6,147,1264.9,241.7,1251.5,241.7z"/>
	</g>
	<linearGradient id="XMLID_23_" gradientUnits="userSpaceOnUse" x1="1288.4242" y1="241.9892" x2="1288.4242" y2="187.1443">
		<stop  offset="0" style="stop-color:#E7F6FD;stop-opacity:0"/>
		<stop  offset="1" style="stop-color:#E7F6FD"/>
	</linearGradient>
	<path id="XMLID_6546_" class="st11" d="M1364.5,202.8c-20.9-20.9-131.3-20.9-152.2,0c-4.8,4.8-5.6,14-3.8,25.4
		c12.1,8.7,26.9,13.8,43,13.8c13.5,0,60.4,0,73.9,0c16,0,30.8-5.1,43-13.8C1370.2,216.8,1369.3,207.6,1364.5,202.8z"/>
	<linearGradient id="XMLID_24_" gradientUnits="userSpaceOnUse" x1="1288.2173" y1="205.3345" x2="1288.2173" y2="94.5487">
		<stop  offset="0" style="stop-color:#E7F6FD;stop-opacity:0"/>
		<stop  offset="1" style="stop-color:#E7F6FD"/>
	</linearGradient>
	<path id="XMLID_6545_" class="st12" d="M1297.4,149.9c0-7.3,9.2-29.8,9.2-36.9c0-10.2-8.3-18.5-18.5-18.5l0,0l0,0h0
		c-10.2,0-18.5,8.3-18.5,18.5c0,7.1,9.2,29.7,9.2,36.9c0,7.3-9.2,29.8-9.2,36.9c0,10.2,8.3,18.5,18.5,18.5h0l0,0l0,0
		c10.2,0,18.5-8.3,18.5-18.5C1306.7,179.8,1297.4,157.2,1297.4,149.9z"/>
	<path id="XMLID_6544_" class="st1" d="M1343.8,113C1343.8,113,1343.8,113,1343.8,113c0,0,0.1,0,0.2,0
		C1343.9,113,1343.9,113,1343.8,113z"/>
	<path id="XMLID_6543_" class="st1" d="M1233,113.4C1233,113.4,1233,113.4,1233,113.4c0,0,0.1,0,0.2,0
		C1233.2,113.4,1233.1,113.4,1233,113.4z"/>
	<linearGradient id="XMLID_25_" gradientUnits="userSpaceOnUse" x1="1288.2159" y1="270.3608" x2="1288.2159" y2="247.2042">
		<stop  offset="0" style="stop-color:#FFFFFF;stop-opacity:0"/>
		<stop  offset="1" style="stop-color:#E7F6FD"/>
	</linearGradient>
	<path id="XMLID_6542_" class="st13" d="M1292.8,247.3c0,2.5-2.1,4.6-4.6,4.6s-4.6-2.1-4.6-4.6c0-1-23.1,8.7-23.1,13.8
		c0,5.1,4.1,9.2,9.2,9.2c5.1,0,13.4,0,18.5,0c5.1,0,13.4,0,18.5,0c5.1,0,9.2-4.1,9.2-9.2C1315.9,256,1292.8,246.2,1292.8,247.3z"/>
	<linearGradient id="XMLID_26_" gradientUnits="userSpaceOnUse" x1="1288.2168" y1="232.511" x2="1288.2168" y2="223.2788">
		<stop  offset="0" style="stop-color:#FFFFFF;stop-opacity:0"/>
		<stop  offset="1" style="stop-color:#E7F6FD"/>
	</linearGradient>
	<circle id="XMLID_6541_" class="st14" cx="1288.2" cy="227.9" r="4.6"/>
	<linearGradient id="XMLID_27_" gradientUnits="userSpaceOnUse" x1="1288.2156" y1="296.4342" x2="1288.2156" y2="270.3217">
		<stop  offset="0" style="stop-color:#FFFFFF;stop-opacity:0"/>
		<stop  offset="1" style="stop-color:#E7F6FD"/>
	</linearGradient>
	<path id="XMLID_6540_" class="st15" d="M1269.8,278c0-10.2,36.9-10.2,36.9,0c0,10.2-8.3,18.5-18.5,18.5
		C1278,296.4,1269.8,288.2,1269.8,278z"/>
	<linearGradient id="XMLID_28_" gradientUnits="userSpaceOnUse" x1="1288.2172" y1="205.3345" x2="1288.2172" y2="94.5487">
		<stop  offset="0" style="stop-color:#FFFFFF;stop-opacity:0"/>
		<stop  offset="1" style="stop-color:#E7F6FD"/>
	</linearGradient>
	<path id="XMLID_6539_" class="st16" d="M1306.7,113c0-10.2-8.3-18.5-18.5-18.5c-10.2,0-18.5,8.3-18.5,18.5c0,8.7,0,65.2,0,73.9
		c0,10.2,8.3,18.5,18.5,18.5c10.2,0,18.5-8.3,18.5-18.5C1306.7,178.2,1306.7,121.7,1306.7,113z"/>
	<g id="XMLID_6535_">
		<path id="XMLID_6538_" class="st1" d="M1242.5,80.2c-0.1,0-0.2,0-0.3,0c-1.7,0-3.2,0.5-4.5,1.2c-1.3-0.8-2.8-1.2-4.4-1.2
			c-0.1,0-0.2,0-0.3,0c-3.7,0-6.9,2.3-8.4,5.5c-4.9-0.2-10,1.1-10,3.8c0,5.1,4.1,9.2,9.2,9.2c1.7,0,3.3-0.5,4.6-1.2
			c1.4,0.8,2.9,1.2,4.6,1.2c1.7,0,3.3-0.5,4.6-1.2c1.4,0.8,2.9,1.2,4.6,1.2c5.1,0,9.2-4.1,9.2-9.2
			C1251.5,84.4,1247.5,80.3,1242.5,80.2z"/>
		<path id="XMLID_6537_" d="M1223.8,98.7c1.7,0,3.3-0.5,4.6-1.2c1.4,0.8,2.9,1.2,4.6,1.2c1.7,0,3.3-0.5,4.6-1.2
			c1.4,0.8,2.9,1.2,4.6,1.2c5.1,0,9.2-4.1,9.2-9.2C1251.5,84.4,1218.7,98.7,1223.8,98.7z"/>
		<path id="XMLID_6536_" class="st17" d="M1242.5,80.2c-0.1,0-0.2,0-0.3,0c-1.7,0-3.2,0.5-4.5,1.2c-1.3-0.8-2.8-1.2-4.4-1.2
			c-0.1,0-0.2,0-0.3,0c-3.7,0-18.4,6.5-18.4,9.2C1214.6,94.5,1247.5,80.3,1242.5,80.2z"/>
	</g>
	<g id="XMLID_6531_">
		<path id="XMLID_6534_" class="st1" d="M1334.4,79.8c0.1,0,0.2,0,0.3,0c1.7,0,3.2,0.5,4.5,1.2c1.3-0.8,2.8-1.2,4.4-1.2
			c0.1,0,0.2,0,0.3,0c3.7,0,18.4,6.5,18.4,9.2c0,5.1-4.1,9.2-9.2,9.2c-1.7,0-3.3-0.5-4.6-1.2c-1.4,0.8-2.9,1.2-4.6,1.2
			c-1.7,0-3.3-0.5-4.6-1.2c-1.4,0.8-2.9,1.2-4.6,1.2c-5.1,0-9.2-4.1-9.2-9.2C1325.3,84,1329.4,79.9,1334.4,79.8z"/>
		<path id="XMLID_6533_" d="M1353,98.2c-1.7,0-3.3-0.5-4.6-1.2c-1.4,0.8-2.9,1.2-4.6,1.2c-1.7,0-3.3-0.5-4.6-1.2
			c-1.4,0.8-2.9,1.2-4.6,1.2c-5.1,0-9.2-4.1-9.2-9.2C1325.4,84,1358.1,98.2,1353,98.2z"/>
		<path id="XMLID_6532_" class="st17" d="M1334.4,79.8c0.1,0,0.2,0,0.3,0c1.7,0,3.2,0.5,4.5,1.2c1.3-0.8,2.8-1.2,4.4-1.2
			c0.1,0,0.2,0,0.3,0c3.7,0,6.9,2.3,8.4,5.5c4.9-0.2,10,1.1,10,3.8C1362.3,94.1,1329.4,79.9,1334.4,79.8z"/>
	</g>
	<g id="XMLID_6529_">
		<linearGradient id="XMLID_29_" gradientUnits="userSpaceOnUse" x1="1288.4188" y1="67.2772" x2="1288.4188" y2="39.4445">
			<stop  offset="0" style="stop-color:#FFFFFF;stop-opacity:0"/>
			<stop  offset="1" style="stop-color:#E7F6FD"/>
		</linearGradient>
		<path id="XMLID_6530_" class="st18" d="M1364.5,55.1c-20.9-20.9-131.3-20.9-152.2,0c-3.1,3.1,1.2,5.7,10.2,7.6
			c28.4,6.1,102.9,6.1,131.5,0.1C1363.2,60.8,1367.7,58.3,1364.5,55.1z"/>
	</g>
	<path id="XMLID_6528_" class="st1" d="M1198.6,42.9c0,10.2,8.3,18.5,18.5,18.5c10.2,0,18.5-8.3,18.5-18.5
		c0-10.1-8.1-18.2-18.1-18.4c-0.2,0-0.4,0-0.5,0C1206.8,24.5,1198.6,32.7,1198.6,42.9z"/>
	<path id="XMLID_6527_" class="st1" d="M1234.4,34.9c0,10.2,8.3,18.5,18.5,18.5c10.2,0,18.5-8.3,18.5-18.5
		c0-10.1-8.1-18.2-18.1-18.4c-0.2,0-0.4,0-0.5,0C1242.6,16.5,1234.4,24.7,1234.4,34.9z"/>
	<path id="XMLID_6526_" class="st1" d="M1341.5,49.1c0,10.2,8.3,18.5,18.5,18.5c10.2,0,18.5-8.3,18.5-18.5
		c0-10.1-8.1-18.2-18.1-18.4c-0.2,0-0.4,0-0.5,0C1349.6,30.7,1341.5,38.9,1341.5,49.1z"/>
	<path id="XMLID_6525_" class="st1" d="M1311.1,39.4c0,10.2,36.9,10.2,36.9,0c0-10.1-8.1-18.2-18.1-18.4c-0.2,0-0.4,0-0.5,0
		C1319.3,21.1,1311.1,29.3,1311.1,39.4z"/>
	<path id="XMLID_6524_" class="st1" d="M1271.4,27.6c0,10.2,8.3,18.5,18.5,18.5c10.2,0,18.5-8.3,18.5-18.5
		c0-10.1-8.1-18.2-18.1-18.4c-0.2,0-0.4,0-0.5,0C1279.6,9.2,1271.4,17.5,1271.4,27.6z"/>
	<path id="XMLID_6523_" class="st1" d="M1196.1,39.4c0,10.2,8.3,18.5,18.5,18.5c10.2,0,18.5-8.3,18.5-18.5
		c0-10.1-8.1-18.2-18.1-18.4c-0.2,0-0.4,0-0.5,0C1204.3,21.1,1196.1,29.3,1196.1,39.4z"/>
	<path id="XMLID_6522_" class="st1" d="M1347.1,39.4c0,10.2,8.3,18.5,18.5,18.5c10.2,0,18.5-8.3,18.5-18.5
		c0-10.1-8.1-18.2-18.1-18.4c-0.2,0-0.4,0-0.5,0C1355.3,21,1347.1,29.3,1347.1,39.4z"/>
	<path id="XMLID_6521_" class="st1" d="M1384.7,82c10.2,0,10.4-36.7,0.4-36.9c-0.2,0-0.4,0-0.5,0C1374.4,45.2,1374.5,82,1384.7,82z"
		/>
	<path id="XMLID_6520_" class="st19" d="M1363.7,0"/>
	<g id="XMLID_6518_">
		<linearGradient id="XMLID_30_" gradientUnits="userSpaceOnUse" x1="1234.5586" y1="11.5184" x2="1234.5586" y2="37.5522">
			<stop  offset="0" style="stop-color:#292933;stop-opacity:0"/>
			<stop  offset="1" style="stop-color:#2F2F39"/>
		</linearGradient>
		<path id="XMLID_6519_" class="st20" d="M1229,33.1c-9.2,0-10.2,4.4,0,4.4c10.2,0,18.5-8.3,18.5-18.5c0-0.5-0.1-0.9-0.3-1.4
			C1245.7,26.5,1238.1,33.1,1229,33.1z"/>
	</g>
	<g id="XMLID_6516_">
		<linearGradient id="XMLID_31_" gradientUnits="userSpaceOnUse" x1="1282.1385" y1="8.2751" x2="1282.1385" y2="34.3193">
			<stop  offset="0" style="stop-color:#292933;stop-opacity:0"/>
			<stop  offset="1" style="stop-color:#2F2F39"/>
		</linearGradient>
		<path id="XMLID_6517_" class="st21" d="M1282.1,29.9c-9.2,0-16.7-6.7-18.2-15.4c-0.2,0.4-0.3,0.9-0.3,1.4
			c0,10.2,8.3,18.5,18.5,18.5c10.2,0,18.5-8.3,18.5-18.5c0-0.5-0.1-0.9-0.3-1.4C1298.9,23.2,1291.3,29.9,1282.1,29.9z"/>
	</g>
	<g id="XMLID_6514_">
		<linearGradient id="XMLID_32_" gradientUnits="userSpaceOnUse" x1="1217.0215" y1="35.272" x2="1217.0215" y2="61.3162">
			<stop  offset="0" style="stop-color:#292933;stop-opacity:0"/>
			<stop  offset="1" style="stop-color:#2F2F39"/>
		</linearGradient>
		<path id="XMLID_6515_" class="st22" d="M1217,56.9c-9.2,0-16.7-6.7-18.2-15.4c-0.2,0.4-0.3,0.9-0.3,1.4c0,10.2,8.3,18.5,18.5,18.5
			c10.2,0,18.5-8.3,18.5-18.5c0-0.5-0.1-0.9-0.3-1.4C1233.8,50.2,1226.2,56.9,1217,56.9z"/>
	</g>
	<g id="XMLID_6512_">
		<linearGradient id="XMLID_33_" gradientUnits="userSpaceOnUse" x1="1359.922" y1="31.3579" x2="1359.922" y2="57.4021">
			<stop  offset="0" style="stop-color:#292933;stop-opacity:0"/>
			<stop  offset="1" style="stop-color:#2F2F39"/>
		</linearGradient>
		<path id="XMLID_6513_" class="st23" d="M1365.5,53c-9.2,0-16.7-6.7-18.2-15.4c-0.2,0.4-0.3,0.9-0.3,1.4c0,10.2,8.3,18.5,18.5,18.5
			C1375.7,57.4,1374.7,53,1365.5,53z"/>
	</g>
	<linearGradient id="XMLID_34_" gradientUnits="userSpaceOnUse" x1="1288.9821" y1="296.8192" x2="1288.9821" y2="232.511">
		<stop  offset="0" style="stop-color:#FEE66D"/>
		<stop  offset="1" style="stop-color:#FCB23C"/>
	</linearGradient>
	<path id="XMLID_6511_" class="st24" d="M1325.9,247.3c0-3-25.5-14.8-29.5-14.8c0,4.1-14.8,4.1-14.8,0c-4.1,0-29.5,11.7-29.5,14.8
		c0,1.3,6.6,30.7,17.3,41.4c10.8,10.8,28.4,10.8,39.2,0C1319.2,278,1325.9,248.6,1325.9,247.3z"/>
	<path id="XMLID_6510_" class="st1" d="M1197.3,74.3c10.2,0,10.4-36.7,0.4-36.9c-0.2,0-0.4,0-0.5,0
		C1187,37.4,1187.1,74.3,1197.3,74.3z"/>
	<g id="XMLID_6478_">
		<path id="XMLID_6507_" class="st1" d="M1233.2,113.4c0.2,0,0.4,0.1,0.7,0.1C1233.7,113.5,1233.5,113.5,1233.2,113.4
			c-0.1,0-5.3,0.1-0.3,0c0,0-0.1,0-0.1,0c-10.2,0-18.5,16.5-18.5,36.9s8.3,36.9,18.5,36.9c10.2,0,18.5-16.5,18.5-36.9
			C1251.3,130.2,1243.2,113.9,1233.2,113.4z M1235.1,113.9c-0.1,0-0.2-0.1-0.3-0.1C1234.9,113.8,1235,113.8,1235.1,113.9z"/>
		<path id="XMLID_6504_" d="M1214.4,150.2c0,20.4,8.3,36.9,18.5,36.9C1243,187.1,1214.4,129.8,1214.4,150.2z M1234.8,113.6"/>
		<path id="XMLID_6501_" class="st17" d="M1233.2,113.4c0.2,0,0.4,0.1,0.7,0.1C1233.7,113.5,1233.5,113.5,1233.2,113.4
			c-0.1,0-5.3,0.1-0.3,0c0,0-0.1,0-0.1,0c-10.2,0,18.5,57.3,18.5,36.9C1251.3,130.2,1243.2,113.9,1233.2,113.4z M1235.1,113.9
			c-0.1,0-0.2-0.1-0.3-0.1C1234.9,113.8,1235,113.8,1235.1,113.9z"/>
		<path id="XMLID_6498_" class="st1" d="M1344,113c0.2,0,0.4,0.1,0.7,0.1C1344.5,113.1,1344.2,113,1344,113c-0.1,0-0.2,0-0.3,0
			c-5.1,0.1-5.1,0.1,0,0c0,0-0.1,0-0.1,0c-10.2,0-18.5,16.5-18.5,36.9s8.3,36.9,18.5,36.9c10.2,0,18.5-16.5,18.5-36.9
			C1362.1,129.8,1354,113.5,1344,113z M1345.8,113.5c-0.1,0-0.2-0.1-0.3-0.1C1345.7,113.4,1345.7,113.4,1345.8,113.5z"/>
		<path id="XMLID_6495_" d="M1325.1,149.9c0,20.4,8.3,36.9,18.5,36.9C1353.8,186.9,1325.1,129.5,1325.1,149.9z M1345.6,113.4"/>
		<path id="XMLID_6492_" class="st17" d="M1344.1,113c0.2,0,0.4,0.1,0.7,0.1C1344.5,113.1,1344.3,113,1344.1,113
			c-0.1,0-5.3,0.1-0.3,0c0,0-0.1,0-0.1,0c-10.2,0,18.5,57.3,18.5,36.9C1362.1,129.8,1354.1,113.5,1344.1,113z M1345.9,113.5
			c-0.1,0-0.2-0.1-0.3-0.1C1345.7,113.4,1345.8,113.4,1345.9,113.5z"/>
		<g id="XMLID_6486_">
			<linearGradient id="XMLID_35_" gradientUnits="userSpaceOnUse" x1="1214.3597" y1="179.963" x2="1251.2883" y2="179.963">
				<stop  offset="0" style="stop-color:#FFFFFF;stop-opacity:0"/>
				<stop  offset="1" style="stop-color:#BCE6FB"/>
			</linearGradient>
			<path id="XMLID_6491_" class="st25" d="M1232.8,187.3c-8.9,0-16.4-12.7-18.1-29.5c-0.2,2.4-0.4,4.9-0.4,7.4
				c0,20.4,8.3,36.9,18.5,36.9c10.2,0,18.5-16.5,18.5-36.9c0-2.5-0.1-5-0.4-7.4C1249.2,174.6,1241.7,187.3,1232.8,187.3z"/>
			<path id="XMLID_6490_" class="st1" d="M1232.8,113.4c-0.1,0-0.2,0-0.2,0c0.1,0,0.2,0,0.4,0
				C1232.9,113.4,1232.9,113.4,1232.8,113.4z"/>
			<path id="XMLID_6489_" class="st1" d="M1232.3,113.5c0.1,0,0.2,0,0.3,0C1229.5,113.5,1231,113.5,1232.3,113.5z"/>
			<path id="XMLID_6488_" class="st1" d="M1232.8,128.3c-0.1,0-0.2,0-0.2,0c0.1,0,0.2,0,0.4,0
				C1232.9,128.3,1232.9,128.3,1232.8,128.3z"/>
			<path id="XMLID_6487_" class="st1" d="M1232.3,128.3c0.1,0,0.2,0,0.3,0C1229.5,128.3,1231,128.3,1232.3,128.3z"/>
		</g>
		
			<linearGradient id="XMLID_36_" gradientUnits="userSpaceOnUse" x1="9801.0186" y1="179.5475" x2="9837.9473" y2="179.5475" gradientTransform="matrix(-1 0 0 1 11163.0928 0)">
			<stop  offset="0" style="stop-color:#FFFFFF;stop-opacity:0"/>
			<stop  offset="1" style="stop-color:#BCE6FB"/>
		</linearGradient>
		<path id="XMLID_6485_" class="st26" d="M1343.6,186.9c8.9,0,16.4-12.7,18.1-29.5c0.2,2.4,0.4,4.9,0.4,7.4
			c0,20.4-8.3,36.9-18.5,36.9c-10.2,0-18.5-16.5-18.5-36.9c0-2.5,0.1-5,0.4-7.4C1327.2,174.2,1334.7,186.9,1343.6,186.9z"/>
		<path id="XMLID_6482_" class="st4" d="M1349.6,120.6C1349.6,120.6,1349.6,120.6,1349.6,120.6
			C1349.6,120.6,1349.6,120.6,1349.6,120.6C1349.6,120.6,1349.5,120.6,1349.6,120.6C1348.9,120.6,1348.9,120.6,1349.6,120.6
			C1349.5,120.6,1349.5,120.6,1349.6,120.6c-1.3,0-2.4,2.1-2.4,4.6s4.6,2.5,4.6,0C1351.8,122.7,1350.8,120.6,1349.6,120.6z
			 M1349.8,120.6C1349.8,120.6,1349.8,120.6,1349.8,120.6C1349.8,120.6,1349.8,120.6,1349.8,120.6z"/>
		<path id="XMLID_6479_" class="st4" d="M1238.7,121C1238.8,121,1238.8,121,1238.7,121C1238.8,121,1238.8,121,1238.7,121
			C1238.7,121,1238.7,121,1238.7,121C1238.1,121,1238.1,121,1238.7,121L1238.7,121c-1.3,0-2.4,2.1-2.4,4.6c0,2.5,4.6,2.5,4.6,0
			C1241,123.1,1240,121.1,1238.7,121z M1239,121.1C1238.9,121,1238.9,121,1239,121.1C1238.9,121,1238.9,121,1239,121.1z"/>
	</g>
	<g id="XMLID_6461_">
		<linearGradient id="XMLID_37_" gradientUnits="userSpaceOnUse" x1="1288.2169" y1="205.3345" x2="1288.2169" y2="168.4058">
			<stop  offset="0" style="stop-color:#E7F6FD;stop-opacity:0"/>
			<stop  offset="1" style="stop-color:#E7F6FD"/>
		</linearGradient>
		<path id="XMLID_6477_" class="st27" d="M1297.4,168.4c-3.4,0-6.5,0.9-9.2,2.5c-2.7-1.6-5.9-2.5-9.2-2.5
			c-10.2,0-18.5,8.3-18.5,18.5c0,10.2,8.3,18.5,18.5,18.5c3.4,0,6.5-0.9,9.2-2.5c2.7,1.6,5.9,2.5,9.2,2.5c10.2,0,18.5-8.3,18.5-18.5
			C1315.9,176.7,1307.6,168.4,1297.4,168.4z"/>
		<g id="XMLID_6470_">
			<path id="XMLID_6476_" class="st1" d="M1288.2,205.3c0-10.2-8.3-18.5-18.5-18.5c-3.4,0-55.4,8.3-55.4,18.5s8.3,18.5,18.5,18.5
				c3.4,0,6.5-0.9,9.2-2.5c2.7,1.6,5.9,2.5,9.2,2.5c3.4,0,6.5-0.9,9.2-2.5c2.7,1.6,5.9,2.5,9.2,2.5
				C1279.9,223.8,1288.2,215.5,1288.2,205.3L1288.2,205.3L1288.2,205.3z"/>
			<path id="XMLID_6475_" class="st1" d="M1288.2,205.3c0-10.2,8.3-18.5,18.5-18.5c3.4,0,55.4,8.3,55.4,18.5
				c0,10.2-8.3,18.5-18.5,18.5c-3.4,0-6.5-0.9-9.2-2.5c-2.7,1.6-5.9,2.5-9.2,2.5s-6.5-0.9-9.2-2.5c-2.7,1.6-5.9,2.5-9.2,2.5
				C1296.5,223.8,1288.2,215.5,1288.2,205.3L1288.2,205.3L1288.2,205.3z"/>
			<path id="XMLID_6474_" d="M1214.4,205.2c0,10.2,8.3,18.5,18.5,18.5c3.4,0,6.5-0.9,9.2-2.5c2.7,1.6,5.9,2.5,9.2,2.5
				c3.4,0,6.5-0.9,9.2-2.5c2.7,1.6,5.9,2.5,9.2,2.5C1279.9,223.6,1214.4,195,1214.4,205.2z"/>
			<path id="XMLID_6473_" d="M1288.2,205.2c0-10.2,65.6,18.5,55.4,18.5c-3.4,0-6.5-0.9-9.2-2.5c-2.7,1.6-5.9,2.5-9.2,2.5
				s-6.5-0.9-9.2-2.5c-2.7,1.6-5.9,2.5-9.2,2.5C1296.5,223.6,1288.2,215.4,1288.2,205.2L1288.2,205.2L1288.2,205.2z"/>
			<path id="XMLID_6472_" class="st17" d="M1288.2,205.3c0-10.2-8.3-18.5-18.5-18.5C1266.4,186.9,1288.2,215.5,1288.2,205.3
				L1288.2,205.3L1288.2,205.3z"/>
			<path id="XMLID_6471_" class="st17" d="M1306.7,186.9c3.4,0,55.4,8.3,55.4,18.5S1296.5,186.9,1306.7,186.9z"/>
		</g>
		<g id="XMLID_6467_">
			<path id="XMLID_6469_" class="st28" d="M1297.4,205.3c-10.2,0-18.5-8.3-18.5-18.5c0-10.2,36.9-10.2,36.9,0
				C1315.9,197.1,1307.6,205.3,1297.4,205.3z"/>
			<linearGradient id="XMLID_38_" gradientUnits="userSpaceOnUse" x1="1315.9132" y1="192.2779" x2="1278.9845" y2="192.2779">
				<stop  offset="0" style="stop-color:#F2642E;stop-opacity:0"/>
				<stop  offset="1" style="stop-color:#D13141"/>
			</linearGradient>
			<path id="XMLID_6468_" class="st29" d="M1297.4,205.3c-10.2,0-18.5-8.3-18.5-18.5c0-10.2,36.9-10.2,36.9,0
				C1315.9,197.1,1307.6,205.3,1297.4,205.3z"/>
		</g>
		<g id="XMLID_6464_">
			<path id="XMLID_6466_" class="st28" d="M1279,205.3c10.2,0,18.5-8.3,18.5-18.5c0-10.2-36.9-10.2-36.9,0
				C1260.5,197.1,1268.8,205.3,1279,205.3z"/>
			
				<linearGradient id="XMLID_39_" gradientUnits="userSpaceOnUse" x1="5627.6606" y1="192.2781" x2="5590.7319" y2="192.2781" gradientTransform="matrix(-1 0 0 1 6888.1807 0)">
				<stop  offset="0" style="stop-color:#F2642E;stop-opacity:0"/>
				<stop  offset="1" style="stop-color:#D13141"/>
			</linearGradient>
			<path id="XMLID_6465_" class="st30" d="M1279,205.3c10.2,0,18.5-8.3,18.5-18.5s-36.9-10.2-36.9,0S1268.8,205.3,1279,205.3z"/>
		</g>
		<linearGradient id="XMLID_40_" gradientUnits="userSpaceOnUse" x1="1288.2172" y1="205.3345" x2="1288.2172" y2="144.936">
			<stop  offset="0" style="stop-color:#F2642E"/>
			<stop  offset="1" style="stop-color:#FFFFFF"/>
		</linearGradient>
		<path id="XMLID_6463_" class="st31" d="M1292.8,149.9c0-6.7-9.2-6.7-9.2,0c0,6.7-13.8,28.2-13.8,36.9c0,10.2,8.3,18.5,18.5,18.5
			c10.2,0,18.5-8.3,18.5-18.5C1306.7,178.2,1292.8,156.6,1292.8,149.9z"/>
		<linearGradient id="XMLID_41_" gradientUnits="userSpaceOnUse" x1="1288.2167" y1="205.3345" x2="1288.2167" y2="94.5487">
			<stop  offset="0" style="stop-color:#E7F6FD;stop-opacity:0"/>
			<stop  offset="1" style="stop-color:#E7F6FD"/>
		</linearGradient>
		<path id="XMLID_6462_" class="st32" d="M1292.8,149.9c0-6.7,5.6-55.4-4.6-55.4c-10.2,0-4.6,48.7-4.6,55.4
			c0,6.7-13.8,28.2-13.8,36.9c0,10.2,8.3,18.5,18.5,18.5c10.2,0,18.5-8.3,18.5-18.5C1306.7,178.2,1292.8,156.6,1292.8,149.9z"/>
	</g>
	<path id="XMLID_6460_" class="st33" d="M1462.4,318.7c0-6.1-5-11.1-11.1-11.1c-6.1,0-1397.2,0-1403.3,0s-11.1,5-11.1,11.1
		c0,6.1,0,16,0,22.2c0,6.1,5,11.1,11.1,11.1s1397.2,0,1403.3,0c6.1,0,11.1-5,11.1-11.1C1462.4,334.8,1462.4,324.9,1462.4,318.7z"/>
	<path id="XMLID_6459_" class="st34" d="M1451.3,241.2c-6.1,0-1397.2,0-1403.3,0S0,275.7,0,281.8c0,6.1,0,30.8,0,36.9
		c0,6.1,5,11.1,11.1,11.1s1471,0,1477.1,0s11.1-5,11.1-11.1c0-6.1,0-30.8,0-36.9C1499.3,275.7,1457.4,241.2,1451.3,241.2z"/>
	<path id="XMLID_6458_" class="st35" d="M0,281.8c0,6.1,0,30.8,0,36.9c0,6.1,5,11.1,11.1,11.1s1471,0,1477.1,0s11.1-5,11.1-11.1
		c0-6.1,0-30.8,0-36.9C1499.3,275.7,0,275.7,0,281.8z"/>
</g>
</svg>
