<?xml version="1.0" encoding="utf-8"?>
<!-- Generator: Adobe Illustrator 19.0.0, SVG Export Plug-In . SVG Version: 6.00 Build 0)  -->
<svg version="1.1" id="Layer_1" xmlns="http://www.w3.org/2000/svg" xmlns:xlink="http://www.w3.org/1999/xlink" x="0px" y="0px"
	 viewBox="0 0 515 275" style="enable-background:new 0 0 515 275;" xml:space="preserve">
<style type="text/css">
	.st0{fill:#FEE66D;}
	.st1{fill:#FFC950;}
	.st2{fill:#FFF9E7;}
</style>
<g id="XMLID_6579_">
	<path id="XMLID_6578_" class="st0" d="M77.5,24.4c-4.1,0-10.9,0-15,0c-4.1,0-7.5,3.4-7.5,7.5c0,4.1,7.5,200,7.5,200
		c0,4.1,3.4,7.5,7.5,7.5c4.1,0,7.5-3.4,7.5-7.5c0,0,7.5-195.9,7.5-200C85,27.8,81.6,24.4,77.5,24.4z"/>
	<path id="XMLID_6577_" class="st0" d="M452.5,24.4c-4.1,0-10.9,0-15,0c-4.1,0-7.5,3.4-7.5,7.5c0,4.1,7.5,200,7.5,200
		c0,4.1,3.4,7.5,7.5,7.5c4.1,0,7.5-3.4,7.5-7.5c0,0,7.5-195.9,7.5-200C460,27.8,456.6,24.4,452.5,24.4z"/>
	<path id="XMLID_6576_" class="st0" d="M62.5,60c-4.1,0-10.9,0-15,0c-4.1,0-7.5,3.4-7.5,7.5c0,4.1,7.5,200,7.5,200
		c0,4.1,3.4,7.5,7.5,7.5c4.1,0,7.5-3.4,7.5-7.5c0,0,7.5-195.9,7.5-200C70,63.4,66.6,60,62.5,60z"/>
	<path id="XMLID_6575_" class="st0" d="M467.5,60c-4.1,0-10.9,0-15,0c-4.1,0-7.5,3.4-7.5,7.5c0,4.1,7.5,200,7.5,200
		c0,4.1,3.4,7.5,7.5,7.5c4.1,0,7.5-3.4,7.5-7.5c0,0,7.5-195.9,7.5-200C475,63.4,471.6,60,467.5,60z"/>
	<g id="XMLID_6571_">
		<path id="XMLID_6574_" class="st1" d="M490,52.5c0-4.1-3.4-7.5-7.5-7.5s-445.9,0-450,0S25,48.4,25,52.5s0,10.9,0,15
			s3.4,7.5,7.5,7.5s445.9,0,450,0s7.5-3.4,7.5-7.5S490,56.6,490,52.5z"/>
		<path id="XMLID_6573_" class="st2" d="M482.5,0c-4.1,0-445.9,0-450,0S0,23.4,0,27.5c0,4.1,0,20.9,0,25S3.4,60,7.5,60
			s495.9,0,500,0s7.5-3.4,7.5-7.5s0-20.9,0-25C515,23.4,486.6,0,482.5,0z"/>
		<path id="XMLID_6572_" class="st0" d="M0,27.5c0,4.1,0,20.9,0,25S3.4,60,7.5,60s495.9,0,500,0s7.5-3.4,7.5-7.5s0-20.9,0-25
			C515,23.4,0,23.4,0,27.5z"/>
	</g>
</g>
</svg>
