<?xml version="1.0" encoding="utf-8"?>
<!-- Generator: Adobe Illustrator 19.0.0, SVG Export Plug-In . SVG Version: 6.00 Build 0)  -->
<svg version="1.1" id="Layer_1" xmlns="http://www.w3.org/2000/svg" xmlns:xlink="http://www.w3.org/1999/xlink" x="0px" y="0px"
	 viewBox="0 0 386.2 191.2" style="enable-background:new 0 0 386.2 191.2;" xml:space="preserve">
<style type="text/css">
	.st0{opacity:0.1;}
	.st1{fill:#2F2F39;}
</style>
<g id="XMLID_6566_" class="st0">
	<path id="XMLID_6570_" class="st1" d="M46.9,30c-3.1,0-8.1,0-11.2,0c-3.1,0-5.6,2.5-5.6,5.6c0,3.1,5.6,150,5.6,150
		c0,3.1,2.5,5.6,5.6,5.6c3.1,0,5.6-2.5,5.6-5.6c0,0,5.6-146.9,5.6-150C52.5,32.5,50,30,46.9,30z"/>
	<path id="XMLID_6569_" class="st1" d="M350.6,30c-3.1,0-8.1,0-11.2,0c-3.1,0-5.6,2.5-5.6,5.6c0,3.1,5.6,150,5.6,150
		c0,3.1,2.5,5.6,5.6,5.6c3.1,0,5.6-2.5,5.6-5.6c0,0,5.6-146.9,5.6-150C356.3,32.5,353.7,30,350.6,30z"/>
	<path id="XMLID_6568_" class="st1" d="M367.5,24.4c0-3.1-2.5-5.6-5.6-5.6s-334.4,0-337.5,0s-5.6,2.5-5.6,5.6s0,8.1,0,11.2
		s2.5,5.6,5.6,5.6s334.4,0,337.5,0s5.6-2.5,5.6-5.6S367.5,27.5,367.5,24.4z"/>
	<path id="XMLID_6567_" class="st1" d="M386.3,5.6c0-3.1-2.5-5.6-5.6-5.6S8.7,0,5.6,0S0,2.5,0,5.6c0,3.1,0,15.6,0,18.8
		S2.5,30,5.6,30s371.9,0,375,0s5.6-2.5,5.6-5.6S386.3,8.7,386.3,5.6z"/>
</g>
</svg>
